<?xml version="1.0" encoding="utf-8"?>
<svg xmlns="http://www.w3.org/2000/svg" xmlns:xlink="http://www.w3.org/1999/xlink" width="672" height="480" viewBox="0 0 2688 1920">
<defs>
  <clipPath id="clip720">
    <rect x="0" y="0" width="2688" height="1920"/>
  </clipPath>
</defs>
<path clip-path="url(#clip720)" d="M0 1920 L2688 1920 L2688 -4.26326e-14 L0 -4.26326e-14  Z" fill="#ffffff" fill-rule="evenodd" fill-opacity="1"/>
<defs>
  <clipPath id="clip721">
    <rect x="537" y="0" width="1883" height="1883"/>
  </clipPath>
</defs>
<path clip-path="url(#clip720)" d="M210.238 1734.12 L2640.76 1734.12 L2640.76 47.2441 L210.238 47.2441  Z" fill="#ffffff" fill-rule="evenodd" fill-opacity="1"/>
<defs>
  <clipPath id="clip722">
    <rect x="210" y="47" width="2432" height="1688"/>
  </clipPath>
</defs>
<polyline clip-path="url(#clip722)" style="stroke:#000000; stroke-linecap:round; stroke-linejoin:round; stroke-width:2; stroke-opacity:0.1; fill:none" points="618.721,1734.12 618.721,47.2441 "/>
<polyline clip-path="url(#clip722)" style="stroke:#000000; stroke-linecap:round; stroke-linejoin:round; stroke-width:2; stroke-opacity:0.1; fill:none" points="1043.34,1734.12 1043.34,47.2441 "/>
<polyline clip-path="url(#clip722)" style="stroke:#000000; stroke-linecap:round; stroke-linejoin:round; stroke-width:2; stroke-opacity:0.1; fill:none" points="1467.96,1734.12 1467.96,47.2441 "/>
<polyline clip-path="url(#clip722)" style="stroke:#000000; stroke-linecap:round; stroke-linejoin:round; stroke-width:2; stroke-opacity:0.1; fill:none" points="1892.58,1734.12 1892.58,47.2441 "/>
<polyline clip-path="url(#clip722)" style="stroke:#000000; stroke-linecap:round; stroke-linejoin:round; stroke-width:2; stroke-opacity:0.1; fill:none" points="2317.2,1734.12 2317.2,47.2441 "/>
<polyline clip-path="url(#clip722)" style="stroke:#000000; stroke-linecap:round; stroke-linejoin:round; stroke-width:2; stroke-opacity:0.1; fill:none" points="210.238,1690.94 2640.76,1690.94 "/>
<polyline clip-path="url(#clip722)" style="stroke:#000000; stroke-linecap:round; stroke-linejoin:round; stroke-width:2; stroke-opacity:0.1; fill:none" points="210.238,1234.95 2640.76,1234.95 "/>
<polyline clip-path="url(#clip722)" style="stroke:#000000; stroke-linecap:round; stroke-linejoin:round; stroke-width:2; stroke-opacity:0.1; fill:none" points="210.238,778.964 2640.76,778.964 "/>
<polyline clip-path="url(#clip722)" style="stroke:#000000; stroke-linecap:round; stroke-linejoin:round; stroke-width:2; stroke-opacity:0.1; fill:none" points="210.238,322.979 2640.76,322.979 "/>
<polyline clip-path="url(#clip720)" style="stroke:#000000; stroke-linecap:round; stroke-linejoin:round; stroke-width:4; stroke-opacity:1; fill:none" points="210.238,1734.12 2640.76,1734.12 "/>
<polyline clip-path="url(#clip720)" style="stroke:#000000; stroke-linecap:round; stroke-linejoin:round; stroke-width:4; stroke-opacity:1; fill:none" points="618.721,1734.12 618.721,1715.22 "/>
<polyline clip-path="url(#clip720)" style="stroke:#000000; stroke-linecap:round; stroke-linejoin:round; stroke-width:4; stroke-opacity:1; fill:none" points="1043.34,1734.12 1043.34,1715.22 "/>
<polyline clip-path="url(#clip720)" style="stroke:#000000; stroke-linecap:round; stroke-linejoin:round; stroke-width:4; stroke-opacity:1; fill:none" points="1467.96,1734.12 1467.96,1715.22 "/>
<polyline clip-path="url(#clip720)" style="stroke:#000000; stroke-linecap:round; stroke-linejoin:round; stroke-width:4; stroke-opacity:1; fill:none" points="1892.58,1734.12 1892.58,1715.22 "/>
<polyline clip-path="url(#clip720)" style="stroke:#000000; stroke-linecap:round; stroke-linejoin:round; stroke-width:4; stroke-opacity:1; fill:none" points="2317.2,1734.12 2317.2,1715.22 "/>
<path clip-path="url(#clip720)" d="M608.999 1764.26 L627.355 1764.26 L627.355 1768.2 L613.281 1768.2 L613.281 1776.67 Q614.3 1776.32 615.318 1776.16 Q616.337 1775.97 617.355 1775.97 Q623.142 1775.97 626.522 1779.15 Q629.902 1782.32 629.902 1787.73 Q629.902 1793.31 626.429 1796.41 Q622.957 1799.49 616.638 1799.49 Q614.462 1799.49 612.193 1799.12 Q609.948 1798.75 607.541 1798.01 L607.541 1793.31 Q609.624 1794.45 611.846 1795 Q614.068 1795.56 616.545 1795.56 Q620.55 1795.56 622.888 1793.45 Q625.226 1791.34 625.226 1787.73 Q625.226 1784.12 622.888 1782.02 Q620.55 1779.91 616.545 1779.91 Q614.67 1779.91 612.795 1780.33 Q610.943 1780.74 608.999 1781.62 L608.999 1764.26 Z" fill="#000000" fill-rule="nonzero" fill-opacity="1" /><path clip-path="url(#clip720)" d="M1018.03 1794.89 L1025.67 1794.89 L1025.67 1768.52 L1017.36 1770.19 L1017.36 1765.93 L1025.62 1764.26 L1030.3 1764.26 L1030.3 1794.89 L1037.93 1794.89 L1037.93 1798.82 L1018.03 1798.82 L1018.03 1794.89 Z" fill="#000000" fill-rule="nonzero" fill-opacity="1" /><path clip-path="url(#clip720)" d="M1057.38 1767.34 Q1053.77 1767.34 1051.94 1770.9 Q1050.13 1774.45 1050.13 1781.58 Q1050.13 1788.68 1051.94 1792.25 Q1053.77 1795.79 1057.38 1795.79 Q1061.01 1795.79 1062.82 1792.25 Q1064.65 1788.68 1064.65 1781.58 Q1064.65 1774.45 1062.82 1770.9 Q1061.01 1767.34 1057.38 1767.34 M1057.38 1763.64 Q1063.19 1763.64 1066.24 1768.24 Q1069.32 1772.83 1069.32 1781.58 Q1069.32 1790.3 1066.24 1794.91 Q1063.19 1799.49 1057.38 1799.49 Q1051.57 1799.49 1048.49 1794.91 Q1045.43 1790.3 1045.43 1781.58 Q1045.43 1772.83 1048.49 1768.24 Q1051.57 1763.64 1057.38 1763.64 Z" fill="#000000" fill-rule="nonzero" fill-opacity="1" /><path clip-path="url(#clip720)" d="M1443.14 1794.89 L1450.78 1794.89 L1450.78 1768.52 L1442.47 1770.19 L1442.47 1765.93 L1450.74 1764.26 L1455.41 1764.26 L1455.41 1794.89 L1463.05 1794.89 L1463.05 1798.82 L1443.14 1798.82 L1443.14 1794.89 Z" fill="#000000" fill-rule="nonzero" fill-opacity="1" /><path clip-path="url(#clip720)" d="M1472.54 1764.26 L1490.9 1764.26 L1490.9 1768.2 L1476.82 1768.2 L1476.82 1776.67 Q1477.84 1776.32 1478.86 1776.16 Q1479.88 1775.97 1480.9 1775.97 Q1486.69 1775.97 1490.07 1779.15 Q1493.44 1782.32 1493.44 1787.73 Q1493.44 1793.31 1489.97 1796.41 Q1486.5 1799.49 1480.18 1799.49 Q1478.01 1799.49 1475.74 1799.12 Q1473.49 1798.75 1471.08 1798.01 L1471.08 1793.31 Q1473.17 1794.45 1475.39 1795 Q1477.61 1795.56 1480.09 1795.56 Q1484.09 1795.56 1486.43 1793.45 Q1488.77 1791.34 1488.77 1787.73 Q1488.77 1784.12 1486.43 1782.02 Q1484.09 1779.91 1480.09 1779.91 Q1478.21 1779.91 1476.34 1780.33 Q1474.49 1780.74 1472.54 1781.62 L1472.54 1764.26 Z" fill="#000000" fill-rule="nonzero" fill-opacity="1" /><path clip-path="url(#clip720)" d="M1871.35 1794.89 L1887.67 1794.89 L1887.67 1798.82 L1865.73 1798.82 L1865.73 1794.89 Q1868.39 1792.13 1872.97 1787.5 Q1877.58 1782.85 1878.76 1781.51 Q1881 1778.98 1881.88 1777.25 Q1882.79 1775.49 1882.79 1773.8 Q1882.79 1771.04 1880.84 1769.31 Q1878.92 1767.57 1875.82 1767.57 Q1873.62 1767.57 1871.17 1768.34 Q1868.74 1769.1 1865.96 1770.65 L1865.96 1765.93 Q1868.78 1764.79 1871.24 1764.21 Q1873.69 1763.64 1875.73 1763.64 Q1881.1 1763.64 1884.29 1766.32 Q1887.49 1769.01 1887.49 1773.5 Q1887.49 1775.63 1886.67 1777.55 Q1885.89 1779.45 1883.78 1782.04 Q1883.2 1782.71 1880.1 1785.93 Q1877 1789.12 1871.35 1794.89 Z" fill="#000000" fill-rule="nonzero" fill-opacity="1" /><path clip-path="url(#clip720)" d="M1907.48 1767.34 Q1903.87 1767.34 1902.05 1770.9 Q1900.24 1774.45 1900.24 1781.58 Q1900.24 1788.68 1902.05 1792.25 Q1903.87 1795.79 1907.48 1795.79 Q1911.12 1795.79 1912.92 1792.25 Q1914.75 1788.68 1914.75 1781.58 Q1914.75 1774.45 1912.92 1770.9 Q1911.12 1767.34 1907.48 1767.34 M1907.48 1763.64 Q1913.3 1763.64 1916.35 1768.24 Q1919.43 1772.83 1919.43 1781.58 Q1919.43 1790.3 1916.35 1794.91 Q1913.3 1799.49 1907.48 1799.49 Q1901.67 1799.49 1898.6 1794.91 Q1895.54 1790.3 1895.54 1781.58 Q1895.54 1772.83 1898.6 1768.24 Q1901.67 1763.64 1907.48 1763.64 Z" fill="#000000" fill-rule="nonzero" fill-opacity="1" /><path clip-path="url(#clip720)" d="M2296.47 1794.89 L2312.79 1794.89 L2312.79 1798.82 L2290.84 1798.82 L2290.84 1794.89 Q2293.5 1792.13 2298.09 1787.5 Q2302.69 1782.85 2303.87 1781.51 Q2306.12 1778.98 2307 1777.25 Q2307.9 1775.49 2307.9 1773.8 Q2307.9 1771.04 2305.96 1769.31 Q2304.04 1767.57 2300.93 1767.57 Q2298.74 1767.57 2296.28 1768.34 Q2293.85 1769.1 2291.07 1770.65 L2291.07 1765.93 Q2293.9 1764.79 2296.35 1764.21 Q2298.81 1763.64 2300.84 1763.64 Q2306.21 1763.64 2309.41 1766.32 Q2312.6 1769.01 2312.6 1773.5 Q2312.6 1775.63 2311.79 1777.55 Q2311 1779.45 2308.9 1782.04 Q2308.32 1782.71 2305.22 1785.93 Q2302.12 1789.12 2296.47 1794.89 Z" fill="#000000" fill-rule="nonzero" fill-opacity="1" /><path clip-path="url(#clip720)" d="M2322.65 1764.26 L2341 1764.26 L2341 1768.2 L2326.93 1768.2 L2326.93 1776.67 Q2327.95 1776.32 2328.97 1776.16 Q2329.99 1775.97 2331 1775.97 Q2336.79 1775.97 2340.17 1779.15 Q2343.55 1782.32 2343.55 1787.73 Q2343.55 1793.31 2340.08 1796.41 Q2336.61 1799.49 2330.29 1799.49 Q2328.11 1799.49 2325.84 1799.12 Q2323.6 1798.75 2321.19 1798.01 L2321.19 1793.31 Q2323.27 1794.45 2325.49 1795 Q2327.72 1795.56 2330.19 1795.56 Q2334.2 1795.56 2336.54 1793.45 Q2338.87 1791.34 2338.87 1787.73 Q2338.87 1784.12 2336.54 1782.02 Q2334.2 1779.91 2330.19 1779.91 Q2328.32 1779.91 2326.44 1780.33 Q2324.59 1780.74 2322.65 1781.62 L2322.65 1764.26 Z" fill="#000000" fill-rule="nonzero" fill-opacity="1" /><path clip-path="url(#clip720)" d="M1386.9 1865.38 Q1379.81 1865.38 1377.07 1867 Q1374.33 1868.63 1374.33 1872.54 Q1374.33 1875.66 1376.37 1877.51 Q1378.44 1879.32 1381.97 1879.32 Q1386.84 1879.32 1389.77 1875.88 Q1392.73 1872.42 1392.73 1866.69 L1392.73 1865.38 L1386.9 1865.38 M1398.59 1862.96 L1398.59 1883.3 L1392.73 1883.3 L1392.73 1877.89 Q1390.72 1881.14 1387.73 1882.7 Q1384.74 1884.22 1380.41 1884.22 Q1374.94 1884.22 1371.69 1881.17 Q1368.48 1878.08 1368.48 1872.92 Q1368.48 1866.91 1372.49 1863.85 Q1376.53 1860.8 1384.52 1860.8 L1392.73 1860.8 L1392.73 1860.23 Q1392.73 1856.18 1390.06 1853.99 Q1387.41 1851.76 1382.61 1851.76 Q1379.55 1851.76 1376.66 1852.49 Q1373.76 1853.22 1371.09 1854.69 L1371.09 1849.28 Q1374.3 1848.03 1377.32 1847.43 Q1380.35 1846.79 1383.21 1846.79 Q1390.95 1846.79 1394.77 1850.8 Q1398.59 1854.81 1398.59 1862.96 Z" fill="#000000" fill-rule="nonzero" fill-opacity="1" /><path clip-path="url(#clip720)" d="M1434.11 1865.06 Q1434.11 1858.7 1431.46 1855.2 Q1428.85 1851.7 1424.11 1851.7 Q1419.4 1851.7 1416.76 1855.2 Q1414.15 1858.7 1414.15 1865.06 Q1414.15 1871.4 1416.76 1874.9 Q1419.4 1878.4 1424.11 1878.4 Q1428.85 1878.4 1431.46 1874.9 Q1434.11 1871.4 1434.11 1865.06 M1439.96 1878.88 Q1439.96 1887.98 1435.92 1892.4 Q1431.88 1896.86 1423.54 1896.86 Q1420.45 1896.86 1417.71 1896.38 Q1414.98 1895.94 1412.4 1894.98 L1412.4 1889.28 Q1414.98 1890.69 1417.49 1891.35 Q1420.01 1892.02 1422.62 1892.02 Q1428.38 1892.02 1431.24 1889 Q1434.11 1886.01 1434.11 1879.93 L1434.11 1877.03 Q1432.29 1880.18 1429.46 1881.74 Q1426.63 1883.3 1422.68 1883.3 Q1416.12 1883.3 1412.11 1878.3 Q1408.1 1873.31 1408.1 1865.06 Q1408.1 1856.79 1412.11 1851.79 Q1416.12 1846.79 1422.68 1846.79 Q1426.63 1846.79 1429.46 1848.35 Q1432.29 1849.91 1434.11 1853.06 L1434.11 1847.65 L1439.96 1847.65 L1439.96 1878.88 Z" fill="#000000" fill-rule="nonzero" fill-opacity="1" /><path clip-path="url(#clip720)" d="M1482.52 1864.01 L1482.52 1866.88 L1455.59 1866.88 Q1455.97 1872.92 1459.22 1876.11 Q1462.5 1879.26 1468.32 1879.26 Q1471.7 1879.26 1474.85 1878.43 Q1478.03 1877.6 1481.15 1875.95 L1481.15 1881.49 Q1478 1882.82 1474.69 1883.52 Q1471.38 1884.22 1467.97 1884.22 Q1459.44 1884.22 1454.44 1879.26 Q1449.48 1874.29 1449.48 1865.83 Q1449.48 1857.07 1454.19 1851.95 Q1458.93 1846.79 1466.95 1846.79 Q1474.15 1846.79 1478.32 1851.44 Q1482.52 1856.06 1482.52 1864.01 M1476.66 1862.29 Q1476.6 1857.49 1473.96 1854.62 Q1471.35 1851.76 1467.02 1851.76 Q1462.12 1851.76 1459.16 1854.53 Q1456.23 1857.3 1455.78 1862.33 L1476.66 1862.29 Z" fill="#000000" fill-rule="nonzero" fill-opacity="1" /><polyline clip-path="url(#clip720)" style="stroke:#000000; stroke-linecap:round; stroke-linejoin:round; stroke-width:4; stroke-opacity:1; fill:none" points="210.238,1734.12 210.238,47.2441 "/>
<polyline clip-path="url(#clip720)" style="stroke:#000000; stroke-linecap:round; stroke-linejoin:round; stroke-width:4; stroke-opacity:1; fill:none" points="210.238,1690.94 229.135,1690.94 "/>
<polyline clip-path="url(#clip720)" style="stroke:#000000; stroke-linecap:round; stroke-linejoin:round; stroke-width:4; stroke-opacity:1; fill:none" points="210.238,1234.95 229.135,1234.95 "/>
<polyline clip-path="url(#clip720)" style="stroke:#000000; stroke-linecap:round; stroke-linejoin:round; stroke-width:4; stroke-opacity:1; fill:none" points="210.238,778.964 229.135,778.964 "/>
<polyline clip-path="url(#clip720)" style="stroke:#000000; stroke-linecap:round; stroke-linejoin:round; stroke-width:4; stroke-opacity:1; fill:none" points="210.238,322.979 229.135,322.979 "/>
<path clip-path="url(#clip720)" d="M157.973 1676.73 Q154.362 1676.73 152.534 1680.3 Q150.728 1683.84 150.728 1690.97 Q150.728 1698.08 152.534 1701.64 Q154.362 1705.18 157.973 1705.18 Q161.608 1705.18 163.413 1701.64 Q165.242 1698.08 165.242 1690.97 Q165.242 1683.84 163.413 1680.3 Q161.608 1676.73 157.973 1676.73 M157.973 1673.03 Q163.784 1673.03 166.839 1677.64 Q169.918 1682.22 169.918 1690.97 Q169.918 1699.7 166.839 1704.3 Q163.784 1708.89 157.973 1708.89 Q152.163 1708.89 149.085 1704.3 Q146.029 1699.7 146.029 1690.97 Q146.029 1682.22 149.085 1677.64 Q152.163 1673.03 157.973 1673.03 Z" fill="#000000" fill-rule="nonzero" fill-opacity="1" /><path clip-path="url(#clip720)" d="M118.622 1248.29 L126.261 1248.29 L126.261 1221.93 L117.951 1223.6 L117.951 1219.34 L126.214 1217.67 L130.89 1217.67 L130.89 1248.29 L138.529 1248.29 L138.529 1252.23 L118.622 1252.23 L118.622 1248.29 Z" fill="#000000" fill-rule="nonzero" fill-opacity="1" /><path clip-path="url(#clip720)" d="M157.973 1220.75 Q154.362 1220.75 152.534 1224.31 Q150.728 1227.85 150.728 1234.98 Q150.728 1242.09 152.534 1245.66 Q154.362 1249.2 157.973 1249.2 Q161.608 1249.2 163.413 1245.66 Q165.242 1242.09 165.242 1234.98 Q165.242 1227.85 163.413 1224.31 Q161.608 1220.75 157.973 1220.75 M157.973 1217.04 Q163.784 1217.04 166.839 1221.65 Q169.918 1226.23 169.918 1234.98 Q169.918 1243.71 166.839 1248.32 Q163.784 1252.9 157.973 1252.9 Q152.163 1252.9 149.085 1248.32 Q146.029 1243.71 146.029 1234.98 Q146.029 1226.23 149.085 1221.65 Q152.163 1217.04 157.973 1217.04 Z" fill="#000000" fill-rule="nonzero" fill-opacity="1" /><path clip-path="url(#clip720)" d="M121.839 792.309 L138.159 792.309 L138.159 796.244 L116.214 796.244 L116.214 792.309 Q118.876 789.554 123.46 784.925 Q128.066 780.272 129.247 778.929 Q131.492 776.406 132.372 774.67 Q133.275 772.911 133.275 771.221 Q133.275 768.466 131.33 766.73 Q129.409 764.994 126.307 764.994 Q124.108 764.994 121.654 765.758 Q119.224 766.522 116.446 768.073 L116.446 763.351 Q119.27 762.216 121.724 761.638 Q124.177 761.059 126.214 761.059 Q131.585 761.059 134.779 763.744 Q137.974 766.429 137.974 770.92 Q137.974 773.05 137.163 774.971 Q136.376 776.869 134.27 779.462 Q133.691 780.133 130.589 783.351 Q127.488 786.545 121.839 792.309 Z" fill="#000000" fill-rule="nonzero" fill-opacity="1" /><path clip-path="url(#clip720)" d="M157.973 764.763 Q154.362 764.763 152.534 768.328 Q150.728 771.869 150.728 778.999 Q150.728 786.105 152.534 789.67 Q154.362 793.212 157.973 793.212 Q161.608 793.212 163.413 789.67 Q165.242 786.105 165.242 778.999 Q165.242 771.869 163.413 768.328 Q161.608 764.763 157.973 764.763 M157.973 761.059 Q163.784 761.059 166.839 765.666 Q169.918 770.249 169.918 778.999 Q169.918 787.726 166.839 792.332 Q163.784 796.915 157.973 796.915 Q152.163 796.915 149.085 792.332 Q146.029 787.726 146.029 778.999 Q146.029 770.249 149.085 765.666 Q152.163 761.059 157.973 761.059 Z" fill="#000000" fill-rule="nonzero" fill-opacity="1" /><path clip-path="url(#clip720)" d="M131.978 321.624 Q135.335 322.342 137.21 324.61 Q139.108 326.879 139.108 330.212 Q139.108 335.328 135.589 338.129 Q132.071 340.93 125.589 340.93 Q123.413 340.93 121.099 340.49 Q118.807 340.073 116.353 339.217 L116.353 334.703 Q118.298 335.837 120.613 336.416 Q122.927 336.995 125.451 336.995 Q129.849 336.995 132.14 335.259 Q134.455 333.522 134.455 330.212 Q134.455 327.157 132.302 325.444 Q130.173 323.708 126.353 323.708 L122.326 323.708 L122.326 319.865 L126.538 319.865 Q129.988 319.865 131.816 318.499 Q133.645 317.111 133.645 314.518 Q133.645 311.856 131.747 310.444 Q129.872 309.009 126.353 309.009 Q124.432 309.009 122.233 309.425 Q120.034 309.842 117.395 310.722 L117.395 306.555 Q120.057 305.814 122.372 305.444 Q124.71 305.074 126.77 305.074 Q132.094 305.074 135.196 307.504 Q138.298 309.911 138.298 314.032 Q138.298 316.902 136.654 318.893 Q135.011 320.861 131.978 321.624 Z" fill="#000000" fill-rule="nonzero" fill-opacity="1" /><path clip-path="url(#clip720)" d="M157.973 308.777 Q154.362 308.777 152.534 312.342 Q150.728 315.884 150.728 323.013 Q150.728 330.12 152.534 333.685 Q154.362 337.226 157.973 337.226 Q161.608 337.226 163.413 333.685 Q165.242 330.12 165.242 323.013 Q165.242 315.884 163.413 312.342 Q161.608 308.777 157.973 308.777 M157.973 305.074 Q163.784 305.074 166.839 309.68 Q169.918 314.263 169.918 323.013 Q169.918 331.74 166.839 336.347 Q163.784 340.93 157.973 340.93 Q152.163 340.93 149.085 336.347 Q146.029 331.74 146.029 323.013 Q146.029 314.263 149.085 309.68 Q152.163 305.074 157.973 305.074 Z" fill="#000000" fill-rule="nonzero" fill-opacity="1" /><path clip-path="url(#clip720)" d="M25.9905 1008.72 L25.9905 1002.51 L55.9093 991.37 L25.9905 980.23 L25.9905 974.024 L61.6384 987.392 L61.6384 995.349 L25.9905 1008.72 Z" fill="#000000" fill-rule="nonzero" fill-opacity="1" /><path clip-path="url(#clip720)" d="M30.0964 952.126 Q30.0964 956.836 33.7885 959.573 Q37.4488 962.311 43.8463 962.311 Q50.2438 962.311 53.9359 959.605 Q57.5962 956.868 57.5962 952.126 Q57.5962 947.447 53.9041 944.709 Q50.212 941.972 43.8463 941.972 Q37.5124 941.972 33.8203 944.709 Q30.0964 947.447 30.0964 952.126 M25.1311 952.126 Q25.1311 944.487 30.0964 940.126 Q35.0616 935.766 43.8463 935.766 Q52.5991 935.766 57.5962 940.126 Q62.5615 944.487 62.5615 952.126 Q62.5615 959.796 57.5962 964.157 Q52.5991 968.485 43.8463 968.485 Q35.0616 968.485 30.0964 964.157 Q25.1311 959.796 25.1311 952.126 Z" fill="#000000" fill-rule="nonzero" fill-opacity="1" /><path clip-path="url(#clip720)" d="M12.1132 926.058 L12.1132 920.202 L61.6384 920.202 L61.6384 926.058 L12.1132 926.058 Z" fill="#000000" fill-rule="nonzero" fill-opacity="1" /><path clip-path="url(#clip720)" d="M47.5702 908.552 L25.9905 908.552 L25.9905 902.696 L47.3474 902.696 Q52.4082 902.696 54.9545 900.722 Q57.4689 898.749 57.4689 894.802 Q57.4689 890.06 54.4452 887.323 Q51.4215 884.554 46.2016 884.554 L25.9905 884.554 L25.9905 878.697 L61.6384 878.697 L61.6384 884.554 L56.1639 884.554 Q59.4104 886.686 61.0019 889.519 Q62.5615 892.32 62.5615 896.044 Q62.5615 902.187 58.742 905.369 Q54.9226 908.552 47.5702 908.552 M25.1311 893.816 L25.1311 893.816 Z" fill="#000000" fill-rule="nonzero" fill-opacity="1" /><path clip-path="url(#clip720)" d="M32.8336 838.88 Q28.8869 836.683 27.009 833.628 Q25.1311 830.572 25.1311 826.435 Q25.1311 820.865 29.046 817.841 Q32.9291 814.817 40.1224 814.817 L61.6384 814.817 L61.6384 820.706 L40.3133 820.706 Q35.1889 820.706 32.7063 822.52 Q30.2237 824.334 30.2237 828.058 Q30.2237 832.609 33.2474 835.251 Q36.2711 837.893 41.491 837.893 L61.6384 837.893 L61.6384 843.781 L40.3133 843.781 Q35.1571 843.781 32.7063 845.595 Q30.2237 847.41 30.2237 851.197 Q30.2237 855.685 33.2792 858.327 Q36.3029 860.969 41.491 860.969 L61.6384 860.969 L61.6384 866.857 L25.9905 866.857 L25.9905 860.969 L31.5287 860.969 Q28.2503 858.963 26.6907 856.162 Q25.1311 853.362 25.1311 849.51 Q25.1311 845.627 27.1045 842.922 Q29.0779 840.185 32.8336 838.88 Z" fill="#000000" fill-rule="nonzero" fill-opacity="1" /><path clip-path="url(#clip720)" d="M42.3504 772.644 L45.2149 772.644 L45.2149 799.571 Q51.2623 799.189 54.4452 795.943 Q57.5962 792.665 57.5962 786.84 Q57.5962 783.466 56.7687 780.315 Q55.9411 777.132 54.2861 774.013 L59.8242 774.013 Q61.161 777.164 61.8612 780.474 Q62.5615 783.784 62.5615 787.19 Q62.5615 795.72 57.5962 800.717 Q52.631 805.682 44.1646 805.682 Q35.4117 805.682 30.2873 800.972 Q25.1311 796.229 25.1311 788.209 Q25.1311 781.015 29.7781 776.846 Q34.3932 772.644 42.3504 772.644 M40.6316 778.501 Q35.8255 778.565 32.9609 781.206 Q30.0964 783.816 30.0964 788.145 Q30.0964 793.047 32.8654 796.007 Q35.6345 798.935 40.6634 799.38 L40.6316 778.501 Z" fill="#000000" fill-rule="nonzero" fill-opacity="1" /><circle clip-path="url(#clip722)" cx="279.026" cy="1686.38" r="14.4" fill="#009af9" fill-rule="evenodd" fill-opacity="1" stroke="#000000" stroke-opacity="1" stroke-width="3.84"/>
<circle clip-path="url(#clip722)" cx="363.95" cy="1686.38" r="14.4" fill="#009af9" fill-rule="evenodd" fill-opacity="1" stroke="#000000" stroke-opacity="1" stroke-width="3.84"/>
<circle clip-path="url(#clip722)" cx="448.874" cy="1686.38" r="14.4" fill="#009af9" fill-rule="evenodd" fill-opacity="1" stroke="#000000" stroke-opacity="1" stroke-width="3.84"/>
<circle clip-path="url(#clip722)" cx="533.797" cy="1686.38" r="14.4" fill="#009af9" fill-rule="evenodd" fill-opacity="1" stroke="#000000" stroke-opacity="1" stroke-width="3.84"/>
<circle clip-path="url(#clip722)" cx="533.797" cy="1663.58" r="14.4" fill="#009af9" fill-rule="evenodd" fill-opacity="1" stroke="#000000" stroke-opacity="1" stroke-width="3.84"/>
<circle clip-path="url(#clip722)" cx="618.721" cy="1668.14" r="14.4" fill="#009af9" fill-rule="evenodd" fill-opacity="1" stroke="#000000" stroke-opacity="1" stroke-width="3.84"/>
<circle clip-path="url(#clip722)" cx="618.721" cy="1668.14" r="14.4" fill="#009af9" fill-rule="evenodd" fill-opacity="1" stroke="#000000" stroke-opacity="1" stroke-width="3.84"/>
<circle clip-path="url(#clip722)" cx="618.721" cy="1645.34" r="14.4" fill="#009af9" fill-rule="evenodd" fill-opacity="1" stroke="#000000" stroke-opacity="1" stroke-width="3.84"/>
<circle clip-path="url(#clip722)" cx="618.721" cy="1622.54" r="14.4" fill="#009af9" fill-rule="evenodd" fill-opacity="1" stroke="#000000" stroke-opacity="1" stroke-width="3.84"/>
<circle clip-path="url(#clip722)" cx="618.721" cy="1613.42" r="14.4" fill="#009af9" fill-rule="evenodd" fill-opacity="1" stroke="#000000" stroke-opacity="1" stroke-width="3.84"/>
<circle clip-path="url(#clip722)" cx="618.721" cy="1535.9" r="14.4" fill="#009af9" fill-rule="evenodd" fill-opacity="1" stroke="#000000" stroke-opacity="1" stroke-width="3.84"/>
<circle clip-path="url(#clip722)" cx="703.645" cy="1622.54" r="14.4" fill="#009af9" fill-rule="evenodd" fill-opacity="1" stroke="#000000" stroke-opacity="1" stroke-width="3.84"/>
<circle clip-path="url(#clip722)" cx="703.645" cy="1586.06" r="14.4" fill="#009af9" fill-rule="evenodd" fill-opacity="1" stroke="#000000" stroke-opacity="1" stroke-width="3.84"/>
<circle clip-path="url(#clip722)" cx="703.645" cy="1563.26" r="14.4" fill="#009af9" fill-rule="evenodd" fill-opacity="1" stroke="#000000" stroke-opacity="1" stroke-width="3.84"/>
<circle clip-path="url(#clip722)" cx="703.645" cy="1508.54" r="14.4" fill="#009af9" fill-rule="evenodd" fill-opacity="1" stroke="#000000" stroke-opacity="1" stroke-width="3.84"/>
<circle clip-path="url(#clip722)" cx="703.645" cy="1485.74" r="14.4" fill="#009af9" fill-rule="evenodd" fill-opacity="1" stroke="#000000" stroke-opacity="1" stroke-width="3.84"/>
<circle clip-path="url(#clip722)" cx="788.569" cy="1636.22" r="14.4" fill="#009af9" fill-rule="evenodd" fill-opacity="1" stroke="#000000" stroke-opacity="1" stroke-width="3.84"/>
<circle clip-path="url(#clip722)" cx="788.569" cy="1604.3" r="14.4" fill="#009af9" fill-rule="evenodd" fill-opacity="1" stroke="#000000" stroke-opacity="1" stroke-width="3.84"/>
<circle clip-path="url(#clip722)" cx="788.569" cy="1572.38" r="14.4" fill="#009af9" fill-rule="evenodd" fill-opacity="1" stroke="#000000" stroke-opacity="1" stroke-width="3.84"/>
<circle clip-path="url(#clip722)" cx="788.569" cy="1545.02" r="14.4" fill="#009af9" fill-rule="evenodd" fill-opacity="1" stroke="#000000" stroke-opacity="1" stroke-width="3.84"/>
<circle clip-path="url(#clip722)" cx="788.569" cy="1508.54" r="14.4" fill="#009af9" fill-rule="evenodd" fill-opacity="1" stroke="#000000" stroke-opacity="1" stroke-width="3.84"/>
<circle clip-path="url(#clip722)" cx="788.569" cy="1476.62" r="14.4" fill="#009af9" fill-rule="evenodd" fill-opacity="1" stroke="#000000" stroke-opacity="1" stroke-width="3.84"/>
<circle clip-path="url(#clip722)" cx="788.569" cy="1408.22" r="14.4" fill="#009af9" fill-rule="evenodd" fill-opacity="1" stroke="#000000" stroke-opacity="1" stroke-width="3.84"/>
<circle clip-path="url(#clip722)" cx="873.492" cy="1617.98" r="14.4" fill="#009af9" fill-rule="evenodd" fill-opacity="1" stroke="#000000" stroke-opacity="1" stroke-width="3.84"/>
<circle clip-path="url(#clip722)" cx="873.492" cy="1595.18" r="14.4" fill="#009af9" fill-rule="evenodd" fill-opacity="1" stroke="#000000" stroke-opacity="1" stroke-width="3.84"/>
<circle clip-path="url(#clip722)" cx="873.492" cy="1581.5" r="14.4" fill="#009af9" fill-rule="evenodd" fill-opacity="1" stroke="#000000" stroke-opacity="1" stroke-width="3.84"/>
<circle clip-path="url(#clip722)" cx="873.492" cy="1558.7" r="14.4" fill="#009af9" fill-rule="evenodd" fill-opacity="1" stroke="#000000" stroke-opacity="1" stroke-width="3.84"/>
<circle clip-path="url(#clip722)" cx="873.492" cy="1526.78" r="14.4" fill="#009af9" fill-rule="evenodd" fill-opacity="1" stroke="#000000" stroke-opacity="1" stroke-width="3.84"/>
<circle clip-path="url(#clip722)" cx="873.492" cy="1508.54" r="14.4" fill="#009af9" fill-rule="evenodd" fill-opacity="1" stroke="#000000" stroke-opacity="1" stroke-width="3.84"/>
<circle clip-path="url(#clip722)" cx="873.492" cy="1494.86" r="14.4" fill="#009af9" fill-rule="evenodd" fill-opacity="1" stroke="#000000" stroke-opacity="1" stroke-width="3.84"/>
<circle clip-path="url(#clip722)" cx="873.492" cy="1472.06" r="14.4" fill="#009af9" fill-rule="evenodd" fill-opacity="1" stroke="#000000" stroke-opacity="1" stroke-width="3.84"/>
<circle clip-path="url(#clip722)" cx="873.492" cy="1417.34" r="14.4" fill="#009af9" fill-rule="evenodd" fill-opacity="1" stroke="#000000" stroke-opacity="1" stroke-width="3.84"/>
<circle clip-path="url(#clip722)" cx="873.492" cy="1412.78" r="14.4" fill="#009af9" fill-rule="evenodd" fill-opacity="1" stroke="#000000" stroke-opacity="1" stroke-width="3.84"/>
<circle clip-path="url(#clip722)" cx="873.492" cy="1348.95" r="14.4" fill="#009af9" fill-rule="evenodd" fill-opacity="1" stroke="#000000" stroke-opacity="1" stroke-width="3.84"/>
<circle clip-path="url(#clip722)" cx="958.416" cy="1567.82" r="14.4" fill="#009af9" fill-rule="evenodd" fill-opacity="1" stroke="#000000" stroke-opacity="1" stroke-width="3.84"/>
<circle clip-path="url(#clip722)" cx="958.416" cy="1535.9" r="14.4" fill="#009af9" fill-rule="evenodd" fill-opacity="1" stroke="#000000" stroke-opacity="1" stroke-width="3.84"/>
<circle clip-path="url(#clip722)" cx="958.416" cy="1508.54" r="14.4" fill="#009af9" fill-rule="evenodd" fill-opacity="1" stroke="#000000" stroke-opacity="1" stroke-width="3.84"/>
<circle clip-path="url(#clip722)" cx="958.416" cy="1490.3" r="14.4" fill="#009af9" fill-rule="evenodd" fill-opacity="1" stroke="#000000" stroke-opacity="1" stroke-width="3.84"/>
<circle clip-path="url(#clip722)" cx="958.416" cy="1472.06" r="14.4" fill="#009af9" fill-rule="evenodd" fill-opacity="1" stroke="#000000" stroke-opacity="1" stroke-width="3.84"/>
<circle clip-path="url(#clip722)" cx="958.416" cy="1453.82" r="14.4" fill="#009af9" fill-rule="evenodd" fill-opacity="1" stroke="#000000" stroke-opacity="1" stroke-width="3.84"/>
<circle clip-path="url(#clip722)" cx="958.416" cy="1440.14" r="14.4" fill="#009af9" fill-rule="evenodd" fill-opacity="1" stroke="#000000" stroke-opacity="1" stroke-width="3.84"/>
<circle clip-path="url(#clip722)" cx="958.416" cy="1426.46" r="14.4" fill="#009af9" fill-rule="evenodd" fill-opacity="1" stroke="#000000" stroke-opacity="1" stroke-width="3.84"/>
<circle clip-path="url(#clip722)" cx="958.416" cy="1408.22" r="14.4" fill="#009af9" fill-rule="evenodd" fill-opacity="1" stroke="#000000" stroke-opacity="1" stroke-width="3.84"/>
<circle clip-path="url(#clip722)" cx="958.416" cy="1371.75" r="14.4" fill="#009af9" fill-rule="evenodd" fill-opacity="1" stroke="#000000" stroke-opacity="1" stroke-width="3.84"/>
<circle clip-path="url(#clip722)" cx="958.416" cy="1307.91" r="14.4" fill="#009af9" fill-rule="evenodd" fill-opacity="1" stroke="#000000" stroke-opacity="1" stroke-width="3.84"/>
<circle clip-path="url(#clip722)" cx="958.416" cy="1244.07" r="14.4" fill="#009af9" fill-rule="evenodd" fill-opacity="1" stroke="#000000" stroke-opacity="1" stroke-width="3.84"/>
<circle clip-path="url(#clip722)" cx="958.416" cy="1225.83" r="14.4" fill="#009af9" fill-rule="evenodd" fill-opacity="1" stroke="#000000" stroke-opacity="1" stroke-width="3.84"/>
<circle clip-path="url(#clip722)" cx="1043.34" cy="1535.9" r="14.4" fill="#009af9" fill-rule="evenodd" fill-opacity="1" stroke="#000000" stroke-opacity="1" stroke-width="3.84"/>
<circle clip-path="url(#clip722)" cx="1043.34" cy="1513.1" r="14.4" fill="#009af9" fill-rule="evenodd" fill-opacity="1" stroke="#000000" stroke-opacity="1" stroke-width="3.84"/>
<circle clip-path="url(#clip722)" cx="1043.34" cy="1476.62" r="14.4" fill="#009af9" fill-rule="evenodd" fill-opacity="1" stroke="#000000" stroke-opacity="1" stroke-width="3.84"/>
<circle clip-path="url(#clip722)" cx="1043.34" cy="1435.58" r="14.4" fill="#009af9" fill-rule="evenodd" fill-opacity="1" stroke="#000000" stroke-opacity="1" stroke-width="3.84"/>
<circle clip-path="url(#clip722)" cx="1043.34" cy="1408.22" r="14.4" fill="#009af9" fill-rule="evenodd" fill-opacity="1" stroke="#000000" stroke-opacity="1" stroke-width="3.84"/>
<circle clip-path="url(#clip722)" cx="1043.34" cy="1335.27" r="14.4" fill="#009af9" fill-rule="evenodd" fill-opacity="1" stroke="#000000" stroke-opacity="1" stroke-width="3.84"/>
<circle clip-path="url(#clip722)" cx="1043.34" cy="1312.47" r="14.4" fill="#009af9" fill-rule="evenodd" fill-opacity="1" stroke="#000000" stroke-opacity="1" stroke-width="3.84"/>
<circle clip-path="url(#clip722)" cx="1043.34" cy="1266.87" r="14.4" fill="#009af9" fill-rule="evenodd" fill-opacity="1" stroke="#000000" stroke-opacity="1" stroke-width="3.84"/>
<circle clip-path="url(#clip722)" cx="1128.26" cy="1531.34" r="14.4" fill="#009af9" fill-rule="evenodd" fill-opacity="1" stroke="#000000" stroke-opacity="1" stroke-width="3.84"/>
<circle clip-path="url(#clip722)" cx="1128.26" cy="1508.54" r="14.4" fill="#009af9" fill-rule="evenodd" fill-opacity="1" stroke="#000000" stroke-opacity="1" stroke-width="3.84"/>
<circle clip-path="url(#clip722)" cx="1128.26" cy="1481.18" r="14.4" fill="#009af9" fill-rule="evenodd" fill-opacity="1" stroke="#000000" stroke-opacity="1" stroke-width="3.84"/>
<circle clip-path="url(#clip722)" cx="1128.26" cy="1435.58" r="14.4" fill="#009af9" fill-rule="evenodd" fill-opacity="1" stroke="#000000" stroke-opacity="1" stroke-width="3.84"/>
<circle clip-path="url(#clip722)" cx="1128.26" cy="1412.78" r="14.4" fill="#009af9" fill-rule="evenodd" fill-opacity="1" stroke="#000000" stroke-opacity="1" stroke-width="3.84"/>
<circle clip-path="url(#clip722)" cx="1128.26" cy="1376.31" r="14.4" fill="#009af9" fill-rule="evenodd" fill-opacity="1" stroke="#000000" stroke-opacity="1" stroke-width="3.84"/>
<circle clip-path="url(#clip722)" cx="1128.26" cy="1358.07" r="14.4" fill="#009af9" fill-rule="evenodd" fill-opacity="1" stroke="#000000" stroke-opacity="1" stroke-width="3.84"/>
<circle clip-path="url(#clip722)" cx="1128.26" cy="1307.91" r="14.4" fill="#009af9" fill-rule="evenodd" fill-opacity="1" stroke="#000000" stroke-opacity="1" stroke-width="3.84"/>
<circle clip-path="url(#clip722)" cx="1128.26" cy="1266.87" r="14.4" fill="#009af9" fill-rule="evenodd" fill-opacity="1" stroke="#000000" stroke-opacity="1" stroke-width="3.84"/>
<circle clip-path="url(#clip722)" cx="1128.26" cy="1203.03" r="14.4" fill="#009af9" fill-rule="evenodd" fill-opacity="1" stroke="#000000" stroke-opacity="1" stroke-width="3.84"/>
<circle clip-path="url(#clip722)" cx="1213.19" cy="1303.35" r="14.4" fill="#009af9" fill-rule="evenodd" fill-opacity="1" stroke="#000000" stroke-opacity="1" stroke-width="3.84"/>
<circle clip-path="url(#clip722)" cx="1213.19" cy="1225.83" r="14.4" fill="#009af9" fill-rule="evenodd" fill-opacity="1" stroke="#000000" stroke-opacity="1" stroke-width="3.84"/>
<circle clip-path="url(#clip722)" cx="1213.19" cy="1198.47" r="14.4" fill="#009af9" fill-rule="evenodd" fill-opacity="1" stroke="#000000" stroke-opacity="1" stroke-width="3.84"/>
<circle clip-path="url(#clip722)" cx="1213.19" cy="1111.83" r="14.4" fill="#009af9" fill-rule="evenodd" fill-opacity="1" stroke="#000000" stroke-opacity="1" stroke-width="3.84"/>
<circle clip-path="url(#clip722)" cx="1213.19" cy="1061.68" r="14.4" fill="#009af9" fill-rule="evenodd" fill-opacity="1" stroke="#000000" stroke-opacity="1" stroke-width="3.84"/>
<circle clip-path="url(#clip722)" cx="1213.19" cy="1006.96" r="14.4" fill="#009af9" fill-rule="evenodd" fill-opacity="1" stroke="#000000" stroke-opacity="1" stroke-width="3.84"/>
<circle clip-path="url(#clip722)" cx="1298.11" cy="1321.59" r="14.4" fill="#009af9" fill-rule="evenodd" fill-opacity="1" stroke="#000000" stroke-opacity="1" stroke-width="3.84"/>
<circle clip-path="url(#clip722)" cx="1298.11" cy="1285.11" r="14.4" fill="#009af9" fill-rule="evenodd" fill-opacity="1" stroke="#000000" stroke-opacity="1" stroke-width="3.84"/>
<circle clip-path="url(#clip722)" cx="1298.11" cy="1221.27" r="14.4" fill="#009af9" fill-rule="evenodd" fill-opacity="1" stroke="#000000" stroke-opacity="1" stroke-width="3.84"/>
<circle clip-path="url(#clip722)" cx="1298.11" cy="1157.43" r="14.4" fill="#009af9" fill-rule="evenodd" fill-opacity="1" stroke="#000000" stroke-opacity="1" stroke-width="3.84"/>
<circle clip-path="url(#clip722)" cx="1298.11" cy="1134.63" r="14.4" fill="#009af9" fill-rule="evenodd" fill-opacity="1" stroke="#000000" stroke-opacity="1" stroke-width="3.84"/>
<circle clip-path="url(#clip722)" cx="1298.11" cy="1089.03" r="14.4" fill="#009af9" fill-rule="evenodd" fill-opacity="1" stroke="#000000" stroke-opacity="1" stroke-width="3.84"/>
<circle clip-path="url(#clip722)" cx="1383.04" cy="1266.87" r="14.4" fill="#009af9" fill-rule="evenodd" fill-opacity="1" stroke="#000000" stroke-opacity="1" stroke-width="3.84"/>
<circle clip-path="url(#clip722)" cx="1383.04" cy="1221.27" r="14.4" fill="#009af9" fill-rule="evenodd" fill-opacity="1" stroke="#000000" stroke-opacity="1" stroke-width="3.84"/>
<circle clip-path="url(#clip722)" cx="1383.04" cy="1125.51" r="14.4" fill="#009af9" fill-rule="evenodd" fill-opacity="1" stroke="#000000" stroke-opacity="1" stroke-width="3.84"/>
<circle clip-path="url(#clip722)" cx="1467.96" cy="1171.11" r="14.4" fill="#009af9" fill-rule="evenodd" fill-opacity="1" stroke="#000000" stroke-opacity="1" stroke-width="3.84"/>
<circle clip-path="url(#clip722)" cx="1467.96" cy="1134.63" r="14.4" fill="#009af9" fill-rule="evenodd" fill-opacity="1" stroke="#000000" stroke-opacity="1" stroke-width="3.84"/>
<circle clip-path="url(#clip722)" cx="1467.96" cy="1079.91" r="14.4" fill="#009af9" fill-rule="evenodd" fill-opacity="1" stroke="#000000" stroke-opacity="1" stroke-width="3.84"/>
<circle clip-path="url(#clip722)" cx="1467.96" cy="1066.23" r="14.4" fill="#009af9" fill-rule="evenodd" fill-opacity="1" stroke="#000000" stroke-opacity="1" stroke-width="3.84"/>
<circle clip-path="url(#clip722)" cx="1467.96" cy="1038.88" r="14.4" fill="#009af9" fill-rule="evenodd" fill-opacity="1" stroke="#000000" stroke-opacity="1" stroke-width="3.84"/>
<circle clip-path="url(#clip722)" cx="1467.96" cy="984.158" r="14.4" fill="#009af9" fill-rule="evenodd" fill-opacity="1" stroke="#000000" stroke-opacity="1" stroke-width="3.84"/>
<circle clip-path="url(#clip722)" cx="1467.96" cy="952.239" r="14.4" fill="#009af9" fill-rule="evenodd" fill-opacity="1" stroke="#000000" stroke-opacity="1" stroke-width="3.84"/>
<circle clip-path="url(#clip722)" cx="1467.96" cy="924.879" r="14.4" fill="#009af9" fill-rule="evenodd" fill-opacity="1" stroke="#000000" stroke-opacity="1" stroke-width="3.84"/>
<circle clip-path="url(#clip722)" cx="1552.88" cy="1134.63" r="14.4" fill="#009af9" fill-rule="evenodd" fill-opacity="1" stroke="#000000" stroke-opacity="1" stroke-width="3.84"/>
<circle clip-path="url(#clip722)" cx="1552.88" cy="1125.51" r="14.4" fill="#009af9" fill-rule="evenodd" fill-opacity="1" stroke="#000000" stroke-opacity="1" stroke-width="3.84"/>
<circle clip-path="url(#clip722)" cx="1552.88" cy="1089.03" r="14.4" fill="#009af9" fill-rule="evenodd" fill-opacity="1" stroke="#000000" stroke-opacity="1" stroke-width="3.84"/>
<circle clip-path="url(#clip722)" cx="1552.88" cy="924.879" r="14.4" fill="#009af9" fill-rule="evenodd" fill-opacity="1" stroke="#000000" stroke-opacity="1" stroke-width="3.84"/>
<circle clip-path="url(#clip722)" cx="1552.88" cy="733.366" r="14.4" fill="#009af9" fill-rule="evenodd" fill-opacity="1" stroke="#000000" stroke-opacity="1" stroke-width="3.84"/>
<circle clip-path="url(#clip722)" cx="1552.88" cy="436.975" r="14.4" fill="#009af9" fill-rule="evenodd" fill-opacity="1" stroke="#000000" stroke-opacity="1" stroke-width="3.84"/>
<circle clip-path="url(#clip722)" cx="1637.81" cy="1180.23" r="14.4" fill="#009af9" fill-rule="evenodd" fill-opacity="1" stroke="#000000" stroke-opacity="1" stroke-width="3.84"/>
<circle clip-path="url(#clip722)" cx="1637.81" cy="1098.15" r="14.4" fill="#009af9" fill-rule="evenodd" fill-opacity="1" stroke="#000000" stroke-opacity="1" stroke-width="3.84"/>
<circle clip-path="url(#clip722)" cx="1637.81" cy="1002.4" r="14.4" fill="#009af9" fill-rule="evenodd" fill-opacity="1" stroke="#000000" stroke-opacity="1" stroke-width="3.84"/>
<circle clip-path="url(#clip722)" cx="1637.81" cy="984.158" r="14.4" fill="#009af9" fill-rule="evenodd" fill-opacity="1" stroke="#000000" stroke-opacity="1" stroke-width="3.84"/>
<circle clip-path="url(#clip722)" cx="1637.81" cy="915.76" r="14.4" fill="#009af9" fill-rule="evenodd" fill-opacity="1" stroke="#000000" stroke-opacity="1" stroke-width="3.84"/>
<circle clip-path="url(#clip722)" cx="1722.73" cy="1303.35" r="14.4" fill="#009af9" fill-rule="evenodd" fill-opacity="1" stroke="#000000" stroke-opacity="1" stroke-width="3.84"/>
<circle clip-path="url(#clip722)" cx="1722.73" cy="1157.43" r="14.4" fill="#009af9" fill-rule="evenodd" fill-opacity="1" stroke="#000000" stroke-opacity="1" stroke-width="3.84"/>
<circle clip-path="url(#clip722)" cx="1722.73" cy="924.879" r="14.4" fill="#009af9" fill-rule="evenodd" fill-opacity="1" stroke="#000000" stroke-opacity="1" stroke-width="3.84"/>
<circle clip-path="url(#clip722)" cx="1722.73" cy="596.57" r="14.4" fill="#009af9" fill-rule="evenodd" fill-opacity="1" stroke="#000000" stroke-opacity="1" stroke-width="3.84"/>
<circle clip-path="url(#clip722)" cx="1807.65" cy="1134.63" r="14.4" fill="#009af9" fill-rule="evenodd" fill-opacity="1" stroke="#000000" stroke-opacity="1" stroke-width="3.84"/>
<circle clip-path="url(#clip722)" cx="1807.65" cy="965.918" r="14.4" fill="#009af9" fill-rule="evenodd" fill-opacity="1" stroke="#000000" stroke-opacity="1" stroke-width="3.84"/>
<circle clip-path="url(#clip722)" cx="1807.65" cy="952.239" r="14.4" fill="#009af9" fill-rule="evenodd" fill-opacity="1" stroke="#000000" stroke-opacity="1" stroke-width="3.84"/>
<circle clip-path="url(#clip722)" cx="1807.65" cy="933.999" r="14.4" fill="#009af9" fill-rule="evenodd" fill-opacity="1" stroke="#000000" stroke-opacity="1" stroke-width="3.84"/>
<circle clip-path="url(#clip722)" cx="1807.65" cy="865.601" r="14.4" fill="#009af9" fill-rule="evenodd" fill-opacity="1" stroke="#000000" stroke-opacity="1" stroke-width="3.84"/>
<circle clip-path="url(#clip722)" cx="1807.65" cy="833.682" r="14.4" fill="#009af9" fill-rule="evenodd" fill-opacity="1" stroke="#000000" stroke-opacity="1" stroke-width="3.84"/>
<circle clip-path="url(#clip722)" cx="1807.65" cy="806.323" r="14.4" fill="#009af9" fill-rule="evenodd" fill-opacity="1" stroke="#000000" stroke-opacity="1" stroke-width="3.84"/>
<circle clip-path="url(#clip722)" cx="1807.65" cy="783.524" r="14.4" fill="#009af9" fill-rule="evenodd" fill-opacity="1" stroke="#000000" stroke-opacity="1" stroke-width="3.84"/>
<circle clip-path="url(#clip722)" cx="1807.65" cy="514.492" r="14.4" fill="#009af9" fill-rule="evenodd" fill-opacity="1" stroke="#000000" stroke-opacity="1" stroke-width="3.84"/>
<circle clip-path="url(#clip722)" cx="1892.58" cy="478.014" r="14.4" fill="#009af9" fill-rule="evenodd" fill-opacity="1" stroke="#000000" stroke-opacity="1" stroke-width="3.84"/>
<circle clip-path="url(#clip722)" cx="1892.58" cy="587.45" r="14.4" fill="#009af9" fill-rule="evenodd" fill-opacity="1" stroke="#000000" stroke-opacity="1" stroke-width="3.84"/>
<circle clip-path="url(#clip722)" cx="1892.58" cy="728.806" r="14.4" fill="#009af9" fill-rule="evenodd" fill-opacity="1" stroke="#000000" stroke-opacity="1" stroke-width="3.84"/>
<circle clip-path="url(#clip722)" cx="1892.58" cy="737.925" r="14.4" fill="#009af9" fill-rule="evenodd" fill-opacity="1" stroke="#000000" stroke-opacity="1" stroke-width="3.84"/>
<circle clip-path="url(#clip722)" cx="1892.58" cy="920.32" r="14.4" fill="#009af9" fill-rule="evenodd" fill-opacity="1" stroke="#000000" stroke-opacity="1" stroke-width="3.84"/>
<circle clip-path="url(#clip722)" cx="1892.58" cy="993.277" r="14.4" fill="#009af9" fill-rule="evenodd" fill-opacity="1" stroke="#000000" stroke-opacity="1" stroke-width="3.84"/>
<circle clip-path="url(#clip722)" cx="1892.58" cy="1016.08" r="14.4" fill="#009af9" fill-rule="evenodd" fill-opacity="1" stroke="#000000" stroke-opacity="1" stroke-width="3.84"/>
<circle clip-path="url(#clip722)" cx="1892.58" cy="1184.79" r="14.4" fill="#009af9" fill-rule="evenodd" fill-opacity="1" stroke="#000000" stroke-opacity="1" stroke-width="3.84"/>
<circle clip-path="url(#clip722)" cx="1977.5" cy="1221.27" r="14.4" fill="#009af9" fill-rule="evenodd" fill-opacity="1" stroke="#000000" stroke-opacity="1" stroke-width="3.84"/>
<circle clip-path="url(#clip722)" cx="1977.5" cy="988.717" r="14.4" fill="#009af9" fill-rule="evenodd" fill-opacity="1" stroke="#000000" stroke-opacity="1" stroke-width="3.84"/>
<circle clip-path="url(#clip722)" cx="1977.5" cy="861.041" r="14.4" fill="#009af9" fill-rule="evenodd" fill-opacity="1" stroke="#000000" stroke-opacity="1" stroke-width="3.84"/>
<circle clip-path="url(#clip722)" cx="1977.5" cy="806.323" r="14.4" fill="#009af9" fill-rule="evenodd" fill-opacity="1" stroke="#000000" stroke-opacity="1" stroke-width="3.84"/>
<circle clip-path="url(#clip722)" cx="1977.5" cy="792.644" r="14.4" fill="#009af9" fill-rule="evenodd" fill-opacity="1" stroke="#000000" stroke-opacity="1" stroke-width="3.84"/>
<circle clip-path="url(#clip722)" cx="1977.5" cy="601.13" r="14.4" fill="#009af9" fill-rule="evenodd" fill-opacity="1" stroke="#000000" stroke-opacity="1" stroke-width="3.84"/>
<circle clip-path="url(#clip722)" cx="1977.5" cy="327.538" r="14.4" fill="#009af9" fill-rule="evenodd" fill-opacity="1" stroke="#000000" stroke-opacity="1" stroke-width="3.84"/>
<circle clip-path="url(#clip722)" cx="2062.43" cy="924.879" r="14.4" fill="#009af9" fill-rule="evenodd" fill-opacity="1" stroke="#000000" stroke-opacity="1" stroke-width="3.84"/>
<circle clip-path="url(#clip722)" cx="2062.43" cy="824.563" r="14.4" fill="#009af9" fill-rule="evenodd" fill-opacity="1" stroke="#000000" stroke-opacity="1" stroke-width="3.84"/>
<circle clip-path="url(#clip722)" cx="2062.43" cy="701.447" r="14.4" fill="#009af9" fill-rule="evenodd" fill-opacity="1" stroke="#000000" stroke-opacity="1" stroke-width="3.84"/>
<circle clip-path="url(#clip722)" cx="2062.43" cy="669.528" r="14.4" fill="#009af9" fill-rule="evenodd" fill-opacity="1" stroke="#000000" stroke-opacity="1" stroke-width="3.84"/>
<circle clip-path="url(#clip722)" cx="2147.35" cy="701.447" r="14.4" fill="#009af9" fill-rule="evenodd" fill-opacity="1" stroke="#000000" stroke-opacity="1" stroke-width="3.84"/>
<circle clip-path="url(#clip722)" cx="2147.35" cy="601.13" r="14.4" fill="#009af9" fill-rule="evenodd" fill-opacity="1" stroke="#000000" stroke-opacity="1" stroke-width="3.84"/>
<circle clip-path="url(#clip722)" cx="2147.35" cy="596.57" r="14.4" fill="#009af9" fill-rule="evenodd" fill-opacity="1" stroke="#000000" stroke-opacity="1" stroke-width="3.84"/>
<circle clip-path="url(#clip722)" cx="2147.35" cy="514.492" r="14.4" fill="#009af9" fill-rule="evenodd" fill-opacity="1" stroke="#000000" stroke-opacity="1" stroke-width="3.84"/>
<circle clip-path="url(#clip722)" cx="2147.35" cy="291.06" r="14.4" fill="#009af9" fill-rule="evenodd" fill-opacity="1" stroke="#000000" stroke-opacity="1" stroke-width="3.84"/>
<circle clip-path="url(#clip722)" cx="2232.27" cy="669.528" r="14.4" fill="#009af9" fill-rule="evenodd" fill-opacity="1" stroke="#000000" stroke-opacity="1" stroke-width="3.84"/>
<circle clip-path="url(#clip722)" cx="2317.2" cy="628.489" r="14.4" fill="#009af9" fill-rule="evenodd" fill-opacity="1" stroke="#000000" stroke-opacity="1" stroke-width="3.84"/>
<circle clip-path="url(#clip722)" cx="2317.2" cy="364.017" r="14.4" fill="#009af9" fill-rule="evenodd" fill-opacity="1" stroke="#000000" stroke-opacity="1" stroke-width="3.84"/>
<circle clip-path="url(#clip722)" cx="2402.12" cy="733.366" r="14.4" fill="#009af9" fill-rule="evenodd" fill-opacity="1" stroke="#000000" stroke-opacity="1" stroke-width="3.84"/>
<circle clip-path="url(#clip722)" cx="2487.04" cy="94.9858" r="14.4" fill="#009af9" fill-rule="evenodd" fill-opacity="1" stroke="#000000" stroke-opacity="1" stroke-width="3.84"/>
<circle clip-path="url(#clip722)" cx="2571.97" cy="701.447" r="14.4" fill="#009af9" fill-rule="evenodd" fill-opacity="1" stroke="#000000" stroke-opacity="1" stroke-width="3.84"/>
</svg>
