<?xml version="1.0" encoding="utf-8"?>
<svg xmlns="http://www.w3.org/2000/svg" xmlns:xlink="http://www.w3.org/1999/xlink" width="672" height="480" viewBox="0 0 2688 1920">
<defs>
  <clipPath id="clip780">
    <rect x="0" y="0" width="2688" height="1920"/>
  </clipPath>
</defs>
<path clip-path="url(#clip780)" d="M0 1920 L2688 1920 L2688 -4.26326e-14 L0 -4.26326e-14  Z" fill="#ffffff" fill-rule="evenodd" fill-opacity="1"/>
<defs>
  <clipPath id="clip781">
    <rect x="537" y="0" width="1883" height="1883"/>
  </clipPath>
</defs>
<path clip-path="url(#clip780)" d="M181.719 1734.12 L2640.76 1734.12 L2640.76 47.2441 L181.719 47.2441  Z" fill="#ffffff" fill-rule="evenodd" fill-opacity="1"/>
<defs>
  <clipPath id="clip782">
    <rect x="181" y="47" width="2460" height="1688"/>
  </clipPath>
</defs>
<polyline clip-path="url(#clip782)" style="stroke:#000000; stroke-linecap:round; stroke-linejoin:round; stroke-width:2; stroke-opacity:0.1; fill:none" points="594.996,1734.12 594.996,47.2441 "/>
<polyline clip-path="url(#clip782)" style="stroke:#000000; stroke-linecap:round; stroke-linejoin:round; stroke-width:2; stroke-opacity:0.1; fill:none" points="1024.6,1734.12 1024.6,47.2441 "/>
<polyline clip-path="url(#clip782)" style="stroke:#000000; stroke-linecap:round; stroke-linejoin:round; stroke-width:2; stroke-opacity:0.1; fill:none" points="1454.2,1734.12 1454.2,47.2441 "/>
<polyline clip-path="url(#clip782)" style="stroke:#000000; stroke-linecap:round; stroke-linejoin:round; stroke-width:2; stroke-opacity:0.1; fill:none" points="1883.8,1734.12 1883.8,47.2441 "/>
<polyline clip-path="url(#clip782)" style="stroke:#000000; stroke-linecap:round; stroke-linejoin:round; stroke-width:2; stroke-opacity:0.1; fill:none" points="2313.4,1734.12 2313.4,47.2441 "/>
<polyline clip-path="url(#clip782)" style="stroke:#000000; stroke-linecap:round; stroke-linejoin:round; stroke-width:2; stroke-opacity:0.1; fill:none" points="181.719,1492.06 2640.76,1492.06 "/>
<polyline clip-path="url(#clip782)" style="stroke:#000000; stroke-linecap:round; stroke-linejoin:round; stroke-width:2; stroke-opacity:0.1; fill:none" points="181.719,1207.87 2640.76,1207.87 "/>
<polyline clip-path="url(#clip782)" style="stroke:#000000; stroke-linecap:round; stroke-linejoin:round; stroke-width:2; stroke-opacity:0.1; fill:none" points="181.719,923.69 2640.76,923.69 "/>
<polyline clip-path="url(#clip782)" style="stroke:#000000; stroke-linecap:round; stroke-linejoin:round; stroke-width:2; stroke-opacity:0.1; fill:none" points="181.719,639.505 2640.76,639.505 "/>
<polyline clip-path="url(#clip782)" style="stroke:#000000; stroke-linecap:round; stroke-linejoin:round; stroke-width:2; stroke-opacity:0.1; fill:none" points="181.719,355.321 2640.76,355.321 "/>
<polyline clip-path="url(#clip782)" style="stroke:#000000; stroke-linecap:round; stroke-linejoin:round; stroke-width:2; stroke-opacity:0.1; fill:none" points="181.719,71.137 2640.76,71.137 "/>
<polyline clip-path="url(#clip780)" style="stroke:#000000; stroke-linecap:round; stroke-linejoin:round; stroke-width:4; stroke-opacity:1; fill:none" points="181.719,1734.12 2640.76,1734.12 "/>
<polyline clip-path="url(#clip780)" style="stroke:#000000; stroke-linecap:round; stroke-linejoin:round; stroke-width:4; stroke-opacity:1; fill:none" points="594.996,1734.12 594.996,1715.22 "/>
<polyline clip-path="url(#clip780)" style="stroke:#000000; stroke-linecap:round; stroke-linejoin:round; stroke-width:4; stroke-opacity:1; fill:none" points="1024.6,1734.12 1024.6,1715.22 "/>
<polyline clip-path="url(#clip780)" style="stroke:#000000; stroke-linecap:round; stroke-linejoin:round; stroke-width:4; stroke-opacity:1; fill:none" points="1454.2,1734.12 1454.2,1715.22 "/>
<polyline clip-path="url(#clip780)" style="stroke:#000000; stroke-linecap:round; stroke-linejoin:round; stroke-width:4; stroke-opacity:1; fill:none" points="1883.8,1734.12 1883.8,1715.22 "/>
<polyline clip-path="url(#clip780)" style="stroke:#000000; stroke-linecap:round; stroke-linejoin:round; stroke-width:4; stroke-opacity:1; fill:none" points="2313.4,1734.12 2313.4,1715.22 "/>
<path clip-path="url(#clip780)" d="M585.274 1764.26 L603.63 1764.26 L603.63 1768.2 L589.556 1768.2 L589.556 1776.67 Q590.574 1776.32 591.593 1776.16 Q592.611 1775.97 593.63 1775.97 Q599.417 1775.97 602.797 1779.15 Q606.176 1782.32 606.176 1787.73 Q606.176 1793.31 602.704 1796.41 Q599.232 1799.49 592.912 1799.49 Q590.736 1799.49 588.468 1799.12 Q586.223 1798.75 583.815 1798.01 L583.815 1793.31 Q585.899 1794.45 588.121 1795 Q590.343 1795.56 592.82 1795.56 Q596.824 1795.56 599.162 1793.45 Q601.5 1791.34 601.5 1787.73 Q601.5 1784.12 599.162 1782.02 Q596.824 1779.91 592.82 1779.91 Q590.945 1779.91 589.07 1780.33 Q587.218 1780.74 585.274 1781.62 L585.274 1764.26 Z" fill="#000000" fill-rule="nonzero" fill-opacity="1" /><path clip-path="url(#clip780)" d="M999.284 1794.89 L1006.92 1794.89 L1006.92 1768.52 L998.613 1770.19 L998.613 1765.93 L1006.88 1764.26 L1011.55 1764.26 L1011.55 1794.89 L1019.19 1794.89 L1019.19 1798.82 L999.284 1798.82 L999.284 1794.89 Z" fill="#000000" fill-rule="nonzero" fill-opacity="1" /><path clip-path="url(#clip780)" d="M1038.64 1767.34 Q1035.02 1767.34 1033.2 1770.9 Q1031.39 1774.45 1031.39 1781.58 Q1031.39 1788.68 1033.2 1792.25 Q1035.02 1795.79 1038.64 1795.79 Q1042.27 1795.79 1044.08 1792.25 Q1045.9 1788.68 1045.9 1781.58 Q1045.9 1774.45 1044.08 1770.9 Q1042.27 1767.34 1038.64 1767.34 M1038.64 1763.64 Q1044.45 1763.64 1047.5 1768.24 Q1050.58 1772.83 1050.58 1781.58 Q1050.58 1790.3 1047.5 1794.91 Q1044.45 1799.49 1038.64 1799.49 Q1032.83 1799.49 1029.75 1794.91 Q1026.69 1790.3 1026.69 1781.58 Q1026.69 1772.83 1029.75 1768.24 Q1032.83 1763.64 1038.64 1763.64 Z" fill="#000000" fill-rule="nonzero" fill-opacity="1" /><path clip-path="url(#clip780)" d="M1429.38 1794.89 L1437.02 1794.89 L1437.02 1768.52 L1428.71 1770.19 L1428.71 1765.93 L1436.98 1764.26 L1441.65 1764.26 L1441.65 1794.89 L1449.29 1794.89 L1449.29 1798.82 L1429.38 1798.82 L1429.38 1794.89 Z" fill="#000000" fill-rule="nonzero" fill-opacity="1" /><path clip-path="url(#clip780)" d="M1458.78 1764.26 L1477.14 1764.26 L1477.14 1768.2 L1463.06 1768.2 L1463.06 1776.67 Q1464.08 1776.32 1465.1 1776.16 Q1466.12 1775.97 1467.14 1775.97 Q1472.92 1775.97 1476.3 1779.15 Q1479.68 1782.32 1479.68 1787.73 Q1479.68 1793.31 1476.21 1796.41 Q1472.74 1799.49 1466.42 1799.49 Q1464.24 1799.49 1461.98 1799.12 Q1459.73 1798.75 1457.32 1798.01 L1457.32 1793.31 Q1459.41 1794.45 1461.63 1795 Q1463.85 1795.56 1466.33 1795.56 Q1470.33 1795.56 1472.67 1793.45 Q1475.01 1791.34 1475.01 1787.73 Q1475.01 1784.12 1472.67 1782.02 Q1470.33 1779.91 1466.33 1779.91 Q1464.45 1779.91 1462.58 1780.33 Q1460.73 1780.74 1458.78 1781.62 L1458.78 1764.26 Z" fill="#000000" fill-rule="nonzero" fill-opacity="1" /><path clip-path="url(#clip780)" d="M1862.57 1794.89 L1878.89 1794.89 L1878.89 1798.82 L1856.95 1798.82 L1856.95 1794.89 Q1859.61 1792.13 1864.19 1787.5 Q1868.8 1782.85 1869.98 1781.51 Q1872.22 1778.98 1873.1 1777.25 Q1874.01 1775.49 1874.01 1773.8 Q1874.01 1771.04 1872.06 1769.31 Q1870.14 1767.57 1867.04 1767.57 Q1864.84 1767.57 1862.39 1768.34 Q1859.96 1769.1 1857.18 1770.65 L1857.18 1765.93 Q1860 1764.79 1862.46 1764.21 Q1864.91 1763.64 1866.95 1763.64 Q1872.32 1763.64 1875.51 1766.32 Q1878.71 1769.01 1878.71 1773.5 Q1878.71 1775.63 1877.9 1777.55 Q1877.11 1779.45 1875 1782.04 Q1874.42 1782.71 1871.32 1785.93 Q1868.22 1789.12 1862.57 1794.89 Z" fill="#000000" fill-rule="nonzero" fill-opacity="1" /><path clip-path="url(#clip780)" d="M1898.71 1767.34 Q1895.1 1767.34 1893.27 1770.9 Q1891.46 1774.45 1891.46 1781.58 Q1891.46 1788.68 1893.27 1792.25 Q1895.1 1795.79 1898.71 1795.79 Q1902.34 1795.79 1904.15 1792.25 Q1905.97 1788.68 1905.97 1781.58 Q1905.97 1774.45 1904.15 1770.9 Q1902.34 1767.34 1898.71 1767.34 M1898.71 1763.64 Q1904.52 1763.64 1907.57 1768.24 Q1910.65 1772.83 1910.65 1781.58 Q1910.65 1790.3 1907.57 1794.91 Q1904.52 1799.49 1898.71 1799.49 Q1892.9 1799.49 1889.82 1794.91 Q1886.76 1790.3 1886.76 1781.58 Q1886.76 1772.83 1889.82 1768.24 Q1892.9 1763.64 1898.71 1763.64 Z" fill="#000000" fill-rule="nonzero" fill-opacity="1" /><path clip-path="url(#clip780)" d="M2292.67 1794.89 L2308.99 1794.89 L2308.99 1798.82 L2287.05 1798.82 L2287.05 1794.89 Q2289.71 1792.13 2294.29 1787.5 Q2298.9 1782.85 2300.08 1781.51 Q2302.32 1778.98 2303.2 1777.25 Q2304.11 1775.49 2304.11 1773.8 Q2304.11 1771.04 2302.16 1769.31 Q2300.24 1767.57 2297.14 1767.57 Q2294.94 1767.57 2292.49 1768.34 Q2290.06 1769.1 2287.28 1770.65 L2287.28 1765.93 Q2290.1 1764.79 2292.56 1764.21 Q2295.01 1763.64 2297.05 1763.64 Q2302.42 1763.64 2305.61 1766.32 Q2308.81 1769.01 2308.81 1773.5 Q2308.81 1775.63 2307.99 1777.55 Q2307.21 1779.45 2305.1 1782.04 Q2304.52 1782.71 2301.42 1785.93 Q2298.32 1789.12 2292.67 1794.89 Z" fill="#000000" fill-rule="nonzero" fill-opacity="1" /><path clip-path="url(#clip780)" d="M2318.85 1764.26 L2337.21 1764.26 L2337.21 1768.2 L2323.13 1768.2 L2323.13 1776.67 Q2324.15 1776.32 2325.17 1776.16 Q2326.19 1775.97 2327.21 1775.97 Q2332.99 1775.97 2336.37 1779.15 Q2339.75 1782.32 2339.75 1787.73 Q2339.75 1793.31 2336.28 1796.41 Q2332.81 1799.49 2326.49 1799.49 Q2324.31 1799.49 2322.05 1799.12 Q2319.8 1798.75 2317.39 1798.01 L2317.39 1793.31 Q2319.48 1794.45 2321.7 1795 Q2323.92 1795.56 2326.4 1795.56 Q2330.4 1795.56 2332.74 1793.45 Q2335.08 1791.34 2335.08 1787.73 Q2335.08 1784.12 2332.74 1782.02 Q2330.4 1779.91 2326.4 1779.91 Q2324.52 1779.91 2322.65 1780.33 Q2320.8 1780.74 2318.85 1781.62 L2318.85 1764.26 Z" fill="#000000" fill-rule="nonzero" fill-opacity="1" /><path clip-path="url(#clip780)" d="M1372.65 1865.38 Q1365.55 1865.38 1362.81 1867 Q1360.07 1868.63 1360.07 1872.54 Q1360.07 1875.66 1362.11 1877.51 Q1364.18 1879.32 1367.71 1879.32 Q1372.58 1879.32 1375.51 1875.88 Q1378.47 1872.42 1378.47 1866.69 L1378.47 1865.38 L1372.65 1865.38 M1384.33 1862.96 L1384.33 1883.3 L1378.47 1883.3 L1378.47 1877.89 Q1376.47 1881.14 1373.47 1882.7 Q1370.48 1884.22 1366.15 1884.22 Q1360.68 1884.22 1357.43 1881.17 Q1354.22 1878.08 1354.22 1872.92 Q1354.22 1866.91 1358.23 1863.85 Q1362.27 1860.8 1370.26 1860.8 L1378.47 1860.8 L1378.47 1860.23 Q1378.47 1856.18 1375.8 1853.99 Q1373.15 1851.76 1368.35 1851.76 Q1365.29 1851.76 1362.4 1852.49 Q1359.5 1853.22 1356.83 1854.69 L1356.83 1849.28 Q1360.04 1848.03 1363.07 1847.43 Q1366.09 1846.79 1368.95 1846.79 Q1376.69 1846.79 1380.51 1850.8 Q1384.33 1854.81 1384.33 1862.96 Z" fill="#000000" fill-rule="nonzero" fill-opacity="1" /><path clip-path="url(#clip780)" d="M1419.85 1865.06 Q1419.85 1858.7 1417.21 1855.2 Q1414.6 1851.7 1409.85 1851.7 Q1405.14 1851.7 1402.5 1855.2 Q1399.89 1858.7 1399.89 1865.06 Q1399.89 1871.4 1402.5 1874.9 Q1405.14 1878.4 1409.85 1878.4 Q1414.6 1878.4 1417.21 1874.9 Q1419.85 1871.4 1419.85 1865.06 M1425.7 1878.88 Q1425.7 1887.98 1421.66 1892.4 Q1417.62 1896.86 1409.28 1896.86 Q1406.19 1896.86 1403.46 1896.38 Q1400.72 1895.94 1398.14 1894.98 L1398.14 1889.28 Q1400.72 1890.69 1403.23 1891.35 Q1405.75 1892.02 1408.36 1892.02 Q1414.12 1892.02 1416.98 1889 Q1419.85 1886.01 1419.85 1879.93 L1419.85 1877.03 Q1418.03 1880.18 1415.2 1881.74 Q1412.37 1883.3 1408.42 1883.3 Q1401.86 1883.3 1397.85 1878.3 Q1393.84 1873.31 1393.84 1865.06 Q1393.84 1856.79 1397.85 1851.79 Q1401.86 1846.79 1408.42 1846.79 Q1412.37 1846.79 1415.2 1848.35 Q1418.03 1849.91 1419.85 1853.06 L1419.85 1847.65 L1425.7 1847.65 L1425.7 1878.88 Z" fill="#000000" fill-rule="nonzero" fill-opacity="1" /><path clip-path="url(#clip780)" d="M1468.26 1864.01 L1468.26 1866.88 L1441.33 1866.88 Q1441.71 1872.92 1444.96 1876.11 Q1448.24 1879.26 1454.06 1879.26 Q1457.44 1879.26 1460.59 1878.43 Q1463.77 1877.6 1466.89 1875.95 L1466.89 1881.49 Q1463.74 1882.82 1460.43 1883.52 Q1457.12 1884.22 1453.71 1884.22 Q1445.18 1884.22 1440.19 1879.26 Q1435.22 1874.29 1435.22 1865.83 Q1435.22 1857.07 1439.93 1851.95 Q1444.67 1846.79 1452.69 1846.79 Q1459.89 1846.79 1464.06 1851.44 Q1468.26 1856.06 1468.26 1864.01 M1462.4 1862.29 Q1462.34 1857.49 1459.7 1854.62 Q1457.09 1851.76 1452.76 1851.76 Q1447.86 1851.76 1444.9 1854.53 Q1441.97 1857.3 1441.52 1862.33 L1462.4 1862.29 Z" fill="#000000" fill-rule="nonzero" fill-opacity="1" /><polyline clip-path="url(#clip780)" style="stroke:#000000; stroke-linecap:round; stroke-linejoin:round; stroke-width:4; stroke-opacity:1; fill:none" points="181.719,1734.12 181.719,47.2441 "/>
<polyline clip-path="url(#clip780)" style="stroke:#000000; stroke-linecap:round; stroke-linejoin:round; stroke-width:4; stroke-opacity:1; fill:none" points="181.719,1492.06 200.617,1492.06 "/>
<polyline clip-path="url(#clip780)" style="stroke:#000000; stroke-linecap:round; stroke-linejoin:round; stroke-width:4; stroke-opacity:1; fill:none" points="181.719,1207.87 200.617,1207.87 "/>
<polyline clip-path="url(#clip780)" style="stroke:#000000; stroke-linecap:round; stroke-linejoin:round; stroke-width:4; stroke-opacity:1; fill:none" points="181.719,923.69 200.617,923.69 "/>
<polyline clip-path="url(#clip780)" style="stroke:#000000; stroke-linecap:round; stroke-linejoin:round; stroke-width:4; stroke-opacity:1; fill:none" points="181.719,639.505 200.617,639.505 "/>
<polyline clip-path="url(#clip780)" style="stroke:#000000; stroke-linecap:round; stroke-linejoin:round; stroke-width:4; stroke-opacity:1; fill:none" points="181.719,355.321 200.617,355.321 "/>
<polyline clip-path="url(#clip780)" style="stroke:#000000; stroke-linecap:round; stroke-linejoin:round; stroke-width:4; stroke-opacity:1; fill:none" points="181.719,71.137 200.617,71.137 "/>
<path clip-path="url(#clip780)" d="M121.492 1505.4 L129.131 1505.4 L129.131 1479.04 L120.821 1480.7 L120.821 1476.44 L129.085 1474.78 L133.761 1474.78 L133.761 1505.4 L141.399 1505.4 L141.399 1509.34 L121.492 1509.34 L121.492 1505.4 Z" fill="#000000" fill-rule="nonzero" fill-opacity="1" /><path clip-path="url(#clip780)" d="M125.08 1221.22 L141.399 1221.22 L141.399 1225.15 L119.455 1225.15 L119.455 1221.22 Q122.117 1218.46 126.7 1213.83 Q131.307 1209.18 132.488 1207.84 Q134.733 1205.32 135.612 1203.58 Q136.515 1201.82 136.515 1200.13 Q136.515 1197.38 134.571 1195.64 Q132.65 1193.9 129.548 1193.9 Q127.349 1193.9 124.895 1194.67 Q122.464 1195.43 119.687 1196.98 L119.687 1192.26 Q122.511 1191.13 124.964 1190.55 Q127.418 1189.97 129.455 1189.97 Q134.825 1189.97 138.02 1192.65 Q141.214 1195.34 141.214 1199.83 Q141.214 1201.96 140.404 1203.88 Q139.617 1205.78 137.511 1208.37 Q136.932 1209.04 133.83 1212.26 Q130.728 1215.45 125.08 1221.22 Z" fill="#000000" fill-rule="nonzero" fill-opacity="1" /><path clip-path="url(#clip780)" d="M134.27 922.335 Q137.626 923.053 139.501 925.322 Q141.399 927.59 141.399 930.923 Q141.399 936.039 137.881 938.84 Q134.362 941.641 127.881 941.641 Q125.705 941.641 123.39 941.201 Q121.099 940.784 118.645 939.928 L118.645 935.414 Q120.589 936.548 122.904 937.127 Q125.219 937.706 127.742 937.706 Q132.14 937.706 134.432 935.97 Q136.747 934.234 136.747 930.923 Q136.747 927.868 134.594 926.155 Q132.464 924.419 128.645 924.419 L124.617 924.419 L124.617 920.576 L128.83 920.576 Q132.279 920.576 134.108 919.21 Q135.937 917.822 135.937 915.229 Q135.937 912.567 134.038 911.155 Q132.163 909.72 128.645 909.72 Q126.724 909.72 124.525 910.136 Q122.326 910.553 119.687 911.433 L119.687 907.266 Q122.349 906.525 124.663 906.155 Q127.001 905.785 129.062 905.785 Q134.386 905.785 137.487 908.215 Q140.589 910.623 140.589 914.743 Q140.589 917.613 138.946 919.604 Q137.302 921.572 134.27 922.335 Z" fill="#000000" fill-rule="nonzero" fill-opacity="1" /><path clip-path="url(#clip780)" d="M131.816 626.299 L120.011 644.748 L131.816 644.748 L131.816 626.299 M130.589 622.225 L136.469 622.225 L136.469 644.748 L141.399 644.748 L141.399 648.637 L136.469 648.637 L136.469 656.785 L131.816 656.785 L131.816 648.637 L116.214 648.637 L116.214 644.123 L130.589 622.225 Z" fill="#000000" fill-rule="nonzero" fill-opacity="1" /><path clip-path="url(#clip780)" d="M120.497 338.041 L138.853 338.041 L138.853 341.976 L124.779 341.976 L124.779 350.449 Q125.798 350.101 126.816 349.939 Q127.835 349.754 128.853 349.754 Q134.64 349.754 138.02 352.925 Q141.399 356.097 141.399 361.513 Q141.399 367.092 137.927 370.194 Q134.455 373.272 128.136 373.272 Q125.96 373.272 123.691 372.902 Q121.446 372.532 119.039 371.791 L119.039 367.092 Q121.122 368.226 123.344 368.782 Q125.566 369.337 128.043 369.337 Q132.048 369.337 134.386 367.231 Q136.724 365.124 136.724 361.513 Q136.724 357.902 134.386 355.796 Q132.048 353.689 128.043 353.689 Q126.168 353.689 124.293 354.106 Q122.441 354.523 120.497 355.402 L120.497 338.041 Z" fill="#000000" fill-rule="nonzero" fill-opacity="1" /><path clip-path="url(#clip780)" d="M129.872 69.2736 Q126.724 69.2736 124.872 71.4263 Q123.043 73.5791 123.043 77.3291 Q123.043 81.0559 124.872 83.2318 Q126.724 85.3846 129.872 85.3846 Q133.02 85.3846 134.849 83.2318 Q136.7 81.0559 136.7 77.3291 Q136.7 73.5791 134.849 71.4263 Q133.02 69.2736 129.872 69.2736 M139.154 54.6209 L139.154 58.8801 Q137.395 58.0468 135.589 57.607 Q133.807 57.1671 132.048 57.1671 Q127.418 57.1671 124.964 60.2921 Q122.534 63.4171 122.187 69.7365 Q123.552 67.7226 125.613 66.6578 Q127.673 65.5699 130.15 65.5699 Q135.358 65.5699 138.367 68.7412 Q141.399 71.8893 141.399 77.3291 Q141.399 82.6531 138.251 85.8707 Q135.103 89.0883 129.872 89.0883 Q123.876 89.0883 120.705 84.505 Q117.534 79.8985 117.534 71.1717 Q117.534 62.9773 121.423 58.1162 Q125.312 53.232 131.863 53.232 Q133.622 53.232 135.404 53.5792 Q137.21 53.9264 139.154 54.6209 Z" fill="#000000" fill-rule="nonzero" fill-opacity="1" /><path clip-path="url(#clip780)" d="M15.678 1068.87 L21.9483 1068.87 Q20.1977 1072.53 19.3383 1075.78 Q18.479 1079.03 18.479 1082.05 Q18.479 1087.3 20.516 1090.17 Q22.553 1093 26.3088 1093 Q29.4598 1093 31.0831 1091.12 Q32.6745 1089.21 33.6612 1083.93 L34.4569 1080.04 Q35.8255 1072.85 39.2948 1069.45 Q42.7323 1066.01 48.5251 1066.01 Q55.4319 1066.01 58.9967 1070.65 Q62.5615 1075.27 62.5615 1084.21 Q62.5615 1087.59 61.7976 1091.41 Q61.0337 1095.19 59.5378 1099.27 L52.9174 1099.27 Q55.1136 1095.35 56.2276 1091.6 Q57.3416 1087.84 57.3416 1084.21 Q57.3416 1078.71 55.1773 1075.72 Q53.0129 1072.72 49.0025 1072.72 Q45.5014 1072.72 43.528 1074.89 Q41.5546 1077.02 40.568 1081.92 L39.8041 1085.84 Q38.3718 1093.03 35.3162 1096.25 Q32.2607 1099.46 26.818 1099.46 Q20.516 1099.46 16.8875 1095.04 Q13.2591 1090.58 13.2591 1082.78 Q13.2591 1079.44 13.8638 1075.97 Q14.4686 1072.5 15.678 1068.87 Z" fill="#000000" fill-rule="nonzero" fill-opacity="1" /><path clip-path="url(#clip780)" d="M43.8463 1052.74 Q50.3075 1052.74 53.9996 1050.09 Q57.6599 1047.42 57.6599 1042.77 Q57.6599 1038.13 53.9996 1035.45 Q50.3075 1032.78 43.8463 1032.78 Q37.3851 1032.78 33.7248 1035.45 Q30.0327 1038.13 30.0327 1042.77 Q30.0327 1047.42 33.7248 1050.09 Q37.3851 1052.74 43.8463 1052.74 M56.2912 1032.78 Q59.4741 1034.63 61.0337 1037.46 Q62.5615 1040.26 62.5615 1044.21 Q62.5615 1050.67 57.4052 1054.74 Q52.249 1058.78 43.8463 1058.78 Q35.4436 1058.78 30.2873 1054.74 Q25.1311 1050.67 25.1311 1044.21 Q25.1311 1040.26 26.6907 1037.46 Q28.2185 1034.63 31.4013 1032.78 L25.9905 1032.78 L25.9905 1026.92 L75.1974 1026.92 L75.1974 1032.78 L56.2912 1032.78 Z" fill="#000000" fill-rule="nonzero" fill-opacity="1" /><path clip-path="url(#clip780)" d="M31.465 994.203 Q30.8921 995.19 30.6375 996.367 Q30.351 997.513 30.351 998.913 Q30.351 1003.88 33.5975 1006.55 Q36.8122 1009.19 42.8596 1009.19 L61.6384 1009.19 L61.6384 1015.08 L25.9905 1015.08 L25.9905 1009.19 L31.5287 1009.19 Q28.2821 1007.35 26.7225 1004.39 Q25.1311 1001.43 25.1311 997.195 Q25.1311 996.59 25.2266 995.858 Q25.2903 995.126 25.4494 994.235 L31.465 994.203 Z" fill="#000000" fill-rule="nonzero" fill-opacity="1" /><path clip-path="url(#clip780)" d="M15.869 982.267 L25.9905 982.267 L25.9905 970.204 L30.542 970.204 L30.542 982.267 L49.8937 982.267 Q54.2542 982.267 55.4955 981.089 Q56.7368 979.88 56.7368 976.22 L56.7368 970.204 L61.6384 970.204 L61.6384 976.22 Q61.6384 982.999 59.124 985.577 Q56.5777 988.155 49.8937 988.155 L30.542 988.155 L30.542 992.452 L25.9905 992.452 L25.9905 988.155 L15.869 988.155 L15.869 982.267 Z" fill="#000000" fill-rule="nonzero" fill-opacity="1" /><path clip-path="url(#clip780)" d="M12.1769 948.433 Q19.4975 952.698 26.6589 954.767 Q33.8203 956.836 41.1727 956.836 Q48.5251 956.836 55.7502 954.767 Q62.9434 952.667 70.2321 948.433 L70.2321 953.526 Q62.7524 958.3 55.5274 960.687 Q48.3023 963.043 41.1727 963.043 Q34.0749 963.043 26.8817 960.687 Q19.6884 958.332 12.1769 953.526 L12.1769 948.433 Z" fill="#000000" fill-rule="nonzero" fill-opacity="1" /><path clip-path="url(#clip780)" d="M25.9905 941.272 L25.9905 935.065 L55.9093 923.925 L25.9905 912.785 L25.9905 906.579 L61.6384 919.947 L61.6384 927.904 L25.9905 941.272 Z" fill="#000000" fill-rule="nonzero" fill-opacity="1" /><path clip-path="url(#clip780)" d="M30.0964 884.681 Q30.0964 889.391 33.7885 892.129 Q37.4488 894.866 43.8463 894.866 Q50.2438 894.866 53.9359 892.161 Q57.5962 889.423 57.5962 884.681 Q57.5962 880.002 53.9041 877.265 Q50.212 874.528 43.8463 874.528 Q37.5124 874.528 33.8203 877.265 Q30.0964 880.002 30.0964 884.681 M25.1311 884.681 Q25.1311 877.042 30.0964 872.682 Q35.0616 868.321 43.8463 868.321 Q52.5991 868.321 57.5962 872.682 Q62.5615 877.042 62.5615 884.681 Q62.5615 892.352 57.5962 896.712 Q52.5991 901.041 43.8463 901.041 Q35.0616 901.041 30.0964 896.712 Q25.1311 892.352 25.1311 884.681 Z" fill="#000000" fill-rule="nonzero" fill-opacity="1" /><path clip-path="url(#clip780)" d="M12.1132 858.613 L12.1132 852.757 L61.6384 852.757 L61.6384 858.613 L12.1132 858.613 Z" fill="#000000" fill-rule="nonzero" fill-opacity="1" /><path clip-path="url(#clip780)" d="M47.5702 841.108 L25.9905 841.108 L25.9905 835.251 L47.3474 835.251 Q52.4082 835.251 54.9545 833.278 Q57.4689 831.304 57.4689 827.358 Q57.4689 822.615 54.4452 819.878 Q51.4215 817.109 46.2016 817.109 L25.9905 817.109 L25.9905 811.252 L61.6384 811.252 L61.6384 817.109 L56.1639 817.109 Q59.4104 819.241 61.0019 822.074 Q62.5615 824.875 62.5615 828.599 Q62.5615 834.742 58.742 837.925 Q54.9226 841.108 47.5702 841.108 M25.1311 826.371 L25.1311 826.371 Z" fill="#000000" fill-rule="nonzero" fill-opacity="1" /><path clip-path="url(#clip780)" d="M32.8336 771.435 Q28.8869 769.239 27.009 766.183 Q25.1311 763.128 25.1311 758.99 Q25.1311 753.42 29.046 750.396 Q32.9291 747.373 40.1224 747.373 L61.6384 747.373 L61.6384 753.261 L40.3133 753.261 Q35.1889 753.261 32.7063 755.075 Q30.2237 756.889 30.2237 760.613 Q30.2237 765.165 33.2474 767.806 Q36.2711 770.448 41.491 770.448 L61.6384 770.448 L61.6384 776.337 L40.3133 776.337 Q35.1571 776.337 32.7063 778.151 Q30.2237 779.965 30.2237 783.753 Q30.2237 788.24 33.2792 790.882 Q36.3029 793.524 41.491 793.524 L61.6384 793.524 L61.6384 799.412 L25.9905 799.412 L25.9905 793.524 L31.5287 793.524 Q28.2503 791.519 26.6907 788.718 Q25.1311 785.917 25.1311 782.066 Q25.1311 778.183 27.1045 775.477 Q29.0779 772.74 32.8336 771.435 Z" fill="#000000" fill-rule="nonzero" fill-opacity="1" /><path clip-path="url(#clip780)" d="M42.3504 705.2 L45.2149 705.2 L45.2149 732.127 Q51.2623 731.745 54.4452 728.498 Q57.5962 725.22 57.5962 719.395 Q57.5962 716.021 56.7687 712.87 Q55.9411 709.688 54.2861 706.568 L59.8242 706.568 Q61.161 709.719 61.8612 713.03 Q62.5615 716.34 62.5615 719.745 Q62.5615 728.275 57.5962 733.273 Q52.631 738.238 44.1646 738.238 Q35.4117 738.238 30.2873 733.527 Q25.1311 728.785 25.1311 720.764 Q25.1311 713.571 29.7781 709.401 Q34.3932 705.2 42.3504 705.2 M40.6316 711.056 Q35.8255 711.12 32.9609 713.762 Q30.0964 716.372 30.0964 720.7 Q30.0964 725.602 32.8654 728.562 Q35.6345 731.49 40.6634 731.936 L40.6316 711.056 Z" fill="#000000" fill-rule="nonzero" fill-opacity="1" /><path clip-path="url(#clip780)" d="M12.1769 696.511 L12.1769 691.418 Q19.6884 686.644 26.8817 684.288 Q34.0749 681.901 41.1727 681.901 Q48.3023 681.901 55.5274 684.288 Q62.7524 686.644 70.2321 691.418 L70.2321 696.511 Q62.9434 692.277 55.7502 690.209 Q48.5251 688.108 41.1727 688.108 Q33.8203 688.108 26.6589 690.209 Q19.4975 692.277 12.1769 696.511 Z" fill="#000000" fill-rule="nonzero" fill-opacity="1" /><circle clip-path="url(#clip782)" cx="251.315" cy="1686.38" r="14.4" fill="#009af9" fill-rule="evenodd" fill-opacity="1" stroke="#000000" stroke-opacity="1" stroke-width="3.84"/>
<circle clip-path="url(#clip782)" cx="337.235" cy="1686.38" r="14.4" fill="#009af9" fill-rule="evenodd" fill-opacity="1" stroke="#000000" stroke-opacity="1" stroke-width="3.84"/>
<circle clip-path="url(#clip782)" cx="423.155" cy="1686.38" r="14.4" fill="#009af9" fill-rule="evenodd" fill-opacity="1" stroke="#000000" stroke-opacity="1" stroke-width="3.84"/>
<circle clip-path="url(#clip782)" cx="509.075" cy="1686.38" r="14.4" fill="#009af9" fill-rule="evenodd" fill-opacity="1" stroke="#000000" stroke-opacity="1" stroke-width="3.84"/>
<circle clip-path="url(#clip782)" cx="509.075" cy="1556.11" r="14.4" fill="#009af9" fill-rule="evenodd" fill-opacity="1" stroke="#000000" stroke-opacity="1" stroke-width="3.84"/>
<circle clip-path="url(#clip782)" cx="594.996" cy="1575.29" r="14.4" fill="#009af9" fill-rule="evenodd" fill-opacity="1" stroke="#000000" stroke-opacity="1" stroke-width="3.84"/>
<circle clip-path="url(#clip782)" cx="594.996" cy="1575.29" r="14.4" fill="#009af9" fill-rule="evenodd" fill-opacity="1" stroke="#000000" stroke-opacity="1" stroke-width="3.84"/>
<circle clip-path="url(#clip782)" cx="594.996" cy="1492.06" r="14.4" fill="#009af9" fill-rule="evenodd" fill-opacity="1" stroke="#000000" stroke-opacity="1" stroke-width="3.84"/>
<circle clip-path="url(#clip782)" cx="594.996" cy="1428.19" r="14.4" fill="#009af9" fill-rule="evenodd" fill-opacity="1" stroke="#000000" stroke-opacity="1" stroke-width="3.84"/>
<circle clip-path="url(#clip782)" cx="594.996" cy="1405.71" r="14.4" fill="#009af9" fill-rule="evenodd" fill-opacity="1" stroke="#000000" stroke-opacity="1" stroke-width="3.84"/>
<circle clip-path="url(#clip782)" cx="594.996" cy="1252.23" r="14.4" fill="#009af9" fill-rule="evenodd" fill-opacity="1" stroke="#000000" stroke-opacity="1" stroke-width="3.84"/>
<circle clip-path="url(#clip782)" cx="680.916" cy="1428.19" r="14.4" fill="#009af9" fill-rule="evenodd" fill-opacity="1" stroke="#000000" stroke-opacity="1" stroke-width="3.84"/>
<circle clip-path="url(#clip782)" cx="680.916" cy="1345.26" r="14.4" fill="#009af9" fill-rule="evenodd" fill-opacity="1" stroke="#000000" stroke-opacity="1" stroke-width="3.84"/>
<circle clip-path="url(#clip782)" cx="680.916" cy="1300.71" r="14.4" fill="#009af9" fill-rule="evenodd" fill-opacity="1" stroke="#000000" stroke-opacity="1" stroke-width="3.84"/>
<circle clip-path="url(#clip782)" cx="680.916" cy="1207.87" r="14.4" fill="#009af9" fill-rule="evenodd" fill-opacity="1" stroke="#000000" stroke-opacity="1" stroke-width="3.84"/>
<circle clip-path="url(#clip782)" cx="680.916" cy="1173.4" r="14.4" fill="#009af9" fill-rule="evenodd" fill-opacity="1" stroke="#000000" stroke-opacity="1" stroke-width="3.84"/>
<circle clip-path="url(#clip782)" cx="766.836" cy="1464.93" r="14.4" fill="#009af9" fill-rule="evenodd" fill-opacity="1" stroke="#000000" stroke-opacity="1" stroke-width="3.84"/>
<circle clip-path="url(#clip782)" cx="766.836" cy="1384.52" r="14.4" fill="#009af9" fill-rule="evenodd" fill-opacity="1" stroke="#000000" stroke-opacity="1" stroke-width="3.84"/>
<circle clip-path="url(#clip782)" cx="766.836" cy="1318.01" r="14.4" fill="#009af9" fill-rule="evenodd" fill-opacity="1" stroke="#000000" stroke-opacity="1" stroke-width="3.84"/>
<circle clip-path="url(#clip782)" cx="766.836" cy="1267.88" r="14.4" fill="#009af9" fill-rule="evenodd" fill-opacity="1" stroke="#000000" stroke-opacity="1" stroke-width="3.84"/>
<circle clip-path="url(#clip782)" cx="766.836" cy="1207.87" r="14.4" fill="#009af9" fill-rule="evenodd" fill-opacity="1" stroke="#000000" stroke-opacity="1" stroke-width="3.84"/>
<circle clip-path="url(#clip782)" cx="766.836" cy="1160.15" r="14.4" fill="#009af9" fill-rule="evenodd" fill-opacity="1" stroke="#000000" stroke-opacity="1" stroke-width="3.84"/>
<circle clip-path="url(#clip782)" cx="766.836" cy="1068.63" r="14.4" fill="#009af9" fill-rule="evenodd" fill-opacity="1" stroke="#000000" stroke-opacity="1" stroke-width="3.84"/>
<circle clip-path="url(#clip782)" cx="852.756" cy="1416.77" r="14.4" fill="#009af9" fill-rule="evenodd" fill-opacity="1" stroke="#000000" stroke-opacity="1" stroke-width="3.84"/>
<circle clip-path="url(#clip782)" cx="852.756" cy="1364.42" r="14.4" fill="#009af9" fill-rule="evenodd" fill-opacity="1" stroke="#000000" stroke-opacity="1" stroke-width="3.84"/>
<circle clip-path="url(#clip782)" cx="852.756" cy="1335.99" r="14.4" fill="#009af9" fill-rule="evenodd" fill-opacity="1" stroke="#000000" stroke-opacity="1" stroke-width="3.84"/>
<circle clip-path="url(#clip782)" cx="852.756" cy="1292.29" r="14.4" fill="#009af9" fill-rule="evenodd" fill-opacity="1" stroke="#000000" stroke-opacity="1" stroke-width="3.84"/>
<circle clip-path="url(#clip782)" cx="852.756" cy="1237.04" r="14.4" fill="#009af9" fill-rule="evenodd" fill-opacity="1" stroke="#000000" stroke-opacity="1" stroke-width="3.84"/>
<circle clip-path="url(#clip782)" cx="852.756" cy="1207.87" r="14.4" fill="#009af9" fill-rule="evenodd" fill-opacity="1" stroke="#000000" stroke-opacity="1" stroke-width="3.84"/>
<circle clip-path="url(#clip782)" cx="852.756" cy="1186.95" r="14.4" fill="#009af9" fill-rule="evenodd" fill-opacity="1" stroke="#000000" stroke-opacity="1" stroke-width="3.84"/>
<circle clip-path="url(#clip782)" cx="852.756" cy="1153.63" r="14.4" fill="#009af9" fill-rule="evenodd" fill-opacity="1" stroke="#000000" stroke-opacity="1" stroke-width="3.84"/>
<circle clip-path="url(#clip782)" cx="852.756" cy="1080.14" r="14.4" fill="#009af9" fill-rule="evenodd" fill-opacity="1" stroke="#000000" stroke-opacity="1" stroke-width="3.84"/>
<circle clip-path="url(#clip782)" cx="852.756" cy="1074.36" r="14.4" fill="#009af9" fill-rule="evenodd" fill-opacity="1" stroke="#000000" stroke-opacity="1" stroke-width="3.84"/>
<circle clip-path="url(#clip782)" cx="852.756" cy="997.972" r="14.4" fill="#009af9" fill-rule="evenodd" fill-opacity="1" stroke="#000000" stroke-opacity="1" stroke-width="3.84"/>
<circle clip-path="url(#clip782)" cx="938.677" cy="1309.28" r="14.4" fill="#009af9" fill-rule="evenodd" fill-opacity="1" stroke="#000000" stroke-opacity="1" stroke-width="3.84"/>
<circle clip-path="url(#clip782)" cx="938.677" cy="1252.23" r="14.4" fill="#009af9" fill-rule="evenodd" fill-opacity="1" stroke="#000000" stroke-opacity="1" stroke-width="3.84"/>
<circle clip-path="url(#clip782)" cx="938.677" cy="1207.87" r="14.4" fill="#009af9" fill-rule="evenodd" fill-opacity="1" stroke="#000000" stroke-opacity="1" stroke-width="3.84"/>
<circle clip-path="url(#clip782)" cx="938.677" cy="1180.13" r="14.4" fill="#009af9" fill-rule="evenodd" fill-opacity="1" stroke="#000000" stroke-opacity="1" stroke-width="3.84"/>
<circle clip-path="url(#clip782)" cx="938.677" cy="1153.63" r="14.4" fill="#009af9" fill-rule="evenodd" fill-opacity="1" stroke="#000000" stroke-opacity="1" stroke-width="3.84"/>
<circle clip-path="url(#clip782)" cx="938.677" cy="1128.2" r="14.4" fill="#009af9" fill-rule="evenodd" fill-opacity="1" stroke="#000000" stroke-opacity="1" stroke-width="3.84"/>
<circle clip-path="url(#clip782)" cx="938.677" cy="1109.77" r="14.4" fill="#009af9" fill-rule="evenodd" fill-opacity="1" stroke="#000000" stroke-opacity="1" stroke-width="3.84"/>
<circle clip-path="url(#clip782)" cx="938.677" cy="1091.84" r="14.4" fill="#009af9" fill-rule="evenodd" fill-opacity="1" stroke="#000000" stroke-opacity="1" stroke-width="3.84"/>
<circle clip-path="url(#clip782)" cx="938.677" cy="1068.63" r="14.4" fill="#009af9" fill-rule="evenodd" fill-opacity="1" stroke="#000000" stroke-opacity="1" stroke-width="3.84"/>
<circle clip-path="url(#clip782)" cx="938.677" cy="1024.36" r="14.4" fill="#009af9" fill-rule="evenodd" fill-opacity="1" stroke="#000000" stroke-opacity="1" stroke-width="3.84"/>
<circle clip-path="url(#clip782)" cx="938.677" cy="952.598" r="14.4" fill="#009af9" fill-rule="evenodd" fill-opacity="1" stroke="#000000" stroke-opacity="1" stroke-width="3.84"/>
<circle clip-path="url(#clip782)" cx="938.677" cy="886.605" r="14.4" fill="#009af9" fill-rule="evenodd" fill-opacity="1" stroke="#000000" stroke-opacity="1" stroke-width="3.84"/>
<circle clip-path="url(#clip782)" cx="938.677" cy="868.631" r="14.4" fill="#009af9" fill-rule="evenodd" fill-opacity="1" stroke="#000000" stroke-opacity="1" stroke-width="3.84"/>
<circle clip-path="url(#clip782)" cx="1024.6" cy="1252.23" r="14.4" fill="#009af9" fill-rule="evenodd" fill-opacity="1" stroke="#000000" stroke-opacity="1" stroke-width="3.84"/>
<circle clip-path="url(#clip782)" cx="1024.6" cy="1215.02" r="14.4" fill="#009af9" fill-rule="evenodd" fill-opacity="1" stroke="#000000" stroke-opacity="1" stroke-width="3.84"/>
<circle clip-path="url(#clip782)" cx="1024.6" cy="1160.15" r="14.4" fill="#009af9" fill-rule="evenodd" fill-opacity="1" stroke="#000000" stroke-opacity="1" stroke-width="3.84"/>
<circle clip-path="url(#clip782)" cx="1024.6" cy="1103.74" r="14.4" fill="#009af9" fill-rule="evenodd" fill-opacity="1" stroke="#000000" stroke-opacity="1" stroke-width="3.84"/>
<circle clip-path="url(#clip782)" cx="1024.6" cy="1068.63" r="14.4" fill="#009af9" fill-rule="evenodd" fill-opacity="1" stroke="#000000" stroke-opacity="1" stroke-width="3.84"/>
<circle clip-path="url(#clip782)" cx="1024.6" cy="982.559" r="14.4" fill="#009af9" fill-rule="evenodd" fill-opacity="1" stroke="#000000" stroke-opacity="1" stroke-width="3.84"/>
<circle clip-path="url(#clip782)" cx="1024.6" cy="957.515" r="14.4" fill="#009af9" fill-rule="evenodd" fill-opacity="1" stroke="#000000" stroke-opacity="1" stroke-width="3.84"/>
<circle clip-path="url(#clip782)" cx="1024.6" cy="909.597" r="14.4" fill="#009af9" fill-rule="evenodd" fill-opacity="1" stroke="#000000" stroke-opacity="1" stroke-width="3.84"/>
<circle clip-path="url(#clip782)" cx="1110.52" cy="1244.58" r="14.4" fill="#009af9" fill-rule="evenodd" fill-opacity="1" stroke="#000000" stroke-opacity="1" stroke-width="3.84"/>
<circle clip-path="url(#clip782)" cx="1110.52" cy="1207.87" r="14.4" fill="#009af9" fill-rule="evenodd" fill-opacity="1" stroke="#000000" stroke-opacity="1" stroke-width="3.84"/>
<circle clip-path="url(#clip782)" cx="1110.52" cy="1166.74" r="14.4" fill="#009af9" fill-rule="evenodd" fill-opacity="1" stroke="#000000" stroke-opacity="1" stroke-width="3.84"/>
<circle clip-path="url(#clip782)" cx="1110.52" cy="1103.74" r="14.4" fill="#009af9" fill-rule="evenodd" fill-opacity="1" stroke="#000000" stroke-opacity="1" stroke-width="3.84"/>
<circle clip-path="url(#clip782)" cx="1110.52" cy="1074.36" r="14.4" fill="#009af9" fill-rule="evenodd" fill-opacity="1" stroke="#000000" stroke-opacity="1" stroke-width="3.84"/>
<circle clip-path="url(#clip782)" cx="1110.52" cy="1029.75" r="14.4" fill="#009af9" fill-rule="evenodd" fill-opacity="1" stroke="#000000" stroke-opacity="1" stroke-width="3.84"/>
<circle clip-path="url(#clip782)" cx="1110.52" cy="1008.42" r="14.4" fill="#009af9" fill-rule="evenodd" fill-opacity="1" stroke="#000000" stroke-opacity="1" stroke-width="3.84"/>
<circle clip-path="url(#clip782)" cx="1110.52" cy="952.598" r="14.4" fill="#009af9" fill-rule="evenodd" fill-opacity="1" stroke="#000000" stroke-opacity="1" stroke-width="3.84"/>
<circle clip-path="url(#clip782)" cx="1110.52" cy="909.597" r="14.4" fill="#009af9" fill-rule="evenodd" fill-opacity="1" stroke="#000000" stroke-opacity="1" stroke-width="3.84"/>
<circle clip-path="url(#clip782)" cx="1110.52" cy="846.651" r="14.4" fill="#009af9" fill-rule="evenodd" fill-opacity="1" stroke="#000000" stroke-opacity="1" stroke-width="3.84"/>
<circle clip-path="url(#clip782)" cx="1196.44" cy="947.71" r="14.4" fill="#009af9" fill-rule="evenodd" fill-opacity="1" stroke="#000000" stroke-opacity="1" stroke-width="3.84"/>
<circle clip-path="url(#clip782)" cx="1196.44" cy="868.631" r="14.4" fill="#009af9" fill-rule="evenodd" fill-opacity="1" stroke="#000000" stroke-opacity="1" stroke-width="3.84"/>
<circle clip-path="url(#clip782)" cx="1196.44" cy="842.318" r="14.4" fill="#009af9" fill-rule="evenodd" fill-opacity="1" stroke="#000000" stroke-opacity="1" stroke-width="3.84"/>
<circle clip-path="url(#clip782)" cx="1196.44" cy="763.493" r="14.4" fill="#009af9" fill-rule="evenodd" fill-opacity="1" stroke="#000000" stroke-opacity="1" stroke-width="3.84"/>
<circle clip-path="url(#clip782)" cx="1196.44" cy="720.545" r="14.4" fill="#009af9" fill-rule="evenodd" fill-opacity="1" stroke="#000000" stroke-opacity="1" stroke-width="3.84"/>
<circle clip-path="url(#clip782)" cx="1196.44" cy="675.602" r="14.4" fill="#009af9" fill-rule="evenodd" fill-opacity="1" stroke="#000000" stroke-opacity="1" stroke-width="3.84"/>
<circle clip-path="url(#clip782)" cx="1282.36" cy="967.44" r="14.4" fill="#009af9" fill-rule="evenodd" fill-opacity="1" stroke="#000000" stroke-opacity="1" stroke-width="3.84"/>
<circle clip-path="url(#clip782)" cx="1282.36" cy="928.439" r="14.4" fill="#009af9" fill-rule="evenodd" fill-opacity="1" stroke="#000000" stroke-opacity="1" stroke-width="3.84"/>
<circle clip-path="url(#clip782)" cx="1282.36" cy="864.192" r="14.4" fill="#009af9" fill-rule="evenodd" fill-opacity="1" stroke="#000000" stroke-opacity="1" stroke-width="3.84"/>
<circle clip-path="url(#clip782)" cx="1282.36" cy="804.183" r="14.4" fill="#009af9" fill-rule="evenodd" fill-opacity="1" stroke="#000000" stroke-opacity="1" stroke-width="3.84"/>
<circle clip-path="url(#clip782)" cx="1282.36" cy="783.629" r="14.4" fill="#009af9" fill-rule="evenodd" fill-opacity="1" stroke="#000000" stroke-opacity="1" stroke-width="3.84"/>
<circle clip-path="url(#clip782)" cx="1282.36" cy="743.75" r="14.4" fill="#009af9" fill-rule="evenodd" fill-opacity="1" stroke="#000000" stroke-opacity="1" stroke-width="3.84"/>
<circle clip-path="url(#clip782)" cx="1368.28" cy="909.597" r="14.4" fill="#009af9" fill-rule="evenodd" fill-opacity="1" stroke="#000000" stroke-opacity="1" stroke-width="3.84"/>
<circle clip-path="url(#clip782)" cx="1368.28" cy="864.192" r="14.4" fill="#009af9" fill-rule="evenodd" fill-opacity="1" stroke="#000000" stroke-opacity="1" stroke-width="3.84"/>
<circle clip-path="url(#clip782)" cx="1368.28" cy="775.526" r="14.4" fill="#009af9" fill-rule="evenodd" fill-opacity="1" stroke="#000000" stroke-opacity="1" stroke-width="3.84"/>
<circle clip-path="url(#clip782)" cx="1454.2" cy="816.726" r="14.4" fill="#009af9" fill-rule="evenodd" fill-opacity="1" stroke="#000000" stroke-opacity="1" stroke-width="3.84"/>
<circle clip-path="url(#clip782)" cx="1454.2" cy="783.629" r="14.4" fill="#009af9" fill-rule="evenodd" fill-opacity="1" stroke="#000000" stroke-opacity="1" stroke-width="3.84"/>
<circle clip-path="url(#clip782)" cx="1454.2" cy="735.957" r="14.4" fill="#009af9" fill-rule="evenodd" fill-opacity="1" stroke="#000000" stroke-opacity="1" stroke-width="3.84"/>
<circle clip-path="url(#clip782)" cx="1454.2" cy="724.377" r="14.4" fill="#009af9" fill-rule="evenodd" fill-opacity="1" stroke="#000000" stroke-opacity="1" stroke-width="3.84"/>
<circle clip-path="url(#clip782)" cx="1454.2" cy="701.59" r="14.4" fill="#009af9" fill-rule="evenodd" fill-opacity="1" stroke="#000000" stroke-opacity="1" stroke-width="3.84"/>
<circle clip-path="url(#clip782)" cx="1454.2" cy="657.408" r="14.4" fill="#009af9" fill-rule="evenodd" fill-opacity="1" stroke="#000000" stroke-opacity="1" stroke-width="3.84"/>
<circle clip-path="url(#clip782)" cx="1454.2" cy="632.423" r="14.4" fill="#009af9" fill-rule="evenodd" fill-opacity="1" stroke="#000000" stroke-opacity="1" stroke-width="3.84"/>
<circle clip-path="url(#clip782)" cx="1454.2" cy="611.434" r="14.4" fill="#009af9" fill-rule="evenodd" fill-opacity="1" stroke="#000000" stroke-opacity="1" stroke-width="3.84"/>
<circle clip-path="url(#clip782)" cx="1540.12" cy="783.629" r="14.4" fill="#009af9" fill-rule="evenodd" fill-opacity="1" stroke="#000000" stroke-opacity="1" stroke-width="3.84"/>
<circle clip-path="url(#clip782)" cx="1540.12" cy="775.526" r="14.4" fill="#009af9" fill-rule="evenodd" fill-opacity="1" stroke="#000000" stroke-opacity="1" stroke-width="3.84"/>
<circle clip-path="url(#clip782)" cx="1540.12" cy="743.75" r="14.4" fill="#009af9" fill-rule="evenodd" fill-opacity="1" stroke="#000000" stroke-opacity="1" stroke-width="3.84"/>
<circle clip-path="url(#clip782)" cx="1540.12" cy="611.434" r="14.4" fill="#009af9" fill-rule="evenodd" fill-opacity="1" stroke="#000000" stroke-opacity="1" stroke-width="3.84"/>
<circle clip-path="url(#clip782)" cx="1540.12" cy="473.947" r="14.4" fill="#009af9" fill-rule="evenodd" fill-opacity="1" stroke="#000000" stroke-opacity="1" stroke-width="3.84"/>
<circle clip-path="url(#clip782)" cx="1540.12" cy="285.968" r="14.4" fill="#009af9" fill-rule="evenodd" fill-opacity="1" stroke="#000000" stroke-opacity="1" stroke-width="3.84"/>
<circle clip-path="url(#clip782)" cx="1626.04" cy="825.18" r="14.4" fill="#009af9" fill-rule="evenodd" fill-opacity="1" stroke="#000000" stroke-opacity="1" stroke-width="3.84"/>
<circle clip-path="url(#clip782)" cx="1626.04" cy="751.601" r="14.4" fill="#009af9" fill-rule="evenodd" fill-opacity="1" stroke="#000000" stroke-opacity="1" stroke-width="3.84"/>
<circle clip-path="url(#clip782)" cx="1626.04" cy="671.939" r="14.4" fill="#009af9" fill-rule="evenodd" fill-opacity="1" stroke="#000000" stroke-opacity="1" stroke-width="3.84"/>
<circle clip-path="url(#clip782)" cx="1626.04" cy="657.408" r="14.4" fill="#009af9" fill-rule="evenodd" fill-opacity="1" stroke="#000000" stroke-opacity="1" stroke-width="3.84"/>
<circle clip-path="url(#clip782)" cx="1626.04" cy="604.521" r="14.4" fill="#009af9" fill-rule="evenodd" fill-opacity="1" stroke="#000000" stroke-opacity="1" stroke-width="3.84"/>
<circle clip-path="url(#clip782)" cx="1711.96" cy="947.71" r="14.4" fill="#009af9" fill-rule="evenodd" fill-opacity="1" stroke="#000000" stroke-opacity="1" stroke-width="3.84"/>
<circle clip-path="url(#clip782)" cx="1711.96" cy="804.183" r="14.4" fill="#009af9" fill-rule="evenodd" fill-opacity="1" stroke="#000000" stroke-opacity="1" stroke-width="3.84"/>
<circle clip-path="url(#clip782)" cx="1711.96" cy="611.434" r="14.4" fill="#009af9" fill-rule="evenodd" fill-opacity="1" stroke="#000000" stroke-opacity="1" stroke-width="3.84"/>
<circle clip-path="url(#clip782)" cx="1711.96" cy="384.03" r="14.4" fill="#009af9" fill-rule="evenodd" fill-opacity="1" stroke="#000000" stroke-opacity="1" stroke-width="3.84"/>
<circle clip-path="url(#clip782)" cx="1797.88" cy="783.629" r="14.4" fill="#009af9" fill-rule="evenodd" fill-opacity="1" stroke="#000000" stroke-opacity="1" stroke-width="3.84"/>
<circle clip-path="url(#clip782)" cx="1797.88" cy="643.063" r="14.4" fill="#009af9" fill-rule="evenodd" fill-opacity="1" stroke="#000000" stroke-opacity="1" stroke-width="3.84"/>
<circle clip-path="url(#clip782)" cx="1797.88" cy="632.423" r="14.4" fill="#009af9" fill-rule="evenodd" fill-opacity="1" stroke="#000000" stroke-opacity="1" stroke-width="3.84"/>
<circle clip-path="url(#clip782)" cx="1797.88" cy="618.388" r="14.4" fill="#009af9" fill-rule="evenodd" fill-opacity="1" stroke="#000000" stroke-opacity="1" stroke-width="3.84"/>
<circle clip-path="url(#clip782)" cx="1797.88" cy="567.206" r="14.4" fill="#009af9" fill-rule="evenodd" fill-opacity="1" stroke="#000000" stroke-opacity="1" stroke-width="3.84"/>
<circle clip-path="url(#clip782)" cx="1797.88" cy="544.049" r="14.4" fill="#009af9" fill-rule="evenodd" fill-opacity="1" stroke="#000000" stroke-opacity="1" stroke-width="3.84"/>
<circle clip-path="url(#clip782)" cx="1797.88" cy="524.541" r="14.4" fill="#009af9" fill-rule="evenodd" fill-opacity="1" stroke="#000000" stroke-opacity="1" stroke-width="3.84"/>
<circle clip-path="url(#clip782)" cx="1797.88" cy="508.513" r="14.4" fill="#009af9" fill-rule="evenodd" fill-opacity="1" stroke="#000000" stroke-opacity="1" stroke-width="3.84"/>
<circle clip-path="url(#clip782)" cx="1797.88" cy="332.765" r="14.4" fill="#009af9" fill-rule="evenodd" fill-opacity="1" stroke="#000000" stroke-opacity="1" stroke-width="3.84"/>
<circle clip-path="url(#clip782)" cx="1883.8" cy="310.557" r="14.4" fill="#009af9" fill-rule="evenodd" fill-opacity="1" stroke="#000000" stroke-opacity="1" stroke-width="3.84"/>
<circle clip-path="url(#clip782)" cx="1883.8" cy="378.241" r="14.4" fill="#009af9" fill-rule="evenodd" fill-opacity="1" stroke="#000000" stroke-opacity="1" stroke-width="3.84"/>
<circle clip-path="url(#clip782)" cx="1883.8" cy="470.85" r="14.4" fill="#009af9" fill-rule="evenodd" fill-opacity="1" stroke="#000000" stroke-opacity="1" stroke-width="3.84"/>
<circle clip-path="url(#clip782)" cx="1883.8" cy="477.051" r="14.4" fill="#009af9" fill-rule="evenodd" fill-opacity="1" stroke="#000000" stroke-opacity="1" stroke-width="3.84"/>
<circle clip-path="url(#clip782)" cx="1883.8" cy="607.972" r="14.4" fill="#009af9" fill-rule="evenodd" fill-opacity="1" stroke="#000000" stroke-opacity="1" stroke-width="3.84"/>
<circle clip-path="url(#clip782)" cx="1883.8" cy="664.65" r="14.4" fill="#009af9" fill-rule="evenodd" fill-opacity="1" stroke="#000000" stroke-opacity="1" stroke-width="3.84"/>
<circle clip-path="url(#clip782)" cx="1883.8" cy="682.964" r="14.4" fill="#009af9" fill-rule="evenodd" fill-opacity="1" stroke="#000000" stroke-opacity="1" stroke-width="3.84"/>
<circle clip-path="url(#clip782)" cx="1883.8" cy="829.435" r="14.4" fill="#009af9" fill-rule="evenodd" fill-opacity="1" stroke="#000000" stroke-opacity="1" stroke-width="3.84"/>
<circle clip-path="url(#clip782)" cx="1969.72" cy="864.192" r="14.4" fill="#009af9" fill-rule="evenodd" fill-opacity="1" stroke="#000000" stroke-opacity="1" stroke-width="3.84"/>
<circle clip-path="url(#clip782)" cx="1969.72" cy="661.023" r="14.4" fill="#009af9" fill-rule="evenodd" fill-opacity="1" stroke="#000000" stroke-opacity="1" stroke-width="3.84"/>
<circle clip-path="url(#clip782)" cx="1969.72" cy="563.871" r="14.4" fill="#009af9" fill-rule="evenodd" fill-opacity="1" stroke="#000000" stroke-opacity="1" stroke-width="3.84"/>
<circle clip-path="url(#clip782)" cx="1969.72" cy="524.541" r="14.4" fill="#009af9" fill-rule="evenodd" fill-opacity="1" stroke="#000000" stroke-opacity="1" stroke-width="3.84"/>
<circle clip-path="url(#clip782)" cx="1969.72" cy="514.9" r="14.4" fill="#009af9" fill-rule="evenodd" fill-opacity="1" stroke="#000000" stroke-opacity="1" stroke-width="3.84"/>
<circle clip-path="url(#clip782)" cx="1969.72" cy="386.933" r="14.4" fill="#009af9" fill-rule="evenodd" fill-opacity="1" stroke="#000000" stroke-opacity="1" stroke-width="3.84"/>
<circle clip-path="url(#clip782)" cx="1969.72" cy="222.298" r="14.4" fill="#009af9" fill-rule="evenodd" fill-opacity="1" stroke="#000000" stroke-opacity="1" stroke-width="3.84"/>
<circle clip-path="url(#clip782)" cx="2055.64" cy="611.434" r="14.4" fill="#009af9" fill-rule="evenodd" fill-opacity="1" stroke="#000000" stroke-opacity="1" stroke-width="3.84"/>
<circle clip-path="url(#clip782)" cx="2055.64" cy="537.512" r="14.4" fill="#009af9" fill-rule="evenodd" fill-opacity="1" stroke="#000000" stroke-opacity="1" stroke-width="3.84"/>
<circle clip-path="url(#clip782)" cx="2055.64" cy="452.42" r="14.4" fill="#009af9" fill-rule="evenodd" fill-opacity="1" stroke="#000000" stroke-opacity="1" stroke-width="3.84"/>
<circle clip-path="url(#clip782)" cx="2055.64" cy="431.237" r="14.4" fill="#009af9" fill-rule="evenodd" fill-opacity="1" stroke="#000000" stroke-opacity="1" stroke-width="3.84"/>
<circle clip-path="url(#clip782)" cx="2141.56" cy="452.42" r="14.4" fill="#009af9" fill-rule="evenodd" fill-opacity="1" stroke="#000000" stroke-opacity="1" stroke-width="3.84"/>
<circle clip-path="url(#clip782)" cx="2141.56" cy="386.933" r="14.4" fill="#009af9" fill-rule="evenodd" fill-opacity="1" stroke="#000000" stroke-opacity="1" stroke-width="3.84"/>
<circle clip-path="url(#clip782)" cx="2141.56" cy="384.03" r="14.4" fill="#009af9" fill-rule="evenodd" fill-opacity="1" stroke="#000000" stroke-opacity="1" stroke-width="3.84"/>
<circle clip-path="url(#clip782)" cx="2141.56" cy="332.765" r="14.4" fill="#009af9" fill-rule="evenodd" fill-opacity="1" stroke="#000000" stroke-opacity="1" stroke-width="3.84"/>
<circle clip-path="url(#clip782)" cx="2141.56" cy="201.646" r="14.4" fill="#009af9" fill-rule="evenodd" fill-opacity="1" stroke="#000000" stroke-opacity="1" stroke-width="3.84"/>
<circle clip-path="url(#clip782)" cx="2227.48" cy="431.237" r="14.4" fill="#009af9" fill-rule="evenodd" fill-opacity="1" stroke="#000000" stroke-opacity="1" stroke-width="3.84"/>
<circle clip-path="url(#clip782)" cx="2313.4" cy="404.483" r="14.4" fill="#009af9" fill-rule="evenodd" fill-opacity="1" stroke="#000000" stroke-opacity="1" stroke-width="3.84"/>
<circle clip-path="url(#clip782)" cx="2313.4" cy="243.227" r="14.4" fill="#009af9" fill-rule="evenodd" fill-opacity="1" stroke="#000000" stroke-opacity="1" stroke-width="3.84"/>
<circle clip-path="url(#clip782)" cx="2399.32" cy="473.947" r="14.4" fill="#009af9" fill-rule="evenodd" fill-opacity="1" stroke="#000000" stroke-opacity="1" stroke-width="3.84"/>
<circle clip-path="url(#clip782)" cx="2485.24" cy="94.9858" r="14.4" fill="#009af9" fill-rule="evenodd" fill-opacity="1" stroke="#000000" stroke-opacity="1" stroke-width="3.84"/>
<circle clip-path="url(#clip782)" cx="2571.16" cy="452.42" r="14.4" fill="#009af9" fill-rule="evenodd" fill-opacity="1" stroke="#000000" stroke-opacity="1" stroke-width="3.84"/>
</svg>
