<?xml version="1.0" encoding="utf-8"?>
<svg xmlns="http://www.w3.org/2000/svg" xmlns:xlink="http://www.w3.org/1999/xlink" width="672" height="480" viewBox="0 0 2688 1920">
<defs>
  <clipPath id="clip840">
    <rect x="0" y="0" width="2688" height="1920"/>
  </clipPath>
</defs>
<path clip-path="url(#clip840)" d="M0 1920 L2688 1920 L2688 -4.26326e-14 L0 -4.26326e-14  Z" fill="#ffffff" fill-rule="evenodd" fill-opacity="1"/>
<defs>
  <clipPath id="clip841">
    <rect x="537" y="0" width="1883" height="1883"/>
  </clipPath>
</defs>
<path clip-path="url(#clip840)" d="M211.395 1734.12 L2640.76 1734.12 L2640.76 47.2441 L211.395 47.2441  Z" fill="#ffffff" fill-rule="evenodd" fill-opacity="1"/>
<defs>
  <clipPath id="clip842">
    <rect x="211" y="47" width="2430" height="1688"/>
  </clipPath>
</defs>
<polyline clip-path="url(#clip842)" style="stroke:#000000; stroke-linecap:round; stroke-linejoin:round; stroke-width:2; stroke-opacity:0.1; fill:none" points="619.684,1734.12 619.684,47.2441 "/>
<polyline clip-path="url(#clip842)" style="stroke:#000000; stroke-linecap:round; stroke-linejoin:round; stroke-width:2; stroke-opacity:0.1; fill:none" points="1044.1,1734.12 1044.1,47.2441 "/>
<polyline clip-path="url(#clip842)" style="stroke:#000000; stroke-linecap:round; stroke-linejoin:round; stroke-width:2; stroke-opacity:0.1; fill:none" points="1468.52,1734.12 1468.52,47.2441 "/>
<polyline clip-path="url(#clip842)" style="stroke:#000000; stroke-linecap:round; stroke-linejoin:round; stroke-width:2; stroke-opacity:0.1; fill:none" points="1892.93,1734.12 1892.93,47.2441 "/>
<polyline clip-path="url(#clip842)" style="stroke:#000000; stroke-linecap:round; stroke-linejoin:round; stroke-width:2; stroke-opacity:0.1; fill:none" points="2317.35,1734.12 2317.35,47.2441 "/>
<polyline clip-path="url(#clip842)" style="stroke:#000000; stroke-linecap:round; stroke-linejoin:round; stroke-width:2; stroke-opacity:0.1; fill:none" points="211.395,1687.91 2640.76,1687.91 "/>
<polyline clip-path="url(#clip842)" style="stroke:#000000; stroke-linecap:round; stroke-linejoin:round; stroke-width:2; stroke-opacity:0.1; fill:none" points="211.395,1291.4 2640.76,1291.4 "/>
<polyline clip-path="url(#clip842)" style="stroke:#000000; stroke-linecap:round; stroke-linejoin:round; stroke-width:2; stroke-opacity:0.1; fill:none" points="211.395,894.891 2640.76,894.891 "/>
<polyline clip-path="url(#clip842)" style="stroke:#000000; stroke-linecap:round; stroke-linejoin:round; stroke-width:2; stroke-opacity:0.1; fill:none" points="211.395,498.383 2640.76,498.383 "/>
<polyline clip-path="url(#clip842)" style="stroke:#000000; stroke-linecap:round; stroke-linejoin:round; stroke-width:2; stroke-opacity:0.1; fill:none" points="211.395,101.875 2640.76,101.875 "/>
<polyline clip-path="url(#clip840)" style="stroke:#000000; stroke-linecap:round; stroke-linejoin:round; stroke-width:4; stroke-opacity:1; fill:none" points="211.395,1734.12 2640.76,1734.12 "/>
<polyline clip-path="url(#clip840)" style="stroke:#000000; stroke-linecap:round; stroke-linejoin:round; stroke-width:4; stroke-opacity:1; fill:none" points="619.684,1734.12 619.684,1715.22 "/>
<polyline clip-path="url(#clip840)" style="stroke:#000000; stroke-linecap:round; stroke-linejoin:round; stroke-width:4; stroke-opacity:1; fill:none" points="1044.1,1734.12 1044.1,1715.22 "/>
<polyline clip-path="url(#clip840)" style="stroke:#000000; stroke-linecap:round; stroke-linejoin:round; stroke-width:4; stroke-opacity:1; fill:none" points="1468.52,1734.12 1468.52,1715.22 "/>
<polyline clip-path="url(#clip840)" style="stroke:#000000; stroke-linecap:round; stroke-linejoin:round; stroke-width:4; stroke-opacity:1; fill:none" points="1892.93,1734.12 1892.93,1715.22 "/>
<polyline clip-path="url(#clip840)" style="stroke:#000000; stroke-linecap:round; stroke-linejoin:round; stroke-width:4; stroke-opacity:1; fill:none" points="2317.35,1734.12 2317.35,1715.22 "/>
<path clip-path="url(#clip840)" d="M609.962 1764.26 L628.318 1764.26 L628.318 1768.2 L614.244 1768.2 L614.244 1776.67 Q615.263 1776.32 616.281 1776.16 Q617.3 1775.97 618.318 1775.97 Q624.105 1775.97 627.485 1779.15 Q630.865 1782.32 630.865 1787.73 Q630.865 1793.31 627.392 1796.41 Q623.92 1799.49 617.601 1799.49 Q615.425 1799.49 613.156 1799.12 Q610.911 1798.75 608.504 1798.01 L608.504 1793.31 Q610.587 1794.45 612.809 1795 Q615.031 1795.56 617.508 1795.56 Q621.513 1795.56 623.851 1793.45 Q626.189 1791.34 626.189 1787.73 Q626.189 1784.12 623.851 1782.02 Q621.513 1779.91 617.508 1779.91 Q615.633 1779.91 613.758 1780.33 Q611.906 1780.74 609.962 1781.62 L609.962 1764.26 Z" fill="#000000" fill-rule="nonzero" fill-opacity="1" /><path clip-path="url(#clip840)" d="M1018.79 1794.89 L1026.43 1794.89 L1026.43 1768.52 L1018.12 1770.19 L1018.12 1765.93 L1026.38 1764.26 L1031.06 1764.26 L1031.06 1794.89 L1038.7 1794.89 L1038.7 1798.82 L1018.79 1798.82 L1018.79 1794.89 Z" fill="#000000" fill-rule="nonzero" fill-opacity="1" /><path clip-path="url(#clip840)" d="M1058.14 1767.34 Q1054.53 1767.34 1052.7 1770.9 Q1050.89 1774.45 1050.89 1781.58 Q1050.89 1788.68 1052.7 1792.25 Q1054.53 1795.79 1058.14 1795.79 Q1061.77 1795.79 1063.58 1792.25 Q1065.41 1788.68 1065.41 1781.58 Q1065.41 1774.45 1063.58 1770.9 Q1061.77 1767.34 1058.14 1767.34 M1058.14 1763.64 Q1063.95 1763.64 1067.01 1768.24 Q1070.08 1772.83 1070.08 1781.58 Q1070.08 1790.3 1067.01 1794.91 Q1063.95 1799.49 1058.14 1799.49 Q1052.33 1799.49 1049.25 1794.91 Q1046.2 1790.3 1046.2 1781.58 Q1046.2 1772.83 1049.25 1768.24 Q1052.33 1763.64 1058.14 1763.64 Z" fill="#000000" fill-rule="nonzero" fill-opacity="1" /><path clip-path="url(#clip840)" d="M1443.7 1794.89 L1451.34 1794.89 L1451.34 1768.52 L1443.03 1770.19 L1443.03 1765.93 L1451.3 1764.26 L1455.97 1764.26 L1455.97 1794.89 L1463.61 1794.89 L1463.61 1798.82 L1443.7 1798.82 L1443.7 1794.89 Z" fill="#000000" fill-rule="nonzero" fill-opacity="1" /><path clip-path="url(#clip840)" d="M1473.1 1764.26 L1491.46 1764.26 L1491.46 1768.2 L1477.38 1768.2 L1477.38 1776.67 Q1478.4 1776.32 1479.42 1776.16 Q1480.44 1775.97 1481.46 1775.97 Q1487.24 1775.97 1490.62 1779.15 Q1494 1782.32 1494 1787.73 Q1494 1793.31 1490.53 1796.41 Q1487.06 1799.49 1480.74 1799.49 Q1478.56 1799.49 1476.29 1799.12 Q1474.05 1798.75 1471.64 1798.01 L1471.64 1793.31 Q1473.73 1794.45 1475.95 1795 Q1478.17 1795.56 1480.65 1795.56 Q1484.65 1795.56 1486.99 1793.45 Q1489.33 1791.34 1489.33 1787.73 Q1489.33 1784.12 1486.99 1782.02 Q1484.65 1779.91 1480.65 1779.91 Q1478.77 1779.91 1476.9 1780.33 Q1475.04 1780.74 1473.1 1781.62 L1473.1 1764.26 Z" fill="#000000" fill-rule="nonzero" fill-opacity="1" /><path clip-path="url(#clip840)" d="M1871.71 1794.89 L1888.03 1794.89 L1888.03 1798.82 L1866.08 1798.82 L1866.08 1794.89 Q1868.74 1792.13 1873.33 1787.5 Q1877.93 1782.85 1879.11 1781.51 Q1881.36 1778.98 1882.24 1777.25 Q1883.14 1775.49 1883.14 1773.8 Q1883.14 1771.04 1881.2 1769.31 Q1879.28 1767.57 1876.17 1767.57 Q1873.98 1767.57 1871.52 1768.34 Q1869.09 1769.1 1866.31 1770.65 L1866.31 1765.93 Q1869.14 1764.79 1871.59 1764.21 Q1874.05 1763.64 1876.08 1763.64 Q1881.45 1763.64 1884.65 1766.32 Q1887.84 1769.01 1887.84 1773.5 Q1887.84 1775.63 1887.03 1777.55 Q1886.24 1779.45 1884.14 1782.04 Q1883.56 1782.71 1880.46 1785.93 Q1877.36 1789.12 1871.71 1794.89 Z" fill="#000000" fill-rule="nonzero" fill-opacity="1" /><path clip-path="url(#clip840)" d="M1907.84 1767.34 Q1904.23 1767.34 1902.4 1770.9 Q1900.6 1774.45 1900.6 1781.58 Q1900.6 1788.68 1902.4 1792.25 Q1904.23 1795.79 1907.84 1795.79 Q1911.48 1795.79 1913.28 1792.25 Q1915.11 1788.68 1915.11 1781.58 Q1915.11 1774.45 1913.28 1770.9 Q1911.48 1767.34 1907.84 1767.34 M1907.84 1763.64 Q1913.65 1763.64 1916.71 1768.24 Q1919.79 1772.83 1919.79 1781.58 Q1919.79 1790.3 1916.71 1794.91 Q1913.65 1799.49 1907.84 1799.49 Q1902.03 1799.49 1898.95 1794.91 Q1895.9 1790.3 1895.9 1781.58 Q1895.9 1772.83 1898.95 1768.24 Q1902.03 1763.64 1907.84 1763.64 Z" fill="#000000" fill-rule="nonzero" fill-opacity="1" /><path clip-path="url(#clip840)" d="M2296.62 1794.89 L2312.94 1794.89 L2312.94 1798.82 L2291 1798.82 L2291 1794.89 Q2293.66 1792.13 2298.24 1787.5 Q2302.85 1782.85 2304.03 1781.51 Q2306.27 1778.98 2307.15 1777.25 Q2308.06 1775.49 2308.06 1773.8 Q2308.06 1771.04 2306.11 1769.31 Q2304.19 1767.57 2301.09 1767.57 Q2298.89 1767.57 2296.44 1768.34 Q2294.01 1769.1 2291.23 1770.65 L2291.23 1765.93 Q2294.05 1764.79 2296.51 1764.21 Q2298.96 1763.64 2301 1763.64 Q2306.37 1763.64 2309.56 1766.32 Q2312.76 1769.01 2312.76 1773.5 Q2312.76 1775.63 2311.95 1777.55 Q2311.16 1779.45 2309.05 1782.04 Q2308.47 1782.71 2305.37 1785.93 Q2302.27 1789.12 2296.62 1794.89 Z" fill="#000000" fill-rule="nonzero" fill-opacity="1" /><path clip-path="url(#clip840)" d="M2322.8 1764.26 L2341.16 1764.26 L2341.16 1768.2 L2327.08 1768.2 L2327.08 1776.67 Q2328.1 1776.32 2329.12 1776.16 Q2330.14 1775.97 2331.16 1775.97 Q2336.95 1775.97 2340.32 1779.15 Q2343.7 1782.32 2343.7 1787.73 Q2343.7 1793.31 2340.23 1796.41 Q2336.76 1799.49 2330.44 1799.49 Q2328.26 1799.49 2326 1799.12 Q2323.75 1798.75 2321.34 1798.01 L2321.34 1793.31 Q2323.43 1794.45 2325.65 1795 Q2327.87 1795.56 2330.35 1795.56 Q2334.35 1795.56 2336.69 1793.45 Q2339.03 1791.34 2339.03 1787.73 Q2339.03 1784.12 2336.69 1782.02 Q2334.35 1779.91 2330.35 1779.91 Q2328.47 1779.91 2326.6 1780.33 Q2324.75 1780.74 2322.8 1781.62 L2322.8 1764.26 Z" fill="#000000" fill-rule="nonzero" fill-opacity="1" /><path clip-path="url(#clip840)" d="M1387.48 1865.38 Q1380.39 1865.38 1377.65 1867 Q1374.91 1868.63 1374.91 1872.54 Q1374.91 1875.66 1376.95 1877.51 Q1379.02 1879.32 1382.55 1879.32 Q1387.42 1879.32 1390.35 1875.88 Q1393.31 1872.42 1393.31 1866.69 L1393.31 1865.38 L1387.48 1865.38 M1399.16 1862.96 L1399.16 1883.3 L1393.31 1883.3 L1393.31 1877.89 Q1391.3 1881.14 1388.31 1882.7 Q1385.32 1884.22 1380.99 1884.22 Q1375.52 1884.22 1372.27 1881.17 Q1369.05 1878.08 1369.05 1872.92 Q1369.05 1866.91 1373.07 1863.85 Q1377.11 1860.8 1385.1 1860.8 L1393.31 1860.8 L1393.31 1860.23 Q1393.31 1856.18 1390.63 1853.99 Q1387.99 1851.76 1383.19 1851.76 Q1380.13 1851.76 1377.23 1852.49 Q1374.34 1853.22 1371.66 1854.69 L1371.66 1849.28 Q1374.88 1848.03 1377.9 1847.43 Q1380.93 1846.79 1383.79 1846.79 Q1391.53 1846.79 1395.35 1850.8 Q1399.16 1854.81 1399.16 1862.96 Z" fill="#000000" fill-rule="nonzero" fill-opacity="1" /><path clip-path="url(#clip840)" d="M1434.69 1865.06 Q1434.69 1858.7 1432.04 1855.2 Q1429.43 1851.7 1424.69 1851.7 Q1419.98 1851.7 1417.34 1855.2 Q1414.73 1858.7 1414.73 1865.06 Q1414.73 1871.4 1417.34 1874.9 Q1419.98 1878.4 1424.69 1878.4 Q1429.43 1878.4 1432.04 1874.9 Q1434.69 1871.4 1434.69 1865.06 M1440.54 1878.88 Q1440.54 1887.98 1436.5 1892.4 Q1432.46 1896.86 1424.12 1896.86 Q1421.03 1896.86 1418.29 1896.38 Q1415.56 1895.94 1412.98 1894.98 L1412.98 1889.28 Q1415.56 1890.69 1418.07 1891.35 Q1420.59 1892.02 1423.2 1892.02 Q1428.96 1892.02 1431.82 1889 Q1434.69 1886.01 1434.69 1879.93 L1434.69 1877.03 Q1432.87 1880.18 1430.04 1881.74 Q1427.21 1883.3 1423.26 1883.3 Q1416.7 1883.3 1412.69 1878.3 Q1408.68 1873.31 1408.68 1865.06 Q1408.68 1856.79 1412.69 1851.79 Q1416.7 1846.79 1423.26 1846.79 Q1427.21 1846.79 1430.04 1848.35 Q1432.87 1849.91 1434.69 1853.06 L1434.69 1847.65 L1440.54 1847.65 L1440.54 1878.88 Z" fill="#000000" fill-rule="nonzero" fill-opacity="1" /><path clip-path="url(#clip840)" d="M1483.1 1864.01 L1483.1 1866.88 L1456.17 1866.88 Q1456.55 1872.92 1459.8 1876.11 Q1463.08 1879.26 1468.9 1879.26 Q1472.27 1879.26 1475.43 1878.43 Q1478.61 1877.6 1481.73 1875.95 L1481.73 1881.49 Q1478.58 1882.82 1475.27 1883.52 Q1471.96 1884.22 1468.55 1884.22 Q1460.02 1884.22 1455.02 1879.26 Q1450.06 1874.29 1450.06 1865.83 Q1450.06 1857.07 1454.77 1851.95 Q1459.51 1846.79 1467.53 1846.79 Q1474.73 1846.79 1478.9 1851.44 Q1483.1 1856.06 1483.1 1864.01 M1477.24 1862.29 Q1477.18 1857.49 1474.53 1854.62 Q1471.92 1851.76 1467.6 1851.76 Q1462.69 1851.76 1459.73 1854.53 Q1456.81 1857.3 1456.36 1862.33 L1477.24 1862.29 Z" fill="#000000" fill-rule="nonzero" fill-opacity="1" /><polyline clip-path="url(#clip840)" style="stroke:#000000; stroke-linecap:round; stroke-linejoin:round; stroke-width:4; stroke-opacity:1; fill:none" points="211.395,1734.12 211.395,47.2441 "/>
<polyline clip-path="url(#clip840)" style="stroke:#000000; stroke-linecap:round; stroke-linejoin:round; stroke-width:4; stroke-opacity:1; fill:none" points="211.395,1687.91 230.293,1687.91 "/>
<polyline clip-path="url(#clip840)" style="stroke:#000000; stroke-linecap:round; stroke-linejoin:round; stroke-width:4; stroke-opacity:1; fill:none" points="211.395,1291.4 230.293,1291.4 "/>
<polyline clip-path="url(#clip840)" style="stroke:#000000; stroke-linecap:round; stroke-linejoin:round; stroke-width:4; stroke-opacity:1; fill:none" points="211.395,894.891 230.293,894.891 "/>
<polyline clip-path="url(#clip840)" style="stroke:#000000; stroke-linecap:round; stroke-linejoin:round; stroke-width:4; stroke-opacity:1; fill:none" points="211.395,498.383 230.293,498.383 "/>
<polyline clip-path="url(#clip840)" style="stroke:#000000; stroke-linecap:round; stroke-linejoin:round; stroke-width:4; stroke-opacity:1; fill:none" points="211.395,101.875 230.293,101.875 "/>
<path clip-path="url(#clip840)" d="M159.131 1673.71 Q155.52 1673.71 153.691 1677.27 Q151.886 1680.81 151.886 1687.94 Q151.886 1695.05 153.691 1698.61 Q155.52 1702.15 159.131 1702.15 Q162.765 1702.15 164.571 1698.61 Q166.399 1695.05 166.399 1687.94 Q166.399 1680.81 164.571 1677.27 Q162.765 1673.71 159.131 1673.71 M159.131 1670 Q164.941 1670 167.997 1674.61 Q171.075 1679.19 171.075 1687.94 Q171.075 1696.67 167.997 1701.27 Q164.941 1705.86 159.131 1705.86 Q153.321 1705.86 150.242 1701.27 Q147.186 1696.67 147.186 1687.94 Q147.186 1679.19 150.242 1674.61 Q153.321 1670 159.131 1670 Z" fill="#000000" fill-rule="nonzero" fill-opacity="1" /><path clip-path="url(#clip840)" d="M119.779 1304.74 L127.418 1304.74 L127.418 1278.38 L119.108 1280.04 L119.108 1275.79 L127.372 1274.12 L132.048 1274.12 L132.048 1304.74 L139.687 1304.74 L139.687 1308.68 L119.779 1308.68 L119.779 1304.74 Z" fill="#000000" fill-rule="nonzero" fill-opacity="1" /><path clip-path="url(#clip840)" d="M159.131 1277.2 Q155.52 1277.2 153.691 1280.76 Q151.886 1284.3 151.886 1291.43 Q151.886 1298.54 153.691 1302.1 Q155.52 1305.65 159.131 1305.65 Q162.765 1305.65 164.571 1302.1 Q166.399 1298.54 166.399 1291.43 Q166.399 1284.3 164.571 1280.76 Q162.765 1277.2 159.131 1277.2 M159.131 1273.49 Q164.941 1273.49 167.997 1278.1 Q171.075 1282.68 171.075 1291.43 Q171.075 1300.16 167.997 1304.77 Q164.941 1309.35 159.131 1309.35 Q153.321 1309.35 150.242 1304.77 Q147.186 1300.16 147.186 1291.43 Q147.186 1282.68 150.242 1278.1 Q153.321 1273.49 159.131 1273.49 Z" fill="#000000" fill-rule="nonzero" fill-opacity="1" /><path clip-path="url(#clip840)" d="M122.997 908.236 L139.316 908.236 L139.316 912.171 L117.372 912.171 L117.372 908.236 Q120.034 905.481 124.617 900.852 Q129.224 896.199 130.404 894.856 Q132.65 892.333 133.529 890.597 Q134.432 888.838 134.432 887.148 Q134.432 884.393 132.488 882.657 Q130.566 880.921 127.464 880.921 Q125.265 880.921 122.812 881.685 Q120.381 882.449 117.603 884 L117.603 879.278 Q120.427 878.143 122.881 877.565 Q125.335 876.986 127.372 876.986 Q132.742 876.986 135.937 879.671 Q139.131 882.356 139.131 886.847 Q139.131 888.977 138.321 890.898 Q137.534 892.796 135.427 895.389 Q134.849 896.06 131.747 899.278 Q128.645 902.472 122.997 908.236 Z" fill="#000000" fill-rule="nonzero" fill-opacity="1" /><path clip-path="url(#clip840)" d="M159.131 880.69 Q155.52 880.69 153.691 884.255 Q151.886 887.796 151.886 894.926 Q151.886 902.032 153.691 905.597 Q155.52 909.139 159.131 909.139 Q162.765 909.139 164.571 905.597 Q166.399 902.032 166.399 894.926 Q166.399 887.796 164.571 884.255 Q162.765 880.69 159.131 880.69 M159.131 876.986 Q164.941 876.986 167.997 881.593 Q171.075 886.176 171.075 894.926 Q171.075 903.653 167.997 908.259 Q164.941 912.842 159.131 912.842 Q153.321 912.842 150.242 908.259 Q147.186 903.653 147.186 894.926 Q147.186 886.176 150.242 881.593 Q153.321 876.986 159.131 876.986 Z" fill="#000000" fill-rule="nonzero" fill-opacity="1" /><path clip-path="url(#clip840)" d="M133.136 497.029 Q136.492 497.747 138.367 500.015 Q140.265 502.284 140.265 505.617 Q140.265 510.733 136.747 513.534 Q133.228 516.334 126.747 516.334 Q124.571 516.334 122.256 515.895 Q119.964 515.478 117.511 514.622 L117.511 510.108 Q119.455 511.242 121.77 511.821 Q124.085 512.399 126.608 512.399 Q131.006 512.399 133.298 510.663 Q135.612 508.927 135.612 505.617 Q135.612 502.561 133.46 500.848 Q131.33 499.112 127.511 499.112 L123.483 499.112 L123.483 495.27 L127.696 495.27 Q131.145 495.27 132.974 493.904 Q134.802 492.515 134.802 489.923 Q134.802 487.261 132.904 485.849 Q131.029 484.413 127.511 484.413 Q125.589 484.413 123.39 484.83 Q121.191 485.247 118.552 486.126 L118.552 481.96 Q121.214 481.219 123.529 480.849 Q125.867 480.478 127.927 480.478 Q133.251 480.478 136.353 482.909 Q139.455 485.316 139.455 489.436 Q139.455 492.307 137.812 494.298 Q136.168 496.265 133.136 497.029 Z" fill="#000000" fill-rule="nonzero" fill-opacity="1" /><path clip-path="url(#clip840)" d="M159.131 484.182 Q155.52 484.182 153.691 487.747 Q151.886 491.288 151.886 498.418 Q151.886 505.524 153.691 509.089 Q155.52 512.631 159.131 512.631 Q162.765 512.631 164.571 509.089 Q166.399 505.524 166.399 498.418 Q166.399 491.288 164.571 487.747 Q162.765 484.182 159.131 484.182 M159.131 480.478 Q164.941 480.478 167.997 485.085 Q171.075 489.668 171.075 498.418 Q171.075 507.145 167.997 511.751 Q164.941 516.334 159.131 516.334 Q153.321 516.334 150.242 511.751 Q147.186 507.145 147.186 498.418 Q147.186 489.668 150.242 485.085 Q153.321 480.478 159.131 480.478 Z" fill="#000000" fill-rule="nonzero" fill-opacity="1" /><path clip-path="url(#clip840)" d="M131.816 88.6694 L120.011 107.118 L131.816 107.118 L131.816 88.6694 M130.589 84.5953 L136.469 84.5953 L136.469 107.118 L141.399 107.118 L141.399 111.007 L136.469 111.007 L136.469 119.155 L131.816 119.155 L131.816 111.007 L116.214 111.007 L116.214 106.493 L130.589 84.5953 Z" fill="#000000" fill-rule="nonzero" fill-opacity="1" /><path clip-path="url(#clip840)" d="M159.131 87.674 Q155.52 87.674 153.691 91.2388 Q151.886 94.7805 151.886 101.91 Q151.886 109.016 153.691 112.581 Q155.52 116.123 159.131 116.123 Q162.765 116.123 164.571 112.581 Q166.399 109.016 166.399 101.91 Q166.399 94.7805 164.571 91.2388 Q162.765 87.674 159.131 87.674 M159.131 83.9703 Q164.941 83.9703 167.997 88.5768 Q171.075 93.1601 171.075 101.91 Q171.075 110.637 167.997 115.243 Q164.941 119.827 159.131 119.827 Q153.321 119.827 150.242 115.243 Q147.186 110.637 147.186 101.91 Q147.186 93.1601 150.242 88.5768 Q153.321 83.9703 159.131 83.9703 Z" fill="#000000" fill-rule="nonzero" fill-opacity="1" /><path clip-path="url(#clip840)" d="M25.9905 1008.72 L25.9905 1002.51 L55.9093 991.37 L25.9905 980.23 L25.9905 974.024 L61.6384 987.392 L61.6384 995.349 L25.9905 1008.72 Z" fill="#000000" fill-rule="nonzero" fill-opacity="1" /><path clip-path="url(#clip840)" d="M30.0964 952.126 Q30.0964 956.836 33.7885 959.573 Q37.4488 962.311 43.8463 962.311 Q50.2438 962.311 53.9359 959.605 Q57.5962 956.868 57.5962 952.126 Q57.5962 947.447 53.9041 944.709 Q50.212 941.972 43.8463 941.972 Q37.5124 941.972 33.8203 944.709 Q30.0964 947.447 30.0964 952.126 M25.1311 952.126 Q25.1311 944.487 30.0964 940.126 Q35.0616 935.766 43.8463 935.766 Q52.5991 935.766 57.5962 940.126 Q62.5615 944.487 62.5615 952.126 Q62.5615 959.796 57.5962 964.157 Q52.5991 968.485 43.8463 968.485 Q35.0616 968.485 30.0964 964.157 Q25.1311 959.796 25.1311 952.126 Z" fill="#000000" fill-rule="nonzero" fill-opacity="1" /><path clip-path="url(#clip840)" d="M12.1132 926.058 L12.1132 920.202 L61.6384 920.202 L61.6384 926.058 L12.1132 926.058 Z" fill="#000000" fill-rule="nonzero" fill-opacity="1" /><path clip-path="url(#clip840)" d="M47.5702 908.552 L25.9905 908.552 L25.9905 902.696 L47.3474 902.696 Q52.4082 902.696 54.9545 900.722 Q57.4689 898.749 57.4689 894.802 Q57.4689 890.06 54.4452 887.323 Q51.4215 884.554 46.2016 884.554 L25.9905 884.554 L25.9905 878.697 L61.6384 878.697 L61.6384 884.554 L56.1639 884.554 Q59.4104 886.686 61.0019 889.519 Q62.5615 892.32 62.5615 896.044 Q62.5615 902.187 58.742 905.369 Q54.9226 908.552 47.5702 908.552 M25.1311 893.816 L25.1311 893.816 Z" fill="#000000" fill-rule="nonzero" fill-opacity="1" /><path clip-path="url(#clip840)" d="M32.8336 838.88 Q28.8869 836.683 27.009 833.628 Q25.1311 830.572 25.1311 826.435 Q25.1311 820.865 29.046 817.841 Q32.9291 814.817 40.1224 814.817 L61.6384 814.817 L61.6384 820.706 L40.3133 820.706 Q35.1889 820.706 32.7063 822.52 Q30.2237 824.334 30.2237 828.058 Q30.2237 832.609 33.2474 835.251 Q36.2711 837.893 41.491 837.893 L61.6384 837.893 L61.6384 843.781 L40.3133 843.781 Q35.1571 843.781 32.7063 845.595 Q30.2237 847.41 30.2237 851.197 Q30.2237 855.685 33.2792 858.327 Q36.3029 860.969 41.491 860.969 L61.6384 860.969 L61.6384 866.857 L25.9905 866.857 L25.9905 860.969 L31.5287 860.969 Q28.2503 858.963 26.6907 856.162 Q25.1311 853.362 25.1311 849.51 Q25.1311 845.627 27.1045 842.922 Q29.0779 840.185 32.8336 838.88 Z" fill="#000000" fill-rule="nonzero" fill-opacity="1" /><path clip-path="url(#clip840)" d="M42.3504 772.644 L45.2149 772.644 L45.2149 799.571 Q51.2623 799.189 54.4452 795.943 Q57.5962 792.665 57.5962 786.84 Q57.5962 783.466 56.7687 780.315 Q55.9411 777.132 54.2861 774.013 L59.8242 774.013 Q61.161 777.164 61.8612 780.474 Q62.5615 783.784 62.5615 787.19 Q62.5615 795.72 57.5962 800.717 Q52.631 805.682 44.1646 805.682 Q35.4117 805.682 30.2873 800.972 Q25.1311 796.229 25.1311 788.209 Q25.1311 781.015 29.7781 776.846 Q34.3932 772.644 42.3504 772.644 M40.6316 778.501 Q35.8255 778.565 32.9609 781.206 Q30.0964 783.816 30.0964 788.145 Q30.0964 793.047 32.8654 796.007 Q35.6345 798.935 40.6634 799.38 L40.6316 778.501 Z" fill="#000000" fill-rule="nonzero" fill-opacity="1" /><circle clip-path="url(#clip842)" cx="280.151" cy="1683.94" r="14.4" fill="#009af9" fill-rule="evenodd" fill-opacity="1" stroke="#000000" stroke-opacity="1" stroke-width="3.84"/>
<circle clip-path="url(#clip842)" cx="365.034" cy="1683.94" r="14.4" fill="#009af9" fill-rule="evenodd" fill-opacity="1" stroke="#000000" stroke-opacity="1" stroke-width="3.84"/>
<circle clip-path="url(#clip842)" cx="449.917" cy="1683.94" r="14.4" fill="#009af9" fill-rule="evenodd" fill-opacity="1" stroke="#000000" stroke-opacity="1" stroke-width="3.84"/>
<circle clip-path="url(#clip842)" cx="534.801" cy="1683.94" r="14.4" fill="#009af9" fill-rule="evenodd" fill-opacity="1" stroke="#000000" stroke-opacity="1" stroke-width="3.84"/>
<circle clip-path="url(#clip842)" cx="534.801" cy="1664.12" r="14.4" fill="#009af9" fill-rule="evenodd" fill-opacity="1" stroke="#000000" stroke-opacity="1" stroke-width="3.84"/>
<circle clip-path="url(#clip842)" cx="619.684" cy="1668.08" r="14.4" fill="#009af9" fill-rule="evenodd" fill-opacity="1" stroke="#000000" stroke-opacity="1" stroke-width="3.84"/>
<circle clip-path="url(#clip842)" cx="619.684" cy="1668.08" r="14.4" fill="#009af9" fill-rule="evenodd" fill-opacity="1" stroke="#000000" stroke-opacity="1" stroke-width="3.84"/>
<circle clip-path="url(#clip842)" cx="619.684" cy="1648.26" r="14.4" fill="#009af9" fill-rule="evenodd" fill-opacity="1" stroke="#000000" stroke-opacity="1" stroke-width="3.84"/>
<circle clip-path="url(#clip842)" cx="619.684" cy="1628.43" r="14.4" fill="#009af9" fill-rule="evenodd" fill-opacity="1" stroke="#000000" stroke-opacity="1" stroke-width="3.84"/>
<circle clip-path="url(#clip842)" cx="619.684" cy="1620.5" r="14.4" fill="#009af9" fill-rule="evenodd" fill-opacity="1" stroke="#000000" stroke-opacity="1" stroke-width="3.84"/>
<circle clip-path="url(#clip842)" cx="619.684" cy="1553.09" r="14.4" fill="#009af9" fill-rule="evenodd" fill-opacity="1" stroke="#000000" stroke-opacity="1" stroke-width="3.84"/>
<circle clip-path="url(#clip842)" cx="704.567" cy="1628.43" r="14.4" fill="#009af9" fill-rule="evenodd" fill-opacity="1" stroke="#000000" stroke-opacity="1" stroke-width="3.84"/>
<circle clip-path="url(#clip842)" cx="704.567" cy="1596.71" r="14.4" fill="#009af9" fill-rule="evenodd" fill-opacity="1" stroke="#000000" stroke-opacity="1" stroke-width="3.84"/>
<circle clip-path="url(#clip842)" cx="704.567" cy="1576.88" r="14.4" fill="#009af9" fill-rule="evenodd" fill-opacity="1" stroke="#000000" stroke-opacity="1" stroke-width="3.84"/>
<circle clip-path="url(#clip842)" cx="704.567" cy="1529.3" r="14.4" fill="#009af9" fill-rule="evenodd" fill-opacity="1" stroke="#000000" stroke-opacity="1" stroke-width="3.84"/>
<circle clip-path="url(#clip842)" cx="704.567" cy="1509.48" r="14.4" fill="#009af9" fill-rule="evenodd" fill-opacity="1" stroke="#000000" stroke-opacity="1" stroke-width="3.84"/>
<circle clip-path="url(#clip842)" cx="789.451" cy="1640.33" r="14.4" fill="#009af9" fill-rule="evenodd" fill-opacity="1" stroke="#000000" stroke-opacity="1" stroke-width="3.84"/>
<circle clip-path="url(#clip842)" cx="789.451" cy="1612.57" r="14.4" fill="#009af9" fill-rule="evenodd" fill-opacity="1" stroke="#000000" stroke-opacity="1" stroke-width="3.84"/>
<circle clip-path="url(#clip842)" cx="789.451" cy="1584.81" r="14.4" fill="#009af9" fill-rule="evenodd" fill-opacity="1" stroke="#000000" stroke-opacity="1" stroke-width="3.84"/>
<circle clip-path="url(#clip842)" cx="789.451" cy="1561.02" r="14.4" fill="#009af9" fill-rule="evenodd" fill-opacity="1" stroke="#000000" stroke-opacity="1" stroke-width="3.84"/>
<circle clip-path="url(#clip842)" cx="789.451" cy="1529.3" r="14.4" fill="#009af9" fill-rule="evenodd" fill-opacity="1" stroke="#000000" stroke-opacity="1" stroke-width="3.84"/>
<circle clip-path="url(#clip842)" cx="789.451" cy="1501.55" r="14.4" fill="#009af9" fill-rule="evenodd" fill-opacity="1" stroke="#000000" stroke-opacity="1" stroke-width="3.84"/>
<circle clip-path="url(#clip842)" cx="789.451" cy="1442.07" r="14.4" fill="#009af9" fill-rule="evenodd" fill-opacity="1" stroke="#000000" stroke-opacity="1" stroke-width="3.84"/>
<circle clip-path="url(#clip842)" cx="874.334" cy="1624.47" r="14.4" fill="#009af9" fill-rule="evenodd" fill-opacity="1" stroke="#000000" stroke-opacity="1" stroke-width="3.84"/>
<circle clip-path="url(#clip842)" cx="874.334" cy="1604.64" r="14.4" fill="#009af9" fill-rule="evenodd" fill-opacity="1" stroke="#000000" stroke-opacity="1" stroke-width="3.84"/>
<circle clip-path="url(#clip842)" cx="874.334" cy="1592.74" r="14.4" fill="#009af9" fill-rule="evenodd" fill-opacity="1" stroke="#000000" stroke-opacity="1" stroke-width="3.84"/>
<circle clip-path="url(#clip842)" cx="874.334" cy="1572.92" r="14.4" fill="#009af9" fill-rule="evenodd" fill-opacity="1" stroke="#000000" stroke-opacity="1" stroke-width="3.84"/>
<circle clip-path="url(#clip842)" cx="874.334" cy="1545.16" r="14.4" fill="#009af9" fill-rule="evenodd" fill-opacity="1" stroke="#000000" stroke-opacity="1" stroke-width="3.84"/>
<circle clip-path="url(#clip842)" cx="874.334" cy="1529.3" r="14.4" fill="#009af9" fill-rule="evenodd" fill-opacity="1" stroke="#000000" stroke-opacity="1" stroke-width="3.84"/>
<circle clip-path="url(#clip842)" cx="874.334" cy="1517.41" r="14.4" fill="#009af9" fill-rule="evenodd" fill-opacity="1" stroke="#000000" stroke-opacity="1" stroke-width="3.84"/>
<circle clip-path="url(#clip842)" cx="874.334" cy="1497.58" r="14.4" fill="#009af9" fill-rule="evenodd" fill-opacity="1" stroke="#000000" stroke-opacity="1" stroke-width="3.84"/>
<circle clip-path="url(#clip842)" cx="874.334" cy="1450" r="14.4" fill="#009af9" fill-rule="evenodd" fill-opacity="1" stroke="#000000" stroke-opacity="1" stroke-width="3.84"/>
<circle clip-path="url(#clip842)" cx="874.334" cy="1446.04" r="14.4" fill="#009af9" fill-rule="evenodd" fill-opacity="1" stroke="#000000" stroke-opacity="1" stroke-width="3.84"/>
<circle clip-path="url(#clip842)" cx="874.334" cy="1390.53" r="14.4" fill="#009af9" fill-rule="evenodd" fill-opacity="1" stroke="#000000" stroke-opacity="1" stroke-width="3.84"/>
<circle clip-path="url(#clip842)" cx="959.217" cy="1580.85" r="14.4" fill="#009af9" fill-rule="evenodd" fill-opacity="1" stroke="#000000" stroke-opacity="1" stroke-width="3.84"/>
<circle clip-path="url(#clip842)" cx="959.217" cy="1553.09" r="14.4" fill="#009af9" fill-rule="evenodd" fill-opacity="1" stroke="#000000" stroke-opacity="1" stroke-width="3.84"/>
<circle clip-path="url(#clip842)" cx="959.217" cy="1529.3" r="14.4" fill="#009af9" fill-rule="evenodd" fill-opacity="1" stroke="#000000" stroke-opacity="1" stroke-width="3.84"/>
<circle clip-path="url(#clip842)" cx="959.217" cy="1513.44" r="14.4" fill="#009af9" fill-rule="evenodd" fill-opacity="1" stroke="#000000" stroke-opacity="1" stroke-width="3.84"/>
<circle clip-path="url(#clip842)" cx="959.217" cy="1497.58" r="14.4" fill="#009af9" fill-rule="evenodd" fill-opacity="1" stroke="#000000" stroke-opacity="1" stroke-width="3.84"/>
<circle clip-path="url(#clip842)" cx="959.217" cy="1481.72" r="14.4" fill="#009af9" fill-rule="evenodd" fill-opacity="1" stroke="#000000" stroke-opacity="1" stroke-width="3.84"/>
<circle clip-path="url(#clip842)" cx="959.217" cy="1469.83" r="14.4" fill="#009af9" fill-rule="evenodd" fill-opacity="1" stroke="#000000" stroke-opacity="1" stroke-width="3.84"/>
<circle clip-path="url(#clip842)" cx="959.217" cy="1457.93" r="14.4" fill="#009af9" fill-rule="evenodd" fill-opacity="1" stroke="#000000" stroke-opacity="1" stroke-width="3.84"/>
<circle clip-path="url(#clip842)" cx="959.217" cy="1442.07" r="14.4" fill="#009af9" fill-rule="evenodd" fill-opacity="1" stroke="#000000" stroke-opacity="1" stroke-width="3.84"/>
<circle clip-path="url(#clip842)" cx="959.217" cy="1410.35" r="14.4" fill="#009af9" fill-rule="evenodd" fill-opacity="1" stroke="#000000" stroke-opacity="1" stroke-width="3.84"/>
<circle clip-path="url(#clip842)" cx="959.217" cy="1354.84" r="14.4" fill="#009af9" fill-rule="evenodd" fill-opacity="1" stroke="#000000" stroke-opacity="1" stroke-width="3.84"/>
<circle clip-path="url(#clip842)" cx="959.217" cy="1299.33" r="14.4" fill="#009af9" fill-rule="evenodd" fill-opacity="1" stroke="#000000" stroke-opacity="1" stroke-width="3.84"/>
<circle clip-path="url(#clip842)" cx="959.217" cy="1283.47" r="14.4" fill="#009af9" fill-rule="evenodd" fill-opacity="1" stroke="#000000" stroke-opacity="1" stroke-width="3.84"/>
<circle clip-path="url(#clip842)" cx="1044.1" cy="1553.09" r="14.4" fill="#009af9" fill-rule="evenodd" fill-opacity="1" stroke="#000000" stroke-opacity="1" stroke-width="3.84"/>
<circle clip-path="url(#clip842)" cx="1044.1" cy="1533.27" r="14.4" fill="#009af9" fill-rule="evenodd" fill-opacity="1" stroke="#000000" stroke-opacity="1" stroke-width="3.84"/>
<circle clip-path="url(#clip842)" cx="1044.1" cy="1501.55" r="14.4" fill="#009af9" fill-rule="evenodd" fill-opacity="1" stroke="#000000" stroke-opacity="1" stroke-width="3.84"/>
<circle clip-path="url(#clip842)" cx="1044.1" cy="1465.86" r="14.4" fill="#009af9" fill-rule="evenodd" fill-opacity="1" stroke="#000000" stroke-opacity="1" stroke-width="3.84"/>
<circle clip-path="url(#clip842)" cx="1044.1" cy="1442.07" r="14.4" fill="#009af9" fill-rule="evenodd" fill-opacity="1" stroke="#000000" stroke-opacity="1" stroke-width="3.84"/>
<circle clip-path="url(#clip842)" cx="1044.1" cy="1378.63" r="14.4" fill="#009af9" fill-rule="evenodd" fill-opacity="1" stroke="#000000" stroke-opacity="1" stroke-width="3.84"/>
<circle clip-path="url(#clip842)" cx="1044.1" cy="1358.81" r="14.4" fill="#009af9" fill-rule="evenodd" fill-opacity="1" stroke="#000000" stroke-opacity="1" stroke-width="3.84"/>
<circle clip-path="url(#clip842)" cx="1044.1" cy="1319.15" r="14.4" fill="#009af9" fill-rule="evenodd" fill-opacity="1" stroke="#000000" stroke-opacity="1" stroke-width="3.84"/>
<circle clip-path="url(#clip842)" cx="1128.98" cy="1549.13" r="14.4" fill="#009af9" fill-rule="evenodd" fill-opacity="1" stroke="#000000" stroke-opacity="1" stroke-width="3.84"/>
<circle clip-path="url(#clip842)" cx="1128.98" cy="1529.3" r="14.4" fill="#009af9" fill-rule="evenodd" fill-opacity="1" stroke="#000000" stroke-opacity="1" stroke-width="3.84"/>
<circle clip-path="url(#clip842)" cx="1128.98" cy="1505.51" r="14.4" fill="#009af9" fill-rule="evenodd" fill-opacity="1" stroke="#000000" stroke-opacity="1" stroke-width="3.84"/>
<circle clip-path="url(#clip842)" cx="1128.98" cy="1465.86" r="14.4" fill="#009af9" fill-rule="evenodd" fill-opacity="1" stroke="#000000" stroke-opacity="1" stroke-width="3.84"/>
<circle clip-path="url(#clip842)" cx="1128.98" cy="1446.04" r="14.4" fill="#009af9" fill-rule="evenodd" fill-opacity="1" stroke="#000000" stroke-opacity="1" stroke-width="3.84"/>
<circle clip-path="url(#clip842)" cx="1128.98" cy="1414.32" r="14.4" fill="#009af9" fill-rule="evenodd" fill-opacity="1" stroke="#000000" stroke-opacity="1" stroke-width="3.84"/>
<circle clip-path="url(#clip842)" cx="1128.98" cy="1398.46" r="14.4" fill="#009af9" fill-rule="evenodd" fill-opacity="1" stroke="#000000" stroke-opacity="1" stroke-width="3.84"/>
<circle clip-path="url(#clip842)" cx="1128.98" cy="1354.84" r="14.4" fill="#009af9" fill-rule="evenodd" fill-opacity="1" stroke="#000000" stroke-opacity="1" stroke-width="3.84"/>
<circle clip-path="url(#clip842)" cx="1128.98" cy="1319.15" r="14.4" fill="#009af9" fill-rule="evenodd" fill-opacity="1" stroke="#000000" stroke-opacity="1" stroke-width="3.84"/>
<circle clip-path="url(#clip842)" cx="1128.98" cy="1263.64" r="14.4" fill="#009af9" fill-rule="evenodd" fill-opacity="1" stroke="#000000" stroke-opacity="1" stroke-width="3.84"/>
<circle clip-path="url(#clip842)" cx="1213.87" cy="1350.88" r="14.4" fill="#009af9" fill-rule="evenodd" fill-opacity="1" stroke="#000000" stroke-opacity="1" stroke-width="3.84"/>
<circle clip-path="url(#clip842)" cx="1213.87" cy="1283.47" r="14.4" fill="#009af9" fill-rule="evenodd" fill-opacity="1" stroke="#000000" stroke-opacity="1" stroke-width="3.84"/>
<circle clip-path="url(#clip842)" cx="1213.87" cy="1259.68" r="14.4" fill="#009af9" fill-rule="evenodd" fill-opacity="1" stroke="#000000" stroke-opacity="1" stroke-width="3.84"/>
<circle clip-path="url(#clip842)" cx="1213.87" cy="1184.34" r="14.4" fill="#009af9" fill-rule="evenodd" fill-opacity="1" stroke="#000000" stroke-opacity="1" stroke-width="3.84"/>
<circle clip-path="url(#clip842)" cx="1213.87" cy="1140.73" r="14.4" fill="#009af9" fill-rule="evenodd" fill-opacity="1" stroke="#000000" stroke-opacity="1" stroke-width="3.84"/>
<circle clip-path="url(#clip842)" cx="1213.87" cy="1093.14" r="14.4" fill="#009af9" fill-rule="evenodd" fill-opacity="1" stroke="#000000" stroke-opacity="1" stroke-width="3.84"/>
<circle clip-path="url(#clip842)" cx="1298.75" cy="1366.74" r="14.4" fill="#009af9" fill-rule="evenodd" fill-opacity="1" stroke="#000000" stroke-opacity="1" stroke-width="3.84"/>
<circle clip-path="url(#clip842)" cx="1298.75" cy="1335.01" r="14.4" fill="#009af9" fill-rule="evenodd" fill-opacity="1" stroke="#000000" stroke-opacity="1" stroke-width="3.84"/>
<circle clip-path="url(#clip842)" cx="1298.75" cy="1279.5" r="14.4" fill="#009af9" fill-rule="evenodd" fill-opacity="1" stroke="#000000" stroke-opacity="1" stroke-width="3.84"/>
<circle clip-path="url(#clip842)" cx="1298.75" cy="1223.99" r="14.4" fill="#009af9" fill-rule="evenodd" fill-opacity="1" stroke="#000000" stroke-opacity="1" stroke-width="3.84"/>
<circle clip-path="url(#clip842)" cx="1298.75" cy="1204.17" r="14.4" fill="#009af9" fill-rule="evenodd" fill-opacity="1" stroke="#000000" stroke-opacity="1" stroke-width="3.84"/>
<circle clip-path="url(#clip842)" cx="1298.75" cy="1164.52" r="14.4" fill="#009af9" fill-rule="evenodd" fill-opacity="1" stroke="#000000" stroke-opacity="1" stroke-width="3.84"/>
<circle clip-path="url(#clip842)" cx="1383.63" cy="1319.15" r="14.4" fill="#009af9" fill-rule="evenodd" fill-opacity="1" stroke="#000000" stroke-opacity="1" stroke-width="3.84"/>
<circle clip-path="url(#clip842)" cx="1383.63" cy="1279.5" r="14.4" fill="#009af9" fill-rule="evenodd" fill-opacity="1" stroke="#000000" stroke-opacity="1" stroke-width="3.84"/>
<circle clip-path="url(#clip842)" cx="1383.63" cy="1196.24" r="14.4" fill="#009af9" fill-rule="evenodd" fill-opacity="1" stroke="#000000" stroke-opacity="1" stroke-width="3.84"/>
<circle clip-path="url(#clip842)" cx="1468.52" cy="1235.89" r="14.4" fill="#009af9" fill-rule="evenodd" fill-opacity="1" stroke="#000000" stroke-opacity="1" stroke-width="3.84"/>
<circle clip-path="url(#clip842)" cx="1468.52" cy="1204.17" r="14.4" fill="#009af9" fill-rule="evenodd" fill-opacity="1" stroke="#000000" stroke-opacity="1" stroke-width="3.84"/>
<circle clip-path="url(#clip842)" cx="1468.52" cy="1156.59" r="14.4" fill="#009af9" fill-rule="evenodd" fill-opacity="1" stroke="#000000" stroke-opacity="1" stroke-width="3.84"/>
<circle clip-path="url(#clip842)" cx="1468.52" cy="1144.69" r="14.4" fill="#009af9" fill-rule="evenodd" fill-opacity="1" stroke="#000000" stroke-opacity="1" stroke-width="3.84"/>
<circle clip-path="url(#clip842)" cx="1468.52" cy="1120.9" r="14.4" fill="#009af9" fill-rule="evenodd" fill-opacity="1" stroke="#000000" stroke-opacity="1" stroke-width="3.84"/>
<circle clip-path="url(#clip842)" cx="1468.52" cy="1073.32" r="14.4" fill="#009af9" fill-rule="evenodd" fill-opacity="1" stroke="#000000" stroke-opacity="1" stroke-width="3.84"/>
<circle clip-path="url(#clip842)" cx="1468.52" cy="1045.56" r="14.4" fill="#009af9" fill-rule="evenodd" fill-opacity="1" stroke="#000000" stroke-opacity="1" stroke-width="3.84"/>
<circle clip-path="url(#clip842)" cx="1468.52" cy="1021.77" r="14.4" fill="#009af9" fill-rule="evenodd" fill-opacity="1" stroke="#000000" stroke-opacity="1" stroke-width="3.84"/>
<circle clip-path="url(#clip842)" cx="1553.4" cy="1204.17" r="14.4" fill="#009af9" fill-rule="evenodd" fill-opacity="1" stroke="#000000" stroke-opacity="1" stroke-width="3.84"/>
<circle clip-path="url(#clip842)" cx="1553.4" cy="1196.24" r="14.4" fill="#009af9" fill-rule="evenodd" fill-opacity="1" stroke="#000000" stroke-opacity="1" stroke-width="3.84"/>
<circle clip-path="url(#clip842)" cx="1553.4" cy="1164.52" r="14.4" fill="#009af9" fill-rule="evenodd" fill-opacity="1" stroke="#000000" stroke-opacity="1" stroke-width="3.84"/>
<circle clip-path="url(#clip842)" cx="1553.4" cy="1021.77" r="14.4" fill="#009af9" fill-rule="evenodd" fill-opacity="1" stroke="#000000" stroke-opacity="1" stroke-width="3.84"/>
<circle clip-path="url(#clip842)" cx="1553.4" cy="855.24" r="14.4" fill="#009af9" fill-rule="evenodd" fill-opacity="1" stroke="#000000" stroke-opacity="1" stroke-width="3.84"/>
<circle clip-path="url(#clip842)" cx="1553.4" cy="597.51" r="14.4" fill="#009af9" fill-rule="evenodd" fill-opacity="1" stroke="#000000" stroke-opacity="1" stroke-width="3.84"/>
<circle clip-path="url(#clip842)" cx="1638.28" cy="1243.82" r="14.4" fill="#009af9" fill-rule="evenodd" fill-opacity="1" stroke="#000000" stroke-opacity="1" stroke-width="3.84"/>
<circle clip-path="url(#clip842)" cx="1638.28" cy="1172.45" r="14.4" fill="#009af9" fill-rule="evenodd" fill-opacity="1" stroke="#000000" stroke-opacity="1" stroke-width="3.84"/>
<circle clip-path="url(#clip842)" cx="1638.28" cy="1089.18" r="14.4" fill="#009af9" fill-rule="evenodd" fill-opacity="1" stroke="#000000" stroke-opacity="1" stroke-width="3.84"/>
<circle clip-path="url(#clip842)" cx="1638.28" cy="1073.32" r="14.4" fill="#009af9" fill-rule="evenodd" fill-opacity="1" stroke="#000000" stroke-opacity="1" stroke-width="3.84"/>
<circle clip-path="url(#clip842)" cx="1638.28" cy="1013.84" r="14.4" fill="#009af9" fill-rule="evenodd" fill-opacity="1" stroke="#000000" stroke-opacity="1" stroke-width="3.84"/>
<circle clip-path="url(#clip842)" cx="1723.17" cy="1350.88" r="14.4" fill="#009af9" fill-rule="evenodd" fill-opacity="1" stroke="#000000" stroke-opacity="1" stroke-width="3.84"/>
<circle clip-path="url(#clip842)" cx="1723.17" cy="1223.99" r="14.4" fill="#009af9" fill-rule="evenodd" fill-opacity="1" stroke="#000000" stroke-opacity="1" stroke-width="3.84"/>
<circle clip-path="url(#clip842)" cx="1723.17" cy="1021.77" r="14.4" fill="#009af9" fill-rule="evenodd" fill-opacity="1" stroke="#000000" stroke-opacity="1" stroke-width="3.84"/>
<circle clip-path="url(#clip842)" cx="1723.17" cy="736.288" r="14.4" fill="#009af9" fill-rule="evenodd" fill-opacity="1" stroke="#000000" stroke-opacity="1" stroke-width="3.84"/>
<circle clip-path="url(#clip842)" cx="1808.05" cy="1204.17" r="14.4" fill="#009af9" fill-rule="evenodd" fill-opacity="1" stroke="#000000" stroke-opacity="1" stroke-width="3.84"/>
<circle clip-path="url(#clip842)" cx="1808.05" cy="1057.46" r="14.4" fill="#009af9" fill-rule="evenodd" fill-opacity="1" stroke="#000000" stroke-opacity="1" stroke-width="3.84"/>
<circle clip-path="url(#clip842)" cx="1808.05" cy="1045.56" r="14.4" fill="#009af9" fill-rule="evenodd" fill-opacity="1" stroke="#000000" stroke-opacity="1" stroke-width="3.84"/>
<circle clip-path="url(#clip842)" cx="1808.05" cy="1029.7" r="14.4" fill="#009af9" fill-rule="evenodd" fill-opacity="1" stroke="#000000" stroke-opacity="1" stroke-width="3.84"/>
<circle clip-path="url(#clip842)" cx="1808.05" cy="970.228" r="14.4" fill="#009af9" fill-rule="evenodd" fill-opacity="1" stroke="#000000" stroke-opacity="1" stroke-width="3.84"/>
<circle clip-path="url(#clip842)" cx="1808.05" cy="942.472" r="14.4" fill="#009af9" fill-rule="evenodd" fill-opacity="1" stroke="#000000" stroke-opacity="1" stroke-width="3.84"/>
<circle clip-path="url(#clip842)" cx="1808.05" cy="918.682" r="14.4" fill="#009af9" fill-rule="evenodd" fill-opacity="1" stroke="#000000" stroke-opacity="1" stroke-width="3.84"/>
<circle clip-path="url(#clip842)" cx="1808.05" cy="898.856" r="14.4" fill="#009af9" fill-rule="evenodd" fill-opacity="1" stroke="#000000" stroke-opacity="1" stroke-width="3.84"/>
<circle clip-path="url(#clip842)" cx="1808.05" cy="664.917" r="14.4" fill="#009af9" fill-rule="evenodd" fill-opacity="1" stroke="#000000" stroke-opacity="1" stroke-width="3.84"/>
<circle clip-path="url(#clip842)" cx="1892.93" cy="633.196" r="14.4" fill="#009af9" fill-rule="evenodd" fill-opacity="1" stroke="#000000" stroke-opacity="1" stroke-width="3.84"/>
<circle clip-path="url(#clip842)" cx="1892.93" cy="728.358" r="14.4" fill="#009af9" fill-rule="evenodd" fill-opacity="1" stroke="#000000" stroke-opacity="1" stroke-width="3.84"/>
<circle clip-path="url(#clip842)" cx="1892.93" cy="851.275" r="14.4" fill="#009af9" fill-rule="evenodd" fill-opacity="1" stroke="#000000" stroke-opacity="1" stroke-width="3.84"/>
<circle clip-path="url(#clip842)" cx="1892.93" cy="859.205" r="14.4" fill="#009af9" fill-rule="evenodd" fill-opacity="1" stroke="#000000" stroke-opacity="1" stroke-width="3.84"/>
<circle clip-path="url(#clip842)" cx="1892.93" cy="1017.81" r="14.4" fill="#009af9" fill-rule="evenodd" fill-opacity="1" stroke="#000000" stroke-opacity="1" stroke-width="3.84"/>
<circle clip-path="url(#clip842)" cx="1892.93" cy="1081.25" r="14.4" fill="#009af9" fill-rule="evenodd" fill-opacity="1" stroke="#000000" stroke-opacity="1" stroke-width="3.84"/>
<circle clip-path="url(#clip842)" cx="1892.93" cy="1101.08" r="14.4" fill="#009af9" fill-rule="evenodd" fill-opacity="1" stroke="#000000" stroke-opacity="1" stroke-width="3.84"/>
<circle clip-path="url(#clip842)" cx="1892.93" cy="1247.78" r="14.4" fill="#009af9" fill-rule="evenodd" fill-opacity="1" stroke="#000000" stroke-opacity="1" stroke-width="3.84"/>
<circle clip-path="url(#clip842)" cx="1977.82" cy="1279.5" r="14.4" fill="#009af9" fill-rule="evenodd" fill-opacity="1" stroke="#000000" stroke-opacity="1" stroke-width="3.84"/>
<circle clip-path="url(#clip842)" cx="1977.82" cy="1077.28" r="14.4" fill="#009af9" fill-rule="evenodd" fill-opacity="1" stroke="#000000" stroke-opacity="1" stroke-width="3.84"/>
<circle clip-path="url(#clip842)" cx="1977.82" cy="966.262" r="14.4" fill="#009af9" fill-rule="evenodd" fill-opacity="1" stroke="#000000" stroke-opacity="1" stroke-width="3.84"/>
<circle clip-path="url(#clip842)" cx="1977.82" cy="918.682" r="14.4" fill="#009af9" fill-rule="evenodd" fill-opacity="1" stroke="#000000" stroke-opacity="1" stroke-width="3.84"/>
<circle clip-path="url(#clip842)" cx="1977.82" cy="906.786" r="14.4" fill="#009af9" fill-rule="evenodd" fill-opacity="1" stroke="#000000" stroke-opacity="1" stroke-width="3.84"/>
<circle clip-path="url(#clip842)" cx="1977.82" cy="740.253" r="14.4" fill="#009af9" fill-rule="evenodd" fill-opacity="1" stroke="#000000" stroke-opacity="1" stroke-width="3.84"/>
<circle clip-path="url(#clip842)" cx="1977.82" cy="502.348" r="14.4" fill="#009af9" fill-rule="evenodd" fill-opacity="1" stroke="#000000" stroke-opacity="1" stroke-width="3.84"/>
<circle clip-path="url(#clip842)" cx="2062.7" cy="1021.77" r="14.4" fill="#009af9" fill-rule="evenodd" fill-opacity="1" stroke="#000000" stroke-opacity="1" stroke-width="3.84"/>
<circle clip-path="url(#clip842)" cx="2062.7" cy="934.542" r="14.4" fill="#009af9" fill-rule="evenodd" fill-opacity="1" stroke="#000000" stroke-opacity="1" stroke-width="3.84"/>
<circle clip-path="url(#clip842)" cx="2062.7" cy="827.485" r="14.4" fill="#009af9" fill-rule="evenodd" fill-opacity="1" stroke="#000000" stroke-opacity="1" stroke-width="3.84"/>
<circle clip-path="url(#clip842)" cx="2062.7" cy="799.729" r="14.4" fill="#009af9" fill-rule="evenodd" fill-opacity="1" stroke="#000000" stroke-opacity="1" stroke-width="3.84"/>
<circle clip-path="url(#clip842)" cx="2147.58" cy="827.485" r="14.4" fill="#009af9" fill-rule="evenodd" fill-opacity="1" stroke="#000000" stroke-opacity="1" stroke-width="3.84"/>
<circle clip-path="url(#clip842)" cx="2147.58" cy="740.253" r="14.4" fill="#009af9" fill-rule="evenodd" fill-opacity="1" stroke="#000000" stroke-opacity="1" stroke-width="3.84"/>
<circle clip-path="url(#clip842)" cx="2147.58" cy="736.288" r="14.4" fill="#009af9" fill-rule="evenodd" fill-opacity="1" stroke="#000000" stroke-opacity="1" stroke-width="3.84"/>
<circle clip-path="url(#clip842)" cx="2147.58" cy="664.917" r="14.4" fill="#009af9" fill-rule="evenodd" fill-opacity="1" stroke="#000000" stroke-opacity="1" stroke-width="3.84"/>
<circle clip-path="url(#clip842)" cx="2147.58" cy="470.628" r="14.4" fill="#009af9" fill-rule="evenodd" fill-opacity="1" stroke="#000000" stroke-opacity="1" stroke-width="3.84"/>
<circle clip-path="url(#clip842)" cx="2232.47" cy="799.729" r="14.4" fill="#009af9" fill-rule="evenodd" fill-opacity="1" stroke="#000000" stroke-opacity="1" stroke-width="3.84"/>
<circle clip-path="url(#clip842)" cx="2317.35" cy="764.043" r="14.4" fill="#009af9" fill-rule="evenodd" fill-opacity="1" stroke="#000000" stroke-opacity="1" stroke-width="3.84"/>
<circle clip-path="url(#clip842)" cx="2317.35" cy="534.069" r="14.4" fill="#009af9" fill-rule="evenodd" fill-opacity="1" stroke="#000000" stroke-opacity="1" stroke-width="3.84"/>
<circle clip-path="url(#clip842)" cx="2402.23" cy="855.24" r="14.4" fill="#009af9" fill-rule="evenodd" fill-opacity="1" stroke="#000000" stroke-opacity="1" stroke-width="3.84"/>
<circle clip-path="url(#clip842)" cx="2487.12" cy="300.129" r="14.4" fill="#009af9" fill-rule="evenodd" fill-opacity="1" stroke="#000000" stroke-opacity="1" stroke-width="3.84"/>
<circle clip-path="url(#clip842)" cx="2572" cy="827.485" r="14.4" fill="#009af9" fill-rule="evenodd" fill-opacity="1" stroke="#000000" stroke-opacity="1" stroke-width="3.84"/>
<polyline clip-path="url(#clip842)" style="stroke:#e26f46; stroke-linecap:round; stroke-linejoin:round; stroke-width:4; stroke-opacity:1; fill:none" points="280.151,1686.01 288.639,1685.85 297.127,1685.69 305.616,1685.51 314.104,1685.31 322.592,1685.1 331.081,1684.87 339.569,1684.63 348.057,1684.36 356.546,1684.07 365.034,1683.76 373.522,1683.42 382.011,1683.06 390.499,1682.66 398.987,1682.24 407.476,1681.78 415.964,1681.28 424.452,1680.74 432.941,1680.16 441.429,1679.53 449.917,1678.85 458.406,1678.11 466.894,1677.32 475.382,1676.45 483.871,1675.52 492.359,1674.52 500.847,1673.43 509.336,1672.25 517.824,1670.98 526.312,1669.6 534.801,1668.11 543.289,1666.51 551.777,1664.77 560.266,1662.89 568.754,1660.85 577.242,1658.65 585.731,1656.27 594.219,1653.7 602.707,1650.92 611.196,1647.92 619.684,1644.66 628.172,1641.15 636.661,1637.35 645.149,1633.24 653.637,1628.8 662.126,1624.11 670.614,1619.41 679.102,1614.71 687.591,1610.01 696.079,1605.31 704.567,1600.61 713.056,1595.91 721.544,1591.21 730.032,1586.52 738.521,1581.82 747.009,1577.12 755.497,1572.42 763.986,1567.72 772.474,1563.02 780.962,1558.32 789.451,1553.63 797.939,1548.93 806.427,1544.23 814.916,1539.53 823.404,1534.83 831.892,1530.13 840.381,1525.43 848.869,1520.73 857.357,1516.04 865.846,1511.34 874.334,1506.64 882.822,1501.94 891.311,1497.24 899.799,1492.54 908.287,1487.84 916.776,1483.15 925.264,1478.45 933.752,1473.75 942.241,1469.05 950.729,1464.35 959.217,1459.65 967.706,1454.95 976.194,1450.25 984.682,1445.56 993.171,1440.86 1001.66,1436.16 1010.15,1431.46 1018.64,1426.76 1027.12,1422.06 1035.61,1417.36 1044.1,1412.66 1052.59,1407.97 1061.08,1403.27 1069.57,1398.57 1078.05,1393.87 1086.54,1389.17 1095.03,1384.47 1103.52,1379.77 1112.01,1375.08 1120.5,1370.38 1128.98,1365.68 1137.47,1360.98 1145.96,1356.28 1154.45,1351.58 1162.94,1346.88 1171.43,1342.18 1179.91,1337.49 1188.4,1332.79 1196.89,1328.09 1205.38,1323.39 1213.87,1318.69 1222.36,1313.99 1230.84,1309.29 1239.33,1304.59 1247.82,1299.9 1256.31,1295.2 1264.8,1290.5 1273.29,1285.8 1281.77,1281.1 1290.26,1276.4 1298.75,1271.7 1307.24,1267.01 1315.73,1262.31 1324.22,1257.61 1332.7,1252.91 1341.19,1248.21 1349.68,1243.51 1358.17,1238.81 1366.66,1234.11 1375.15,1229.42 1383.63,1224.72 1392.12,1220.02 1400.61,1215.32 1409.1,1210.62 1417.59,1205.92 1426.08,1201.22 1434.56,1196.53 1443.05,1191.83 1451.54,1187.13 1460.03,1182.43 1468.52,1177.73 1477.01,1173.03 1485.49,1168.33 1493.98,1163.63 1502.47,1158.94 1510.96,1154.24 1519.45,1149.54 1527.94,1144.84 1536.42,1140.14 1544.91,1135.44 1553.4,1130.74 1561.89,1126.04 1570.38,1121.35 1578.87,1116.65 1587.35,1111.95 1595.84,1107.25 1604.33,1102.55 1612.82,1097.85 1621.31,1093.15 1629.8,1088.46 1638.28,1083.76 1646.77,1079.06 1655.26,1074.36 1663.75,1069.66 1672.24,1064.96 1680.73,1060.26 1689.21,1055.56 1697.7,1050.87 1706.19,1046.17 1714.68,1041.47 1723.17,1036.77 1731.66,1032.07 1740.14,1027.37 1748.63,1022.67 1757.12,1017.98 1765.61,1013.28 1774.1,1008.58 1782.59,1003.88 1791.07,999.18 1799.56,994.482 1808.05,989.783 1816.54,985.084 1825.03,980.386 1833.52,975.687 1842,970.988 1850.49,966.29 1858.98,961.591 1867.47,956.892 1875.96,952.193 1884.45,947.495 1892.93,942.796 1901.42,938.097 1909.91,933.399 1918.4,928.7 1926.89,924.001 1935.38,919.303 1943.86,914.604 1952.35,909.905 1960.84,905.207 1969.33,900.508 1977.82,895.809 1986.31,891.111 1994.79,886.412 2003.28,881.713 2011.77,877.014 2020.26,872.316 2028.75,867.617 2037.24,862.918 2045.72,858.22 2054.21,853.521 2062.7,848.822 2071.19,844.124 2079.68,839.425 2088.17,834.726 2096.65,830.028 2105.14,825.329 2113.63,820.63 2122.12,815.932 2130.61,811.233 2139.1,806.534 2147.58,801.835 2156.07,797.137 2164.56,792.438 2173.05,787.739 2181.54,783.041 2190.03,778.342 2198.51,773.643 2207,768.945 2215.49,764.246 2223.98,759.547 2232.47,754.849 2240.96,750.15 2249.44,745.451 2257.93,740.753 2266.42,736.054 2274.91,731.355 2283.4,726.657 2291.89,721.958 2300.37,717.259 2308.86,712.56 2317.35,707.862 2325.84,703.163 2334.33,698.464 2342.82,693.766 2351.3,689.067 2359.79,684.368 2368.28,679.67 2376.77,674.971 2385.26,670.272 2393.75,665.574 2402.23,660.875 2410.72,656.176 2419.21,651.478 2427.7,646.779 2436.19,642.08 2444.68,637.381 2453.16,632.683 2461.65,627.984 2470.14,623.285 2478.63,618.587 2487.12,613.888 2495.61,609.189 2504.09,604.491 2512.58,599.792 2521.07,595.093 2529.56,590.395 2538.05,585.696 2546.54,580.997 2555.02,576.299 2563.51,571.6 2572,566.901 "/>
<path clip-path="url(#clip842)" d="M280.151 1686.38 L288.639 1686.29 L297.127 1686.19 L305.616 1686.09 L314.104 1685.99 L322.592 1685.87 L331.081 1685.75 L339.569 1685.63 L348.057 1685.5 L356.546 1685.36 L365.034 1685.21 L373.522 1685.05 L382.011 1684.88 L390.499 1684.71 L398.987 1684.52 L407.476 1684.32 L415.964 1684.11 L424.452 1683.89 L432.941 1683.66 L441.429 1683.41 L449.917 1683.15 L458.406 1682.87 L466.894 1682.57 L475.382 1682.26 L483.871 1681.93 L492.359 1681.59 L500.847 1681.22 L509.336 1680.83 L517.824 1680.41 L526.312 1679.98 L534.801 1679.51 L543.289 1679.02 L551.777 1678.51 L560.266 1677.96 L568.754 1677.38 L577.242 1676.76 L585.731 1676.11 L594.219 1675.42 L602.707 1674.7 L611.196 1673.92 L619.684 1673.11 L628.172 1672.24 L636.661 1671.33 L645.149 1670.36 L653.637 1669.34 L662.126 1668.26 L670.614 1667.11 L679.102 1665.9 L687.591 1664.61 L696.079 1663.25 L704.567 1661.82 L713.056 1660.29 L721.544 1658.68 L730.032 1656.98 L738.521 1655.17 L747.009 1653.26 L755.497 1651.24 L763.986 1649.1 L772.474 1646.84 L780.962 1644.44 L789.451 1641.91 L797.939 1639.27 L806.427 1636.67 L814.916 1633.68 L823.404 1630.52 L831.892 1627.18 L840.381 1623.68 L848.869 1619.95 L857.357 1615.99 L865.846 1611.81 L874.334 1607.68 L882.822 1603.22 L891.311 1598.94 L899.799 1594.37 L908.287 1590.36 L916.776 1586.27 L925.264 1581.9 L933.752 1577.06 L942.241 1572.78 L950.729 1568.74 L959.217 1564.03 L967.706 1560.11 L976.194 1555.65 L984.682 1550.98 L993.171 1546.35 L1001.66 1542.7 L1010.15 1538.21 L1018.64 1533.79 L1027.12 1529.71 L1035.61 1525.63 L1044.1 1521.29 L1052.59 1517.39 L1061.08 1513.31 L1069.57 1509.1 L1078.05 1505.3 L1086.54 1501.76 L1095.03 1498.26 L1103.52 1494.51 L1112.01 1490.85 L1120.5 1487.07 L1128.98 1483.6 L1137.47 1479.86 L1145.96 1476.23 L1154.45 1472.1 L1162.94 1468.36 L1171.43 1464.72 L1179.91 1461.17 L1188.4 1457.54 L1196.89 1453.74 L1205.38 1450.33 L1213.87 1446.34 L1222.36 1442.76 L1230.84 1439.22 L1239.33 1435.69 L1247.82 1432.19 L1256.31 1428.56 L1264.8 1425.01 L1273.29 1421.45 L1281.77 1418.4 L1290.26 1414.95 L1298.75 1411.49 L1307.24 1408.07 L1315.73 1404.57 L1324.22 1401.06 L1332.7 1397.86 L1341.19 1394.58 L1349.68 1391.11 L1358.17 1388.2 L1366.66 1385.05 L1375.15 1381.16 L1383.63 1377.52 L1392.12 1374.18 L1400.61 1371.15 L1409.1 1368.09 L1417.59 1364.64 L1426.08 1361.3 L1434.56 1358.07 L1443.05 1354.82 L1451.54 1351.39 L1460.03 1347.71 L1468.52 1344.19 L1477.01 1340.55 L1485.49 1337.18 L1493.98 1334.1 L1502.47 1330.77 L1510.96 1327.5 L1519.45 1324.03 L1527.94 1320.37 L1536.42 1317.09 L1544.91 1313.8 L1553.4 1310.57 L1561.89 1307.37 L1570.38 1304.33 L1578.87 1300.71 L1587.35 1297.31 L1595.84 1293.92 L1604.33 1290.82 L1612.82 1287.75 L1621.31 1284.73 L1629.8 1281.53 L1638.28 1278.4 L1646.77 1275.34 L1655.26 1272.28 L1663.75 1269.19 L1672.24 1266.04 L1680.73 1262.6 L1689.21 1259.04 L1697.7 1255.66 L1706.19 1252.41 L1714.68 1249.27 L1723.17 1246.13 L1731.66 1242.96 L1740.14 1239.81 L1748.63 1236.68 L1757.12 1233.54 L1765.61 1230.4 L1774.1 1227.48 L1782.59 1224.64 L1791.07 1221.38 L1799.56 1218.26 L1808.05 1215.09 L1816.54 1211.73 L1825.03 1208.7 L1833.52 1205.75 L1842 1202.75 L1850.49 1199.55 L1858.98 1196.35 L1867.47 1192.77 L1875.96 1189.55 L1884.45 1185.98 L1892.93 1182.55 L1901.42 1179.46 L1909.91 1176.37 L1918.4 1173.28 L1926.89 1170.18 L1935.38 1167.09 L1943.86 1163.85 L1952.35 1160.52 L1960.84 1157.56 L1969.33 1154.16 L1977.82 1151.09 L1986.31 1148.03 L1994.79 1144.88 L2003.28 1141.82 L2011.77 1138.74 L2020.26 1135.55 L2028.75 1132.31 L2037.24 1129.11 L2045.72 1125.78 L2054.21 1122.71 L2062.7 1119.55 L2071.19 1116.34 L2079.68 1113.14 L2088.17 1109.94 L2096.65 1106.71 L2105.14 1103.55 L2113.63 1100.35 L2122.12 1097.36 L2130.61 1094.39 L2139.1 1090.96 L2147.58 1087.56 L2156.07 1084.37 L2164.56 1081.17 L2173.05 1077.98 L2181.54 1074.78 L2190.03 1071.58 L2198.51 1068.42 L2207 1065.28 L2215.49 1062.13 L2223.98 1058.99 L2232.47 1055.85 L2240.96 1052.7 L2249.44 1049.61 L2257.93 1046.55 L2266.42 1043.48 L2274.91 1040.41 L2283.4 1037.22 L2291.89 1033.87 L2300.37 1030.68 L2308.86 1027.54 L2317.35 1024.4 L2325.84 1021.3 L2334.33 1018.22 L2342.82 1015.14 L2351.3 1012.05 L2359.79 1008.72 L2368.28 1005.54 L2376.77 1002.4 L2385.26 999.251 L2393.75 996.105 L2402.23 992.965 L2410.72 989.826 L2419.21 986.688 L2427.7 983.55 L2436.19 980.41 L2444.68 977.266 L2453.16 974.123 L2461.65 970.98 L2470.14 967.837 L2478.63 964.694 L2487.12 961.549 L2495.61 958.404 L2504.09 955.259 L2512.58 952.114 L2521.07 948.905 L2529.56 945.649 L2538.05 942.394 L2546.54 939.138 L2555.02 935.883 L2563.51 932.627 L2572 929.439 L2572 94.9858 L2563.51 101.947 L2555.02 108.909 L2546.54 115.871 L2538.05 122.838 L2529.56 130.072 L2521.07 137.54 L2512.58 145.008 L2504.09 151.741 L2495.61 158.29 L2487.12 164.839 L2478.63 171.564 L2470.14 178.526 L2461.65 185.488 L2453.16 192.353 L2444.68 199.046 L2436.19 205.782 L2427.7 212.517 L2419.21 219.263 L2410.72 226.334 L2402.23 233.428 L2393.75 240.619 L2385.26 247.604 L2376.77 254.572 L2368.28 261.034 L2359.79 267.515 L2351.3 274.126 L2342.82 281.184 L2334.33 287.788 L2325.84 294.407 L2317.35 301.188 L2308.86 308.282 L2300.37 315.376 L2291.89 322.47 L2283.4 329.154 L2274.91 335.285 L2266.42 341.417 L2257.93 347.549 L2249.44 354.025 L2240.96 360.76 L2232.47 367.495 L2223.98 374.23 L2215.49 380.965 L2207 387.7 L2198.51 394.162 L2190.03 400.612 L2181.54 407.071 L2173.05 414.181 L2164.56 420.969 L2156.07 427.387 L2147.58 433.806 L2139.1 440.224 L2130.61 446.643 L2122.12 453.062 L2113.63 459.583 L2105.14 466.45 L2096.65 473.948 L2088.17 480.338 L2079.68 486.736 L2071.19 493.314 L2062.7 500.244 L2054.21 507.072 L2045.72 513.446 L2037.24 519.819 L2028.75 526.556 L2020.26 533.401 L2011.77 540.343 L2003.28 547.563 L1994.79 554.783 L1986.31 562.003 L1977.82 569.223 L1969.33 576.348 L1960.84 583.095 L1952.35 589.289 L1943.86 595.934 L1935.38 603.014 L1926.89 609.353 L1918.4 615.666 L1909.91 622.353 L1901.42 628.885 L1892.93 635.286 L1884.45 642.861 L1875.96 649.714 L1867.47 656.287 L1858.98 662.968 L1850.49 669.75 L1842 676.341 L1833.52 682.917 L1825.03 689.626 L1816.54 696.291 L1808.05 702.812 L1799.56 709.817 L1791.07 717.073 L1782.59 724.33 L1774.1 731.034 L1765.61 737.465 L1757.12 744.168 L1748.63 750.564 L1740.14 756.963 L1731.66 763.356 L1723.17 769.752 L1714.68 776.083 L1706.19 782.4 L1697.7 788.717 L1689.21 795.1 L1680.73 801.502 L1672.24 807.908 L1663.75 814.439 L1655.26 820.923 L1646.77 827.485 L1638.28 834.165 L1629.8 840.823 L1621.31 847.321 L1612.82 853.893 L1604.33 860.469 L1595.84 867.045 L1587.35 873.621 L1578.87 879.969 L1570.38 886.294 L1561.89 892.692 L1553.4 898.914 L1544.91 905.228 L1536.42 912.201 L1527.94 918.549 L1519.45 924.9 L1510.96 931.25 L1502.47 937.614 L1493.98 944.636 L1485.49 951.535 L1477.01 958.269 L1468.52 964.658 L1460.03 971.501 L1451.54 978.401 L1443.05 985.158 L1434.56 991.747 L1426.08 998.396 L1417.59 1005.1 L1409.1 1011.72 L1400.61 1018.29 L1392.12 1024.87 L1383.63 1031.44 L1375.15 1037.79 L1366.66 1044.36 L1358.17 1050.28 L1349.68 1056.12 L1341.19 1062.51 L1332.7 1069.08 L1324.22 1074.95 L1315.73 1080.93 L1307.24 1087.45 L1298.75 1093.96 L1290.26 1100.43 L1281.77 1106.81 L1273.29 1112.88 L1264.8 1119.75 L1256.31 1126.43 L1247.82 1132.76 L1239.33 1138.9 L1230.84 1144.99 L1222.36 1151.1 L1213.87 1157.39 L1205.38 1164.41 L1196.89 1171.37 L1188.4 1177.94 L1179.91 1184.98 L1171.43 1191.36 L1162.94 1197.74 L1154.45 1204.78 L1145.96 1211.31 L1137.47 1217.94 L1128.98 1224.13 L1120.5 1230.23 L1112.01 1236.53 L1103.52 1242.41 L1095.03 1248.36 L1086.54 1254.59 L1078.05 1260.81 L1069.57 1267.67 L1061.08 1273.96 L1052.59 1280.39 L1044.1 1287.1 L1035.61 1293.11 L1027.12 1299.62 L1018.64 1305.71 L1010.15 1312.07 L1001.66 1318.37 L993.171 1324.51 L984.682 1330.95 L976.194 1337.34 L967.706 1343.43 L959.217 1349.58 L950.729 1355.41 L942.241 1361.08 L933.752 1367.47 L925.264 1373.13 L916.776 1379.38 L908.287 1385.42 L899.799 1391.1 L891.311 1397.04 L882.822 1403.23 L874.334 1409.08 L865.846 1415.3 L857.357 1421.15 L848.869 1426.73 L840.381 1432.92 L831.892 1438.52 L823.404 1443.93 L814.916 1449.38 L806.427 1455.16 L797.939 1460.85 L789.451 1466.56 L780.962 1472.8 L772.474 1478.51 L763.986 1484.3 L755.497 1489.9 L747.009 1495.89 L738.521 1501.59 L730.032 1506.91 L721.544 1512.23 L713.056 1518.06 L704.567 1523.74 L696.079 1529.08 L687.591 1533.83 L679.102 1539.32 L670.614 1544.18 L662.126 1550.36 L653.637 1556.69 L645.149 1561.39 L636.661 1566.16 L628.172 1571.5 L619.684 1576.52 L611.196 1582.17 L602.707 1587.31 L594.219 1592.42 L585.731 1597.2 L577.242 1602.09 L568.754 1606.76 L560.266 1612.07 L551.777 1617.52 L543.289 1622.35 L534.801 1627 L526.312 1631.82 L517.824 1636.46 L509.336 1640.7 L500.847 1644.97 L492.359 1649.22 L483.871 1653.2 L475.382 1656.6 L466.894 1659.82 L458.406 1662.7 L449.917 1665.3 L441.429 1667.62 L432.941 1669.71 L424.452 1671.58 L415.964 1673.27 L407.476 1674.77 L398.987 1676.12 L390.499 1677.34 L382.011 1678.43 L373.522 1679.4 L365.034 1680.28 L356.546 1681.06 L348.057 1681.77 L339.569 1682.4 L331.081 1682.97 L322.592 1683.47 L314.104 1683.93 L305.616 1684.34 L297.127 1684.71 L288.639 1685.04 L280.151 1685.33  Z" fill="#e26f46" fill-rule="evenodd" fill-opacity="0.25"/>
<polyline clip-path="url(#clip842)" style="stroke:#e26f46; stroke-linecap:round; stroke-linejoin:round; stroke-width:4; stroke-opacity:0.25; fill:none" points="280.151,1686.38 288.639,1686.29 297.127,1686.19 305.616,1686.09 314.104,1685.99 322.592,1685.87 331.081,1685.75 339.569,1685.63 348.057,1685.5 356.546,1685.36 365.034,1685.21 373.522,1685.05 382.011,1684.88 390.499,1684.71 398.987,1684.52 407.476,1684.32 415.964,1684.11 424.452,1683.89 432.941,1683.66 441.429,1683.41 449.917,1683.15 458.406,1682.87 466.894,1682.57 475.382,1682.26 483.871,1681.93 492.359,1681.59 500.847,1681.22 509.336,1680.83 517.824,1680.41 526.312,1679.98 534.801,1679.51 543.289,1679.02 551.777,1678.51 560.266,1677.96 568.754,1677.38 577.242,1676.76 585.731,1676.11 594.219,1675.42 602.707,1674.7 611.196,1673.92 619.684,1673.11 628.172,1672.24 636.661,1671.33 645.149,1670.36 653.637,1669.34 662.126,1668.26 670.614,1667.11 679.102,1665.9 687.591,1664.61 696.079,1663.25 704.567,1661.82 713.056,1660.29 721.544,1658.68 730.032,1656.98 738.521,1655.17 747.009,1653.26 755.497,1651.24 763.986,1649.1 772.474,1646.84 780.962,1644.44 789.451,1641.91 797.939,1639.27 806.427,1636.67 814.916,1633.68 823.404,1630.52 831.892,1627.18 840.381,1623.68 848.869,1619.95 857.357,1615.99 865.846,1611.81 874.334,1607.68 882.822,1603.22 891.311,1598.94 899.799,1594.37 908.287,1590.36 916.776,1586.27 925.264,1581.9 933.752,1577.06 942.241,1572.78 950.729,1568.74 959.217,1564.03 967.706,1560.11 976.194,1555.65 984.682,1550.98 993.171,1546.35 1001.66,1542.7 1010.15,1538.21 1018.64,1533.79 1027.12,1529.71 1035.61,1525.63 1044.1,1521.29 1052.59,1517.39 1061.08,1513.31 1069.57,1509.1 1078.05,1505.3 1086.54,1501.76 1095.03,1498.26 1103.52,1494.51 1112.01,1490.85 1120.5,1487.07 1128.98,1483.6 1137.47,1479.86 1145.96,1476.23 1154.45,1472.1 1162.94,1468.36 1171.43,1464.72 1179.91,1461.17 1188.4,1457.54 1196.89,1453.74 1205.38,1450.33 1213.87,1446.34 1222.36,1442.76 1230.84,1439.22 1239.33,1435.69 1247.82,1432.19 1256.31,1428.56 1264.8,1425.01 1273.29,1421.45 1281.77,1418.4 1290.26,1414.95 1298.75,1411.49 1307.24,1408.07 1315.73,1404.57 1324.22,1401.06 1332.7,1397.86 1341.19,1394.58 1349.68,1391.11 1358.17,1388.2 1366.66,1385.05 1375.15,1381.16 1383.63,1377.52 1392.12,1374.18 1400.61,1371.15 1409.1,1368.09 1417.59,1364.64 1426.08,1361.3 1434.56,1358.07 1443.05,1354.82 1451.54,1351.39 1460.03,1347.71 1468.52,1344.19 1477.01,1340.55 1485.49,1337.18 1493.98,1334.1 1502.47,1330.77 1510.96,1327.5 1519.45,1324.03 1527.94,1320.37 1536.42,1317.09 1544.91,1313.8 1553.4,1310.57 1561.89,1307.37 1570.38,1304.33 1578.87,1300.71 1587.35,1297.31 1595.84,1293.92 1604.33,1290.82 1612.82,1287.75 1621.31,1284.73 1629.8,1281.53 1638.28,1278.4 1646.77,1275.34 1655.26,1272.28 1663.75,1269.19 1672.24,1266.04 1680.73,1262.6 1689.21,1259.04 1697.7,1255.66 1706.19,1252.41 1714.68,1249.27 1723.17,1246.13 1731.66,1242.96 1740.14,1239.81 1748.63,1236.68 1757.12,1233.54 1765.61,1230.4 1774.1,1227.48 1782.59,1224.64 1791.07,1221.38 1799.56,1218.26 1808.05,1215.09 1816.54,1211.73 1825.03,1208.7 1833.52,1205.75 1842,1202.75 1850.49,1199.55 1858.98,1196.35 1867.47,1192.77 1875.96,1189.55 1884.45,1185.98 1892.93,1182.55 1901.42,1179.46 1909.91,1176.37 1918.4,1173.28 1926.89,1170.18 1935.38,1167.09 1943.86,1163.85 1952.35,1160.52 1960.84,1157.56 1969.33,1154.16 1977.82,1151.09 1986.31,1148.03 1994.79,1144.88 2003.28,1141.82 2011.77,1138.74 2020.26,1135.55 2028.75,1132.31 2037.24,1129.11 2045.72,1125.78 2054.21,1122.71 2062.7,1119.55 2071.19,1116.34 2079.68,1113.14 2088.17,1109.94 2096.65,1106.71 2105.14,1103.55 2113.63,1100.35 2122.12,1097.36 2130.61,1094.39 2139.1,1090.96 2147.58,1087.56 2156.07,1084.37 2164.56,1081.17 2173.05,1077.98 2181.54,1074.78 2190.03,1071.58 2198.51,1068.42 2207,1065.28 2215.49,1062.13 2223.98,1058.99 2232.47,1055.85 2240.96,1052.7 2249.44,1049.61 2257.93,1046.55 2266.42,1043.48 2274.91,1040.41 2283.4,1037.22 2291.89,1033.87 2300.37,1030.68 2308.86,1027.54 2317.35,1024.4 2325.84,1021.3 2334.33,1018.22 2342.82,1015.14 2351.3,1012.05 2359.79,1008.72 2368.28,1005.54 2376.77,1002.4 2385.26,999.251 2393.75,996.105 2402.23,992.965 2410.72,989.826 2419.21,986.688 2427.7,983.55 2436.19,980.41 2444.68,977.266 2453.16,974.123 2461.65,970.98 2470.14,967.837 2478.63,964.694 2487.12,961.549 2495.61,958.404 2504.09,955.259 2512.58,952.114 2521.07,948.905 2529.56,945.649 2538.05,942.394 2546.54,939.138 2555.02,935.883 2563.51,932.627 2572,929.439 "/>
</svg>
